<?xml version="1.0" encoding="UTF-8"?>
<svg id="Layer_1" data-name="Layer 1" xmlns="http://www.w3.org/2000/svg" viewBox="0 0 282.15 136.52">
  <defs>
    <style>
      .cls-1 {
        fill: #f8fcf8;
      }

      .cls-2 {
        fill: #ff9ecf;
      }
    </style>
  </defs>
  <path class="cls-1" d="M172.16,30.77c2.03-4.18,4.79-7.4,8.3-9.65,3.51-2.25,7.42-3.38,11.73-3.38,3.73,0,6.95.74,9.65,2.22,2.7,1.48,4.79,3.48,6.27,5.98v-7.53h18.92v54.15h-18.92v-7.53c-1.48,2.51-3.59,4.51-6.32,5.98-2.74,1.48-5.94,2.22-9.6,2.22-4.31,0-8.22-1.13-11.73-3.38-3.51-2.25-6.27-5.49-8.3-9.7-2.03-4.21-3.04-9.12-3.04-14.72s1.01-10.49,3.04-14.67ZM205.27,37.24c-1.9-1.99-4.23-2.99-7-2.99s-5.18.98-7.05,2.94c-1.87,1.96-2.8,4.71-2.8,8.25s.93,6.23,2.8,8.25c1.87,2.03,4.21,3.04,7.05,3.04s5.1-1,7-2.99c1.9-1.99,2.85-4.76,2.85-8.3s-.95-6.21-2.85-8.2Z"/>
  <path class="cls-1" d="M246.58,70.78c-3.83-1.64-6.85-3.89-9.07-6.76-2.22-2.86-3.46-6.1-3.72-9.7h18.34c.26,1.74,1.06,3.09,2.41,4.05s3.02,1.45,5.02,1.45c1.54,0,2.77-.32,3.67-.97.9-.64,1.35-1.48,1.35-2.51,0-1.35-.74-2.35-2.22-2.99-1.48-.64-3.93-1.35-7.34-2.12-3.86-.77-7.08-1.64-9.65-2.61-2.57-.97-4.81-2.54-6.71-4.73-1.9-2.19-2.85-5.15-2.85-8.88,0-3.22.87-6.13,2.61-8.74,1.74-2.61,4.3-4.68,7.67-6.23,3.38-1.54,7.45-2.32,12.21-2.32,7.08,0,12.65,1.74,16.7,5.21,4.05,3.48,6.4,8.05,7.05,13.71h-17.09c-.32-1.74-1.08-3.07-2.27-4.01-1.19-.93-2.78-1.4-4.78-1.4-1.54,0-2.72.29-3.52.87s-1.21,1.38-1.21,2.41c0,1.29.74,2.27,2.22,2.94s3.86,1.37,7.14,2.08c3.92.84,7.19,1.77,9.8,2.8,2.61,1.03,4.89,2.69,6.85,4.97,1.96,2.29,2.94,5.39,2.94,9.32,0,3.15-.92,5.98-2.75,8.49s-4.44,4.49-7.82,5.94c-3.38,1.45-7.35,2.17-11.92,2.17-4.89,0-9.25-.82-13.08-2.46Z"/>
  <g>
    <path class="cls-1" d="M.06,135.8c-.09-.17-.09-.37,0-.58l22.2-43.95c.17-.34.45-.52.84-.52h6.08c.26,0,.43.09.52.26.09.17.09.37,0,.58l-22.2,43.95c-.17.35-.45.52-.84.52H.58c-.26,0-.43-.09-.52-.26Z"/>
    <path class="cls-1" d="M41.33,134.44c-2.61-1.38-4.62-3.35-6.02-5.92-1.4-2.57-2.1-5.55-2.1-8.96s.7-6.47,2.1-9.06c1.4-2.59,3.41-4.57,6.02-5.95,2.61-1.38,5.66-2.07,9.16-2.07s6.19.68,8.61,2.04c2.42,1.36,4.27,3.31,5.57,5.86,1.29,2.55,1.94,5.57,1.94,9.06v1.81c0,.17-.07.33-.19.49-.13.15-.3.23-.52.23h-27.25v-5.31h20.26l-.97.91c0-2.72-.65-4.82-1.94-6.31-1.29-1.49-3.11-2.23-5.44-2.23-2.68,0-4.72.8-6.15,2.39-1.42,1.6-2.14,3.93-2.14,6.99v2.14c0,3.02.71,5.35,2.14,6.99s3.47,2.46,6.15,2.46c1.94,0,3.5-.35,4.69-1.04,1.19-.69,2-1.66,2.43-2.91.13-.39.39-.58.78-.58h7.25c.26,0,.45.04.58.13.13.09.17.22.13.39-.61,3.24-2.29,5.8-5.05,7.7-2.76,1.9-6.39,2.85-10.87,2.85-3.5,0-6.55-.69-9.16-2.07Z"/>
    <path class="cls-1" d="M72.94,135.87c-.13-.13-.19-.3-.19-.52v-31.71c0-.26.07-.44.19-.55.13-.11.3-.16.52-.16h7.06c.26,0,.44.05.55.16.11.11.16.29.16.55v4.14h.26c1.12-1.73,2.54-3.04,4.27-3.95,1.73-.91,3.67-1.36,5.83-1.36s4.16.44,5.76,1.33c1.6.88,2.87,2.21,3.82,3.98h.26c1.34-1.68,3-2.99,4.98-3.92,1.98-.93,4.16-1.39,6.54-1.39,3.71,0,6.54,1.24,8.48,3.72,1.94,2.48,2.91,6.14,2.91,10.97v18.19c0,.22-.05.39-.16.52-.11.13-.29.2-.55.2h-7.51c-.17,0-.33-.07-.49-.2-.15-.13-.23-.3-.23-.52v-18.19c0-2.63-.5-4.57-1.49-5.83-.99-1.25-2.57-1.88-4.72-1.88s-3.68.63-4.69,1.88c-1.01,1.25-1.52,3.19-1.52,5.83v18.19c0,.22-.05.39-.16.52-.11.13-.29.2-.55.2h-7.44c-.22,0-.39-.07-.52-.2s-.19-.3-.19-.52v-18.19c0-2.63-.51-4.57-1.52-5.83-1.01-1.25-2.58-1.88-4.69-1.88s-3.74.63-4.76,1.88c-1.01,1.25-1.52,3.19-1.52,5.83v18.19c0,.22-.05.39-.16.52-.11.13-.27.2-.49.2h-7.51c-.22,0-.39-.07-.52-.2Z"/>
    <path class="cls-1" d="M153.33,133.51c-1.73-1.71-2.59-4.15-2.59-7.35v-16.76h-5.37c-.22,0-.39-.06-.52-.19-.13-.13-.19-.3-.19-.52v-5.05c0-.47.24-.71.71-.71h5.37v-9.06c0-.26.08-.44.23-.55.15-.11.31-.16.49-.16h7.51c.26,0,.44.05.55.16.11.11.16.29.16.55v9.06h7.7c.26,0,.44.05.55.16.11.11.16.29.16.55v5.05c0,.48-.24.71-.71.71h-7.7v20.19h7.7c.26,0,.44.05.55.16.11.11.16.29.16.55v5.05c0,.48-.24.71-.71.71h-6.67c-3.19,0-5.65-.85-7.38-2.56Z"/>
    <path class="cls-1" d="M179.83,134.44c-2.61-1.38-4.62-3.35-6.02-5.92-1.4-2.57-2.1-5.55-2.1-8.96s.7-6.47,2.1-9.06c1.4-2.59,3.41-4.57,6.02-5.95,2.61-1.38,5.66-2.07,9.16-2.07s6.19.68,8.61,2.04c2.42,1.36,4.27,3.31,5.57,5.86,1.29,2.55,1.94,5.57,1.94,9.06v1.81c0,.17-.07.33-.19.49-.13.15-.3.23-.52.23h-27.25v-5.31h20.26l-.97.91c0-2.72-.65-4.82-1.94-6.31-1.29-1.49-3.11-2.23-5.44-2.23-2.68,0-4.72.8-6.15,2.39-1.42,1.6-2.14,3.93-2.14,6.99v2.14c0,3.02.71,5.35,2.14,6.99s3.47,2.46,6.15,2.46c1.94,0,3.5-.35,4.69-1.04,1.19-.69,2-1.66,2.43-2.91.13-.39.39-.58.78-.58h7.25c.26,0,.45.04.58.13.13.09.17.22.13.39-.61,3.24-2.29,5.8-5.05,7.7-2.76,1.9-6.39,2.85-10.87,2.85-3.5,0-6.55-.69-9.16-2.07Z"/>
    <path class="cls-1" d="M217.43,134.44c-2.61-1.38-4.62-3.35-6.02-5.92-1.4-2.57-2.1-5.55-2.1-8.96s.72-6.4,2.17-8.96c1.45-2.57,3.47-4.56,6.08-5.99,2.61-1.42,5.62-2.14,9.03-2.14,2.89,0,5.45.49,7.67,1.46,2.22.97,4.02,2.35,5.4,4.14,1.38,1.79,2.22,3.89,2.52,6.31.04.22-.01.4-.16.55s-.33.23-.55.23h-7.25c-.22,0-.38-.05-.49-.16-.11-.11-.21-.29-.29-.55-.39-1.86-1.14-3.21-2.27-4.05s-2.65-1.26-4.59-1.26c-1.73,0-3.2.41-4.43,1.23-1.23.82-2.17,2.01-2.82,3.56s-.97,3.43-.97,5.63c0,3.28.72,5.82,2.17,7.6,1.45,1.79,3.46,2.69,6.05,2.69,2.03,0,3.62-.42,4.79-1.26,1.17-.84,1.96-2.19,2.39-4.04.09-.43.35-.65.78-.65h7.25c.26,0,.45.05.58.16.13.11.17.25.13.42-.56,3.71-2.23,6.65-5.02,8.8-2.78,2.16-6.42,3.24-10.91,3.24-3.5,0-6.55-.69-9.16-2.07Z"/>
    <path class="cls-1" d="M248.92,135.87c-.13-.13-.19-.3-.19-.52v-45.18c0-.26.07-.44.19-.55.13-.11.3-.16.52-.16h7.51c.22,0,.38.05.49.16.11.11.16.29.16.55v17.28h.32c1.12-1.64,2.52-2.88,4.21-3.72,1.68-.84,3.6-1.26,5.76-1.26,3.8,0,6.7,1.24,8.71,3.72,2.01,2.48,3.01,6.16,3.01,11.04v18.12c0,.22-.06.39-.19.52-.13.13-.3.2-.52.2h-7.51c-.22,0-.39-.07-.52-.2-.13-.13-.19-.3-.19-.52v-18.12c0-2.67-.53-4.64-1.59-5.89-1.06-1.25-2.69-1.88-4.89-1.88s-3.91.64-4.98,1.91c-1.08,1.27-1.62,3.23-1.62,5.86v18.12c0,.22-.05.39-.16.52-.11.13-.27.2-.49.2h-7.51c-.22,0-.39-.07-.52-.2Z"/>
  </g>
  <g>
    <polygon class="cls-1" points="144.52 36.28 144.52 50.56 144.52 54.43 144.52 72.57 162.7 72.57 162.7 54.43 162.7 50.56 162.7 36.28 144.52 36.28"/>
    <polygon class="cls-1" points="108.18 18.14 108.18 36.28 108.18 50.56 108.18 54.43 108.18 72.57 126.35 72.57 126.35 54.43 126.35 50.56 126.35 36.28 144.52 36.28 144.52 18.14 108.18 18.14"/>
  </g>
  <path class="cls-2" d="M79.82,0h18.17v18.14h-18.17V0Z"/>
  <g>
    <polygon class="cls-1" points="79.82 36.28 79.82 50.56 79.82 54.43 79.82 72.57 97.99 72.57 97.99 54.43 97.99 50.56 97.99 36.28 79.82 36.28"/>
    <polygon class="cls-1" points="43.48 18.14 43.48 36.28 43.48 50.56 43.48 54.43 43.48 72.57 61.65 72.57 61.65 54.43 61.65 50.56 61.65 36.28 79.82 36.28 79.82 18.14 43.48 18.14"/>
  </g>
  <g>
    <polygon class="cls-1" points="43.47 36.28 43.47 50.56 43.47 54.43 43.47 72.57 61.65 72.57 61.65 54.43 61.65 50.56 61.65 36.28 43.47 36.28"/>
    <polygon class="cls-1" points="7.13 18.14 7.13 36.28 7.13 50.56 7.13 54.43 7.13 72.57 25.3 72.57 25.3 54.43 25.3 50.56 25.3 36.28 43.47 36.28 43.47 18.14 7.13 18.14"/>
  </g>
</svg>