<?xml version="1.0" encoding="UTF-8"?>
<svg id="Layer_1" data-name="Layer 1" xmlns="http://www.w3.org/2000/svg" viewBox="0 0 90.85 72.57">
  <defs>
    <style>
      .cls-1 {
        fill: #ff9ecf;
      }
    </style>
  </defs>
  <path class="cls-1" d="M72.68,0h18.17v18.14h-18.17V0Z"/>
  <g>
    <polygon class="cls-1" points="72.68 36.28 72.68 50.56 72.68 54.43 72.68 72.57 90.85 72.57 90.85 54.43 90.85 50.56 90.85 36.28 72.68 36.28"/>
    <polygon class="cls-1" points="36.34 18.14 36.34 36.28 36.34 50.56 36.34 54.43 36.34 72.57 54.51 72.57 54.51 54.43 54.51 50.56 54.51 36.28 72.68 36.28 72.68 18.14 36.34 18.14"/>
  </g>
  <g>
    <polygon class="cls-1" points="36.34 36.28 36.34 50.56 36.34 54.43 36.34 72.57 54.51 72.57 54.51 54.43 54.51 50.56 54.51 36.28 36.34 36.28"/>
    <polygon class="cls-1" points="0 18.14 0 36.28 0 50.56 0 54.43 0 72.57 18.17 72.57 18.17 54.43 18.17 50.56 18.17 36.28 36.34 36.28 36.34 18.14 0 18.14"/>
  </g>
</svg>