<?xml version="1.0" encoding="UTF-8"?>
<svg id="Layer_1" data-name="Layer 1" xmlns="http://www.w3.org/2000/svg" viewBox="0 0 337.53 116.57">
  <defs>
    <style>
      .cls-1 {
        fill: #e1ffde;
      }
    </style>
  </defs>
  <g>
    <path class="cls-1" d="M218.88,36.29h18.17v18.14h-18.17v-18.14Z"/>
    <g>
      <path class="cls-1" d="M36.34,0v18.14h-18.17v18.15h18.17v18.14h18.17V0h-18.17Z"/>
      <path class="cls-1" d="M0,36.29h18.17v18.14H0v-18.14Z"/>
      <path class="cls-1" d="M0,0h18.17v18.14H0V0Z"/>
    </g>
    <g>
      <polygon class="cls-1" points="337.53 0 337.53 18.15 321.18 18.15 321.18 54.44 303.01 54.44 303.01 0 337.53 0"/>
      <path class="cls-1" d="M200.71,54.44v-18.14h18.17v-18.15h-18.17V0h-18.17v54.43h18.17Z"/>
      <path class="cls-1" d="M218.88,0h18.17v18.14h-18.17V0Z"/>
      <path class="cls-1" d="M144.37,35.94c-1.4-2.01-2.11-4.96-2.11-8.76s.71-6.73,2.11-8.72c1.42-2.01,3.38-3.03,5.83-3.03,3.38,0,5.7,1.77,6.9,5.26h19.38c-1.35-6.44-4.33-11.54-8.83-15.15C163.07,1.87,157.33,0,150.59,0c-5.23,0-9.94,1.12-13.99,3.31-2.01,1.08-3.83,2.43-5.44,4.04-1.62,1.61-2.98,3.41-4.07,5.42-2.26,4.08-3.41,8.93-3.41,14.4s1.15,10.41,3.41,14.5c1.09,2,2.45,3.81,4.07,5.42,1.62,1.61,3.44,2.95,5.45,4.04,4.06,2.2,8.76,3.31,13.99,3.31,6.73,0,12.48-1.88,17.06-5.58,4.51-3.64,7.48-8.72,8.83-15.1h-19.38c-1.14,3.49-3.47,5.26-6.9,5.26-2.44,0-4.4-1.04-5.82-3.08Z"/>
      <path class="cls-1" d="M117.47,0h-18.22v8.86l-.51-.87c-1.44-2.43-3.5-4.39-6.12-5.83C90,.74,86.82,0,83.18,0c-4.2,0-8.07,1.11-11.49,3.3-3.42,2.19-6.16,5.37-8.14,9.45-1.98,4.08-2.99,8.94-2.99,14.42s1.01,10.35,2.99,14.46c1.98,4.12,4.72,7.31,8.14,9.5,3.42,2.19,7.28,3.3,11.49,3.3,3.58,0,6.74-.73,9.4-2.17,2.66-1.44,4.73-3.39,6.17-5.83l.51-.87v8.86h18.35V0h-.13ZM96.35,35.59c-1.93,2.03-4.33,3.05-7.14,3.05s-5.3-1.04-7.19-3.1c-1.9-2.06-2.85-4.86-2.85-8.36s.96-6.38,2.85-8.37c1.89-1.99,4.31-3,7.19-3s5.21,1.03,7.14,3.05c1.93,2.02,2.9,4.82,2.9,8.32,0,3.56-.98,6.39-2.9,8.41Z"/>
      <path class="cls-1" d="M293.54,12.44c-1.1-1.96-2.45-3.73-4.06-5.29-1.61-1.57-3.41-2.88-5.4-3.93-4.03-2.13-8.72-3.22-13.95-3.22s-10.03,1.12-14.09,3.31c-2.01,1.08-3.82,2.42-5.44,4.02-1.62,1.6-2.98,3.4-4.08,5.39-2.27,4.05-3.41,8.92-3.41,14.45s1.16,10.41,3.46,14.49c1.11,2,2.47,3.81,4.1,5.41,1.63,1.61,3.45,2.95,5.46,4.04,4.06,2.2,8.76,3.31,13.99,3.31,4.35,0,8.37-.83,11.95-2.46,3.58-1.63,6.6-3.91,8.95-6.76,1.14-1.37,2.1-2.86,2.9-4.45.79-1.59,1.4-3.26,1.81-4.99h-19.5c-1.39,2.79-3.71,4.21-6.87,4.21-2.3,0-4.22-.75-5.7-2.23-1.48-1.48-2.33-3.74-2.52-6.73l-.02-.29h35.58c.17-1.37.25-2.75.25-4.13,0-5.41-1.15-10.17-3.42-14.16ZM278.35,22.19h-17.17l.06-.33c.46-2.47,1.45-4.38,2.97-5.66,1.51-1.28,3.47-1.93,5.83-1.93s4.35.68,5.93,2.03,2.39,3.24,2.39,5.61v.28Z"/>
    </g>
  </g>
  <g>
    <path class="cls-1" d="M110.81,115.85c-.09-.17-.09-.37,0-.58l22.2-43.95c.17-.34.45-.52.84-.52h6.08c.26,0,.43.09.52.26.09.17.09.37,0,.58l-22.2,43.95c-.17.35-.45.52-.84.52h-6.08c-.26,0-.43-.09-.52-.26Z"/>
    <path class="cls-1" d="M144.3,114.5c-2.61-1.38-4.62-3.35-6.02-5.92-1.4-2.57-2.1-5.56-2.1-8.96s.72-6.4,2.17-8.96c1.45-2.57,3.47-4.56,6.08-5.99s5.62-2.14,9.03-2.14c2.89,0,5.45.49,7.67,1.46s4.02,2.35,5.4,4.14c1.38,1.79,2.22,3.89,2.52,6.31.04.22,0,.4-.16.55-.15.15-.34.23-.55.23h-7.25c-.21,0-.38-.05-.48-.16-.11-.11-.21-.29-.29-.55-.39-1.85-1.14-3.2-2.27-4.05-1.12-.84-2.65-1.26-4.6-1.26-1.73,0-3.2.41-4.43,1.23-1.23.82-2.17,2.01-2.81,3.56-.65,1.55-.97,3.43-.97,5.63,0,3.28.72,5.81,2.17,7.6,1.45,1.79,3.46,2.69,6.05,2.69,2.03,0,3.62-.42,4.79-1.26,1.17-.84,1.96-2.19,2.39-4.04.09-.43.35-.65.78-.65h7.25c.26,0,.45.05.58.16.13.11.17.25.13.42-.56,3.71-2.23,6.65-5.02,8.8-2.78,2.16-6.42,3.24-10.91,3.24-3.49,0-6.55-.69-9.16-2.07Z"/>
    <path class="cls-1" d="M178.15,113.56c-1.71-1.7-2.56-4.15-2.56-7.35v-35.99c0-.26.07-.44.2-.55.13-.11.3-.16.52-.16h7.51c.21,0,.38.05.49.16.11.11.16.29.16.55v39.42h5.7c.26,0,.44.05.55.16.11.11.16.29.16.55v5.05c0,.22-.05.39-.16.52s-.29.19-.55.19h-4.66c-3.2,0-5.64-.85-7.35-2.56Z"/>
    <path class="cls-1" d="M199.16,112.84c-2.5-2.48-3.75-6.25-3.75-11.29v-17.86c0-.26.06-.44.19-.55.13-.11.3-.16.52-.16h7.51c.21,0,.38.05.49.16.11.11.16.29.16.55v19.35c0,2.2.55,3.89,1.65,5.08,1.1,1.19,2.69,1.78,4.76,1.78s3.71-.57,4.79-1.72c1.08-1.14,1.62-2.86,1.62-5.15v-19.35c0-.26.06-.44.19-.55.13-.11.3-.16.52-.16h7.51c.22,0,.39.05.52.16.13.11.2.29.2.55v17.86c0,3.41-.56,6.21-1.68,8.41-1.12,2.2-2.8,3.85-5.05,4.95-2.24,1.1-5.11,1.65-8.61,1.65-5.18,0-9.02-1.24-11.52-3.72Z"/>
    <path class="cls-1" d="M246.73,115.14c-1.94-.95-3.43-2.22-4.47-3.82h-.26v4.08c0,.22-.05.39-.16.52-.11.13-.29.19-.55.19h-7.05c-.22,0-.39-.06-.52-.19s-.2-.3-.2-.52v-45.18c0-.26.07-.44.2-.55.13-.11.3-.16.52-.16h7.51c.21,0,.38.05.49.16.11.11.16.29.16.55v17.6h.32c1.08-1.64,2.54-2.93,4.4-3.88,1.86-.95,3.82-1.42,5.89-1.42,2.93,0,5.48.69,7.64,2.07,2.16,1.38,3.81,3.34,4.95,5.89,1.14,2.55,1.71,5.59,1.71,9.13s-.58,6.4-1.75,8.96c-1.17,2.57-2.83,4.54-4.98,5.92-2.16,1.38-4.68,2.07-7.57,2.07-2.24,0-4.34-.47-6.28-1.42ZM254.39,108.57c1.23-.8,2.18-1.96,2.85-3.5.67-1.53,1-3.35,1-5.47s-.33-4.01-1-5.57c-.67-1.55-1.62-2.73-2.85-3.53-1.23-.8-2.69-1.2-4.37-1.2s-3.05.4-4.24,1.2c-1.19.8-2.1,1.97-2.75,3.53-.65,1.55-.97,3.41-.97,5.57s.31,3.94.94,5.47c.62,1.53,1.53,2.7,2.72,3.5,1.19.8,2.62,1.2,4.3,1.2s3.14-.4,4.37-1.2Z"/>
    <path class="cls-1" d="M279.7,114.5c-2.61-1.38-4.62-3.35-6.02-5.92-1.4-2.57-2.1-5.56-2.1-8.96s.7-6.47,2.1-9.06,3.41-4.57,6.02-5.95c2.61-1.38,5.66-2.07,9.16-2.07s6.19.68,8.61,2.04c2.41,1.36,4.27,3.31,5.56,5.86,1.29,2.55,1.94,5.57,1.94,9.06v1.81c0,.17-.07.33-.2.49-.13.15-.3.23-.52.23h-27.25v-5.31h20.26l-.97.91c0-2.72-.65-4.82-1.94-6.31-1.29-1.49-3.11-2.23-5.44-2.23-2.68,0-4.72.8-6.15,2.4-1.42,1.6-2.13,3.93-2.13,6.99v2.14c0,3.02.71,5.35,2.13,6.99,1.42,1.64,3.47,2.46,6.15,2.46,1.94,0,3.51-.34,4.69-1.04,1.19-.69,1.99-1.66,2.43-2.91.13-.39.39-.58.78-.58h7.25c.26,0,.45.04.58.13.13.09.17.22.13.39-.61,3.24-2.29,5.8-5.05,7.7-2.76,1.9-6.38,2.85-10.87,2.85-3.49,0-6.55-.69-9.16-2.07Z"/>
    <path class="cls-1" d="M313.84,113.88c-2.5-1.79-3.93-4.39-4.27-7.8-.04-.22,0-.39.13-.52.13-.13.3-.19.52-.19h6.86c.35,0,.58.19.71.58.3,1.6.96,2.74,1.97,3.43,1.01.69,2.45,1.04,4.3,1.04,1.51,0,2.72-.32,3.62-.97.91-.65,1.36-1.49,1.36-2.52,0-.73-.15-1.33-.45-1.78-.3-.45-.77-.82-1.39-1.1-.62-.28-1.48-.51-2.56-.68l-4.6-.84c-3.32-.6-5.77-1.69-7.35-3.27-1.57-1.57-2.36-3.76-2.36-6.57,0-2.07.52-3.86,1.55-5.37,1.04-1.51,2.54-2.69,4.5-3.53s4.28-1.26,6.96-1.26c3.79,0,6.86.83,9.19,2.49,2.33,1.66,3.69,4.07,4.08,7.22.04.26,0,.45-.13.58-.13.13-.3.19-.52.19h-6.86c-.39,0-.65-.19-.78-.58v-.06c-.26-1.29-.79-2.23-1.59-2.82s-1.93-.87-3.4-.87-2.65.3-3.43.91c-.78.6-1.16,1.47-1.16,2.59,0,.99.31,1.75.94,2.27s1.78.93,3.46,1.23l4.79.91c2.37.39,4.25.98,5.63,1.78,1.38.8,2.38,1.84,3.01,3.14s.94,2.91.94,4.85c0,3.32-1.17,5.86-3.5,7.6-2.33,1.75-5.65,2.62-9.97,2.62s-7.72-.9-10.23-2.69Z"/>
  </g>
</svg>