<?xml version="1.0" encoding="UTF-8"?>
<svg id="Layer_1" data-name="Layer 1" xmlns="http://www.w3.org/2000/svg" viewBox="0 0 161.94 161.94">
  <defs>
    <style>
      .cls-1 {
        fill: #ff9ecf;
      }
    </style>
  </defs>
  <g>
    <path class="cls-1" d="M39.15,0v19.54h-19.57v19.55h19.57v19.54h19.57V0h-19.57Z"/>
    <path class="cls-1" d="M0,39.09h19.57v19.54H0v-19.54Z"/>
    <path class="cls-1" d="M0,0h19.57v19.54H0V0Z"/>
  </g>
  <g>
    <path class="cls-1" d="M161.94,122.85h-19.57v-19.54h19.57v19.54Z"/>
    <path class="cls-1" d="M161.94,161.94h-19.57v-19.54h19.57v19.54Z"/>
    <path class="cls-1" d="M142.36,122.85h-19.57v-19.54h19.57v19.54Z"/>
    <path class="cls-1" d="M122.79,142.39h-19.57v-19.54h19.57v19.54Z"/>
    <path class="cls-1" d="M142.36,161.94h-19.57v-19.54h19.57v19.54Z"/>
  </g>
  <path class="cls-1" d="M27.99,161.01c-.31-.61-.31-1.31,0-2.08L107.34,1.85c.61-1.23,1.62-1.85,3.01-1.85h21.75c.92,0,1.54.31,1.85.92.31.62.31,1.31,0,2.08L54.59,160.09c-.62,1.24-1.62,1.85-3.01,1.85h-21.75c-.92,0-1.54-.31-1.85-.92Z"/>
</svg>