<?xml version="1.0" encoding="UTF-8"?>
<svg id="Layer_1" data-name="Layer 1" xmlns="http://www.w3.org/2000/svg" viewBox="0 0 136.17 111.95">
  <defs>
    <style>
      .cls-1 {
        fill: #91938c;
      }

      .cls-2 {
        fill: #3c433c;
      }
    </style>
  </defs>
  <g>
    <path class="cls-2" d="M135.08,45.94l-12.71-27.56s0,0,0,0l-.18-.41c-.71-1.5-1.87-2.74-3.33-3.58L95.84,1.1c-2.56-1.47-5.73-1.46-8.28.01l-23.01,13.29c-1.48.86-2.63,2.11-3.34,3.61-.02.04-.04.09-.06.13l-12.82,27.8c-2.5,5.43-.56,11.89,4.52,15.04l31.88,19.79s.04.02.06.03c.01,0,.02.02.03.02.03.02.07.03.11.05.27.15.54.28.83.39,1.9.88,3.91,1.35,5.94,1.35s4.04-.47,5.94-1.35c.28-.11.56-.24.84-.4.03-.02.07-.03.1-.05.01,0,.02-.02.03-.02.02-.01.04-.02.06-.03l31.9-19.8c5.08-3.15,7.02-9.62,4.52-15.05Z"/>
    <path class="cls-1" d="M52.28,47.76l9.79-21.23s.04.05.07.08c.09.11.18.22.27.33.08.09.16.19.24.27.1.11.22.21.33.32.08.08.16.16.25.24.13.11.26.21.4.32.08.06.16.13.24.19.22.16.45.31.7.45l23.01,13.29c.32.18.65.34.99.48.11.05.23.08.34.12.14.05.27.11.41.15l.21.17v32.77c0,.87-.59,1.29-.84,1.43-.21.11-.7.32-1.27.14-.15-.08-.31-.14-.46-.22l-31.81-19.75c-3.22-2-4.45-6.1-2.86-9.54Z"/>
    <path class="cls-1" d="M128.27,57.3l-31.83,19.75c-.15.08-.31.14-.46.22-.58.18-1.07-.02-1.27-.13-.25-.14-.84-.56-.84-1.43h0v-32.78l.19-.15c.14-.04.28-.1.42-.15.11-.04.21-.07.32-.11.35-.14.71-.3,1.05-.5l23.01-13.28c.24-.14.47-.29.68-.44.07-.05.13-.11.2-.16.14-.11.29-.22.42-.34.08-.07.15-.14.22-.21.12-.11.23-.22.34-.34.08-.08.15-.17.22-.25.1-.11.19-.22.28-.33.03-.04.07-.08.11-.13l9.79,21.23c1.59,3.44.36,7.54-2.86,9.54Z"/>
    <path class="cls-1" d="M118.56,20.7c-.05-.21-.11-.42-.19-.62l-.14-.3c-.31-.66-.84-1.22-1.55-1.62l-23.02-13.3c-.6-.35-1.28-.52-1.96-.52s-1.37.18-1.97.53l-23.01,13.29c-.7.41-1.25,1-1.58,1.7h0c-.06.12-.09.25-.13.37-.03.1-.08.19-.1.29-.03.13-.05.26-.07.39-.01.09-.04.18-.05.28-.01.14,0,.29,0,.43,0,.09,0,.18,0,.26.01.15.04.29.07.44.02.09.02.17.04.26.04.15.1.29.15.43.03.08.05.17.09.25.07.14.16.27.24.41.05.08.08.16.14.23.1.14.23.26.35.38.06.06.11.13.18.19.2.18.43.34.68.49l23.01,13.28c.33.19.69.33,1.07.41.59.14,1.19.14,1.76,0,.41-.09.78-.23,1.12-.43l23-13.28c1.45-.84,2.03-2.27,1.96-3.61-.01-.22-.04-.44-.08-.65Z"/>
    <path class="cls-2" d="M100.01,28.19c-1.8,0-3.53-.47-5.2-1.44l-8.78-5.07-2.81,1.62c-.11.06-.24.1-.37.1-.14,0-.26-.03-.37-.1l-2.64-1.53c-.25-.14-.25-.29,0-.43l2.81-1.62-4.74-2.74c-.14-.08-.19-.16-.17-.23.02-.08.08-.14.17-.2l3.93-2.27c.14-.08.26-.12.37-.12.11,0,.24.04.37.12l4.74,2.74,4.03-2.33c.14-.08.26-.12.37-.12.11,0,.24.04.37.12l2.64,1.53c.25.14.25.29,0,.43l-4.03,2.33,10.57,6.1,4.03-2.33c.14-.08.26-.12.37-.12.11,0,.24.04.37.12l2.64,1.53c.25.14.25.29,0,.43l-3.49,2.02c-1.67.97-3.41,1.45-5.2,1.46Z"/>
  </g>
  <g>
    <path class="cls-2" d="M87.82,75.26l-12.71-27.56s0,0,0,0l-.18-.41c-.71-1.5-1.87-2.74-3.33-3.58l-23.01-13.3c-2.56-1.47-5.73-1.46-8.28.01l-23.01,13.29c-1.48.86-2.63,2.11-3.34,3.61-.02.04-.04.09-.06.13L1.09,75.26c-2.5,5.43-.56,11.89,4.52,15.04l31.88,19.79s.04.02.06.03c.01,0,.02.02.03.02.03.02.07.03.11.05.27.15.54.28.83.39,1.9.88,3.91,1.35,5.94,1.35s4.04-.47,5.94-1.35c.28-.11.56-.24.84-.4.03-.02.07-.03.1-.05.01,0,.02-.02.03-.02.02-.01.04-.02.06-.03l31.9-19.8c5.08-3.15,7.02-9.62,4.52-15.05Z"/>
    <g>
      <path class="cls-1" d="M19.48,47.47l23.01-13.29c.61-.35,1.29-.53,1.97-.53s1.36.17,1.96.52l23.02,13.3c.71.4,1.23.97,1.55,1.62l.14.3c.08.2.14.4.19.62.04.21.07.43.08.65.06,1.33-.51,2.77-1.96,3.61l-23,13.28c-.35.2-.71.34-1.12.43-.57.14-1.16.14-1.76,0-.38-.09-.74-.23-1.07-.41l-23.01-13.28c-.25-.15-.48-.31-.68-.49-.07-.06-.11-.13-.18-.19-.12-.12-.25-.25-.35-.38-.06-.07-.09-.15-.14-.23-.08-.13-.18-.27-.24-.41-.04-.08-.06-.16-.09-.25-.06-.14-.12-.29-.15-.43-.02-.09-.03-.17-.04-.26-.03-.15-.06-.29-.07-.44,0-.09,0-.18,0-.26,0-.14,0-.29,0-.43,0-.09.03-.18.05-.28.02-.13.04-.27.07-.39.03-.1.07-.2.1-.29.04-.12.08-.25.13-.37h0c.33-.71.88-1.3,1.58-1.7Z"/>
      <path class="cls-1" d="M5.03,77.08l9.79-21.23s.04.05.07.08c.09.11.18.22.27.33.08.09.16.19.24.27.1.11.22.21.33.32.08.08.16.16.25.24.13.11.26.21.4.32.08.06.16.13.24.19.22.16.45.31.7.45l23.01,13.29c.32.18.65.34.99.48.11.05.23.08.34.12.14.05.27.11.41.15l.21.17v32.77c0,.87-.59,1.29-.84,1.43-.21.11-.7.32-1.27.14-.15-.08-.31-.14-.46-.22l-31.81-19.75c-3.22-2-4.45-6.1-2.86-9.54Z"/>
      <path class="cls-1" d="M81.02,86.62l-31.83,19.75c-.15.08-.31.14-.46.22-.58.18-1.07-.02-1.27-.13-.25-.14-.84-.56-.84-1.43h0v-32.78l.19-.15c.14-.04.28-.1.42-.15.11-.04.21-.07.32-.11.35-.14.71-.3,1.05-.5l23.01-13.28c.24-.14.47-.29.68-.44.07-.05.13-.11.2-.16.14-.11.29-.22.42-.34.08-.07.15-.14.22-.21.12-.11.23-.22.34-.34.08-.08.15-.17.22-.25.1-.11.19-.22.28-.33.03-.04.07-.08.11-.13l9.79,21.23c1.59,3.44.36,7.54-2.86,9.54Z"/>
    </g>
    <path class="cls-2" d="M34.28,47.83c-.15,0-.27-.04-.36-.09l-4.23-2.44c-.11-.06-.17-.14-.17-.22s.05-.14.14-.2l4.4-2.54c.11-.07.24-.1.37-.1s.26.03.37.1l4.23,2.44c.09.05.14.12.15.21s-.04.16-.15.23l-4.4,2.54c-.09.05-.21.07-.35.07ZM55.06,59.28c-.11.07-.24.1-.37.1-.13,0-.26-.03-.37-.1l-16.59-9.58c-.14-.08-.2-.15-.19-.22.01-.07.07-.14.19-.21l3.93-2.27c.11-.06.23-.1.34-.1.11,0,.24.04.37.12l16.59,9.58c.11.07.17.13.19.21.01.07-.04.14-.15.21l-3.93,2.27Z"/>
  </g>
</svg>