<?xml version="1.0" encoding="UTF-8"?>
<svg id="Layer_1" data-name="Layer 1" xmlns="http://www.w3.org/2000/svg" viewBox="0 0 549.02 139.49">
  <defs>
    <style>
      .cls-1 {
        fill: #f8fcf8;
      }

      .cls-2 {
        fill: #32fa96;
      }
    </style>
  </defs>
  <g>
    <path class="cls-2" d="M20.55,18.76L51.79.72c.82-.48,1.75-.72,2.68-.72s1.84.24,2.66.71l31.25,18.05c.96.55,1.67,1.31,2.1,2.2l.19.41c.11.27.19.55.25.84.06.29.1.59.11.89.09,1.81-.7,3.76-2.66,4.9l-31.22,18.03c-.47.27-.96.46-1.53.58-.77.18-1.58.18-2.39,0-.51-.12-1-.31-1.45-.56l-31.23-18.03c-.34-.2-.65-.42-.92-.66-.09-.08-.16-.17-.24-.26-.17-.17-.34-.34-.48-.52-.07-.1-.12-.21-.19-.31-.12-.18-.24-.36-.33-.55-.05-.11-.08-.22-.12-.33-.08-.19-.16-.39-.21-.59-.03-.12-.04-.23-.06-.35-.04-.2-.08-.4-.1-.6,0-.12,0-.24,0-.36,0-.2,0-.39,0-.59.01-.13.04-.25.06-.38.03-.18.05-.36.1-.53.04-.14.09-.27.14-.4.06-.17.11-.34.18-.5h0c.45-.96,1.19-1.76,2.15-2.31Z"/>
    <path class="cls-2" d="M.94,58.95l13.28-28.82s.06.07.09.11c.12.15.24.3.37.44.11.12.21.25.33.37.14.15.29.29.44.43.11.11.22.22.34.32.17.15.36.29.54.43.11.08.21.17.32.25.3.22.62.42.95.61l31.24,18.04c.43.25.89.46,1.35.65.15.06.31.11.46.17.19.07.37.15.56.2l.28.23v44.49c0,1.18-.8,1.75-1.14,1.94-.28.16-.95.43-1.73.18-.21-.1-.42-.19-.63-.3L4.82,71.9c-4.37-2.71-6.04-8.28-3.89-12.95Z"/>
    <path class="cls-2" d="M104.1,71.9l-43.21,26.82c-.2.11-.42.2-.62.3-.78.25-1.45-.03-1.73-.18-.34-.19-1.14-.76-1.14-1.95h0v-44.5l.25-.21c.19-.06.38-.14.57-.2.14-.05.29-.1.43-.15.48-.19.96-.41,1.43-.68l31.24-18.03c.32-.19.63-.39.93-.6.09-.07.18-.14.28-.21.2-.15.39-.3.58-.46.11-.09.2-.19.31-.28.16-.15.32-.3.46-.46.11-.11.2-.23.31-.34.13-.15.26-.3.38-.45.05-.06.1-.11.15-.17l13.29,28.82c2.16,4.67.48,10.24-3.89,12.95Z"/>
  </g>
  <g>
    <g>
      <g>
        <polygon class="cls-1" points="198.63 39.94 198.63 54.21 198.63 58.08 198.63 76.23 216.8 76.23 216.8 58.08 216.8 54.21 216.8 39.94 198.63 39.94"/>
        <polygon class="cls-1" points="162.29 21.8 162.29 76.23 180.46 76.23 180.46 39.94 198.63 39.94 198.63 21.8 162.29 21.8"/>
      </g>
      <polygon class="cls-1" points="349.03 21.8 349.03 39.94 349.03 43.54 349.03 58.08 330.86 58.08 330.86 43.54 330.86 39.94 330.86 21.8 312.68 21.8 312.68 39.94 312.68 43.54 312.68 58.08 312.68 76.23 330.86 76.23 349.03 76.23 349.03 76.23 367.2 76.23 367.2 60.12 367.2 58.09 367.2 43.54 367.2 39.94 367.2 21.8 349.03 21.8"/>
      <path class="cls-1" d="M152.1,21.8v54.15h-18.92V21.8h18.92Z"/>
      <path class="cls-1" d="M227,34.15c2.32-4.18,5.55-7.4,9.7-9.65,4.15-2.25,8.9-3.38,14.24-3.38,6.88,0,12.68,1.88,17.38,5.65,4.7,3.76,7.72,9.03,9.07,15.78h-20.08c-1.16-3.54-3.41-5.31-6.76-5.31-2.38,0-4.26.98-5.65,2.94-1.38,1.96-2.08,4.84-2.08,8.64s.69,6.69,2.08,8.69c1.38,2,3.27,2.99,5.65,2.99,3.41,0,5.66-1.77,6.76-5.31h20.08c-1.35,6.69-4.38,11.94-9.07,15.73-4.7,3.8-10.49,5.7-17.38,5.7-5.34,0-10.09-1.13-14.24-3.38-4.15-2.25-7.38-5.47-9.7-9.65-2.32-4.18-3.48-9.11-3.48-14.77s1.16-10.49,3.48-14.67Z"/>
      <path class="cls-1" d="M302.87,4.52v71.43h-18.92V4.52h18.92Z"/>
      <path class="cls-1" d="M387.38,74.16c-3.83-1.64-6.85-3.89-9.07-6.76-2.22-2.86-3.46-6.1-3.72-9.7h18.34c.26,1.74,1.06,3.09,2.41,4.05s3.02,1.45,5.02,1.45c1.54,0,2.77-.32,3.67-.97.9-.64,1.35-1.48,1.35-2.51,0-1.35-.74-2.35-2.22-2.99-1.48-.64-3.93-1.35-7.34-2.12-3.86-.77-7.08-1.64-9.65-2.61-2.57-.97-4.81-2.54-6.71-4.73-1.9-2.19-2.85-5.15-2.85-8.88,0-3.22.87-6.13,2.61-8.74,1.74-2.61,4.3-4.68,7.67-6.23,3.38-1.54,7.45-2.32,12.21-2.32,7.08,0,12.65,1.74,16.7,5.21,4.05,3.48,6.4,8.05,7.05,13.71h-17.09c-.32-1.74-1.08-3.07-2.27-4.01-1.19-.93-2.78-1.4-4.78-1.4-1.54,0-2.72.29-3.52.87s-1.21,1.38-1.21,2.41c0,1.29.74,2.27,2.22,2.94s3.86,1.37,7.14,2.08c3.92.84,7.19,1.77,9.8,2.8,2.61,1.03,4.89,2.69,6.85,4.97,1.96,2.29,2.94,5.39,2.94,9.32,0,3.15-.92,5.98-2.75,8.49s-4.44,4.49-7.82,5.94c-3.38,1.45-7.35,2.17-11.92,2.17-4.89,0-9.25-.82-13.08-2.46Z"/>
      <path class="cls-1" d="M430.92,34.15c2.03-4.18,4.79-7.4,8.3-9.65,3.51-2.25,7.42-3.38,11.73-3.38,3.73,0,6.95.74,9.65,2.22,2.7,1.48,4.79,3.48,6.27,5.98v-7.53h18.92v54.15h-18.92v-7.53c-1.48,2.51-3.59,4.51-6.32,5.98-2.74,1.48-5.94,2.22-9.6,2.22-4.31,0-8.22-1.13-11.73-3.38-3.51-2.25-6.27-5.49-8.3-9.7-2.03-4.21-3.04-9.12-3.04-14.72s1.01-10.49,3.04-14.67ZM452.3,2.01c1.48,0,2.81.23,4.01.68,1.19.45,2.56,1.09,4.1,1.93,1.09.58,2.03,1.03,2.8,1.35.77.32,1.54.48,2.32.48,2.38,0,3.8-1.48,4.25-4.44h9.56c-.9,5.47-2.59,9.44-5.07,11.92-2.48,2.48-5.62,3.72-9.41,3.72-1.42,0-2.7-.21-3.86-.63-1.16-.42-2.58-1.05-4.25-1.88-1.09-.58-2.03-1.03-2.8-1.35-.77-.32-1.54-.48-2.32-.48-2.32,0-3.76,1.48-4.34,4.44h-9.46c1.8-10.49,6.63-15.73,14.48-15.73ZM464.03,40.62c-1.9-1.99-4.23-2.99-7-2.99s-5.18.98-7.05,2.94c-1.87,1.96-2.8,4.71-2.8,8.25s.93,6.23,2.8,8.25c1.87,2.03,4.21,3.04,7.05,3.04s5.1-1,7-2.99c1.9-1.99,2.85-4.76,2.85-8.3s-.95-6.21-2.85-8.2Z"/>
      <path class="cls-1" d="M506.02,73.25c-4.28-2.25-7.64-5.47-10.09-9.65-2.45-4.18-3.67-9.11-3.67-14.77s1.24-10.49,3.72-14.67c2.48-4.18,5.86-7.4,10.14-9.65,4.28-2.25,9.12-3.38,14.53-3.38s10.25,1.13,14.53,3.38c4.28,2.25,7.66,5.47,10.14,9.65,2.48,4.18,3.72,9.07,3.72,14.67s-1.24,10.51-3.72,14.72c-2.48,4.22-5.87,7.45-10.18,9.7-4.31,2.25-9.17,3.38-14.58,3.38s-10.25-1.13-14.53-3.38ZM527.16,57.27c1.77-1.96,2.65-4.78,2.65-8.45s-.88-6.47-2.65-8.4c-1.77-1.93-3.94-2.9-6.52-2.9s-4.73.97-6.47,2.9c-1.74,1.93-2.61,4.73-2.61,8.4s.83,6.56,2.51,8.49c1.67,1.93,3.83,2.9,6.47,2.9s4.84-.98,6.61-2.94Z"/>
    </g>
    <g>
      <path class="cls-1" d="M381.59,138.78c-.09-.17-.09-.37,0-.58l22.2-43.95c.17-.34.45-.52.84-.52h6.08c.26,0,.43.09.52.26.09.17.09.37,0,.58l-22.2,43.95c-.17.35-.45.52-.84.52h-6.08c-.26,0-.43-.09-.52-.26Z"/>
      <path class="cls-1" d="M422.75,136.48c-1.73-1.7-2.59-4.15-2.59-7.35v-16.76h-5.37c-.22,0-.39-.06-.52-.19-.13-.13-.19-.3-.19-.52v-5.05c0-.47.24-.71.71-.71h5.37v-9.06c0-.26.08-.44.23-.55.15-.11.31-.16.49-.16h7.51c.26,0,.44.05.55.16.11.11.16.29.16.55v9.06h7.7c.26,0,.44.05.55.16.11.11.16.29.16.55v5.05c0,.48-.24.71-.71.71h-7.7v20.19h7.7c.26,0,.44.05.55.16.11.11.16.29.16.55v5.05c0,.48-.24.71-.71.71h-6.67c-3.19,0-5.65-.85-7.38-2.56Z"/>
      <path class="cls-1" d="M449.25,137.42c-2.61-1.38-4.62-3.35-6.02-5.92-1.4-2.57-2.1-5.56-2.1-8.96s.7-6.47,2.1-9.06c1.4-2.59,3.41-4.57,6.02-5.95,2.61-1.38,5.66-2.07,9.16-2.07s6.19.68,8.61,2.04c2.42,1.36,4.27,3.31,5.57,5.86,1.29,2.55,1.94,5.57,1.94,9.06v1.81c0,.17-.07.33-.19.49-.13.15-.3.23-.52.23h-27.25v-5.31h20.26l-.97.91c0-2.72-.65-4.82-1.94-6.31-1.29-1.49-3.11-2.23-5.44-2.23-2.68,0-4.72.8-6.15,2.4-1.42,1.6-2.14,3.93-2.14,6.99v2.14c0,3.02.71,5.35,2.14,6.99,1.42,1.64,3.47,2.46,6.15,2.46,1.94,0,3.5-.34,4.69-1.04,1.19-.69,2-1.66,2.43-2.91.13-.39.39-.58.78-.58h7.25c.26,0,.45.04.58.13.13.09.17.22.13.39-.61,3.24-2.29,5.8-5.05,7.7-2.76,1.9-6.39,2.85-10.87,2.85-3.5,0-6.55-.69-9.16-2.07Z"/>
      <path class="cls-1" d="M486.85,137.42c-2.61-1.38-4.62-3.35-6.02-5.92-1.4-2.57-2.1-5.56-2.1-8.96s.72-6.4,2.17-8.96c1.45-2.57,3.47-4.56,6.08-5.99,2.61-1.42,5.62-2.14,9.03-2.14,2.89,0,5.45.49,7.67,1.46,2.22.97,4.02,2.35,5.4,4.14,1.38,1.79,2.22,3.89,2.52,6.31.04.22-.01.4-.16.55-.15.15-.33.23-.55.23h-7.25c-.22,0-.38-.05-.49-.16-.11-.11-.21-.29-.29-.55-.39-1.85-1.14-3.2-2.27-4.05s-2.65-1.26-4.59-1.26c-1.73,0-3.2.41-4.43,1.23-1.23.82-2.17,2.01-2.82,3.56s-.97,3.43-.97,5.63c0,3.28.72,5.81,2.17,7.6,1.45,1.79,3.46,2.69,6.05,2.69,2.03,0,3.62-.42,4.79-1.26s1.96-2.19,2.39-4.04c.09-.43.35-.65.78-.65h7.25c.26,0,.45.05.58.16.13.11.17.25.13.42-.56,3.71-2.23,6.65-5.02,8.8-2.78,2.16-6.42,3.24-10.91,3.24-3.5,0-6.55-.69-9.16-2.07Z"/>
      <path class="cls-1" d="M518.34,138.84c-.13-.13-.19-.3-.19-.52v-45.18c0-.26.07-.44.19-.55.13-.11.3-.16.52-.16h7.51c.22,0,.38.05.49.16.11.11.16.29.16.55v17.28h.32c1.12-1.64,2.52-2.88,4.21-3.72,1.68-.84,3.6-1.26,5.76-1.26,3.8,0,6.7,1.24,8.71,3.72,2.01,2.48,3.01,6.16,3.01,11.04v18.12c0,.22-.06.39-.19.52-.13.13-.3.19-.52.19h-7.51c-.22,0-.39-.06-.52-.19-.13-.13-.19-.3-.19-.52v-18.12c0-2.67-.53-4.64-1.59-5.89-1.06-1.25-2.69-1.88-4.89-1.88s-3.91.64-4.98,1.91c-1.08,1.27-1.62,3.23-1.62,5.86v18.12c0,.22-.05.39-.16.52-.11.13-.27.19-.49.19h-7.51c-.22,0-.39-.06-.52-.19Z"/>
    </g>
  </g>
</svg>