<svg xmlns="http://www.w3.org/2000/svg" xmlns:xlink="http://www.w3.org/1999/xlink" width="164" zoomAndPan="magnify" viewBox="0 0 123 35.25" height="47" preserveAspectRatio="xMidYMid meet" version="1.0"><defs><clipPath id="c7ef77aac0"><path d="M 1.28125 18.832031 L 9.054688 18.832031 L 9.054688 32.132812 L 1.28125 32.132812 Z M 1.28125 18.832031 " clip-rule="nonzero"/></clipPath><clipPath id="c0acff1648"><path d="M 9.054688 27.363281 C 9.054688 27.726562 9.023438 28.042969 8.960938 28.3125 C 9.023438 28.566406 9.054688 28.882812 9.054688 29.261719 C 9.054688 29.625 9.023438 29.9375 8.960938 30.207031 L 8.011719 30.207031 C 8.074219 30.460938 8.109375 30.777344 8.109375 31.15625 C 8.109375 31.519531 8.074219 31.835938 8.011719 32.105469 L 2.324219 32.105469 C 2.261719 31.835938 2.230469 31.519531 2.230469 31.15625 C 2.230469 30.777344 2.261719 30.460938 2.324219 30.207031 L 1.375 30.207031 C 1.3125 29.941406 1.28125 29.625 1.28125 29.261719 C 1.28125 28.878906 1.3125 28.566406 1.375 28.3125 L 3.273438 28.3125 C 3.335938 28.566406 3.367188 28.882812 3.367188 29.261719 C 3.367188 29.625 3.335938 29.9375 3.273438 30.207031 L 7.066406 30.207031 C 7 29.9375 6.96875 29.625 6.96875 29.261719 C 6.96875 28.878906 7 28.566406 7.066406 28.3125 C 7 28.042969 6.96875 27.726562 6.96875 27.363281 C 6.96875 26.984375 7 26.667969 7.066406 26.417969 L 2.324219 26.417969 C 2.261719 26.148438 2.230469 25.832031 2.230469 25.46875 C 2.230469 25.089844 2.261719 24.773438 2.324219 24.519531 L 1.375 24.519531 C 1.3125 24.25 1.28125 23.9375 1.28125 23.570312 C 1.28125 23.191406 1.3125 22.875 1.375 22.625 C 1.3125 22.355469 1.28125 22.039062 1.28125 21.675781 C 1.28125 21.296875 1.3125 20.980469 1.375 20.726562 L 2.324219 20.726562 C 2.261719 20.457031 2.230469 20.144531 2.230469 19.78125 C 2.230469 19.398438 2.261719 19.085938 2.324219 18.832031 L 8.011719 18.832031 C 8.074219 19.085938 8.109375 19.402344 8.109375 19.78125 C 8.109375 20.144531 8.074219 20.457031 8.011719 20.726562 L 8.960938 20.726562 C 9.023438 20.980469 9.054688 21.296875 9.054688 21.675781 C 9.054688 22.039062 9.023438 22.355469 8.960938 22.625 L 7.066406 22.625 C 7 22.355469 6.96875 22.039062 6.96875 21.675781 C 6.96875 21.296875 7 20.980469 7.066406 20.726562 L 3.273438 20.726562 C 3.335938 20.980469 3.367188 21.296875 3.367188 21.675781 C 3.367188 22.039062 3.335938 22.355469 3.273438 22.625 C 3.335938 22.875 3.367188 23.191406 3.367188 23.570312 C 3.367188 23.9375 3.335938 24.25 3.273438 24.519531 L 8.011719 24.519531 C 8.074219 24.773438 8.109375 25.089844 8.109375 25.46875 C 8.109375 25.832031 8.074219 26.148438 8.011719 26.414062 L 8.960938 26.414062 C 9.023438 26.667969 9.054688 26.984375 9.054688 27.363281 " clip-rule="nonzero"/></clipPath><clipPath id="793cc1527e"><path d="M 0.28125 0.832031 L 8.054688 0.832031 L 8.054688 14.132812 L 0.28125 14.132812 Z M 0.28125 0.832031 " clip-rule="nonzero"/></clipPath><clipPath id="90ed429af0"><path d="M 8.054688 9.363281 C 8.054688 9.726562 8.023438 10.042969 7.960938 10.3125 C 8.023438 10.566406 8.054688 10.882812 8.054688 11.261719 C 8.054688 11.625 8.023438 11.9375 7.960938 12.207031 L 7.011719 12.207031 C 7.074219 12.460938 7.109375 12.777344 7.109375 13.15625 C 7.109375 13.519531 7.074219 13.835938 7.011719 14.105469 L 1.324219 14.105469 C 1.261719 13.835938 1.230469 13.519531 1.230469 13.15625 C 1.230469 12.777344 1.261719 12.460938 1.324219 12.207031 L 0.375 12.207031 C 0.3125 11.941406 0.28125 11.625 0.28125 11.261719 C 0.28125 10.878906 0.3125 10.566406 0.375 10.3125 L 2.273438 10.3125 C 2.335938 10.566406 2.367188 10.882812 2.367188 11.261719 C 2.367188 11.625 2.335938 11.9375 2.273438 12.207031 L 6.066406 12.207031 C 6 11.9375 5.96875 11.625 5.96875 11.261719 C 5.96875 10.878906 6 10.566406 6.066406 10.3125 C 6 10.042969 5.96875 9.726562 5.96875 9.363281 C 5.96875 8.984375 6 8.667969 6.066406 8.417969 L 1.324219 8.417969 C 1.261719 8.148438 1.230469 7.832031 1.230469 7.46875 C 1.230469 7.089844 1.261719 6.773438 1.324219 6.519531 L 0.375 6.519531 C 0.3125 6.25 0.28125 5.9375 0.28125 5.570312 C 0.28125 5.191406 0.3125 4.875 0.375 4.625 C 0.3125 4.355469 0.28125 4.039062 0.28125 3.675781 C 0.28125 3.296875 0.3125 2.980469 0.375 2.726562 L 1.324219 2.726562 C 1.261719 2.457031 1.230469 2.144531 1.230469 1.78125 C 1.230469 1.398438 1.261719 1.085938 1.324219 0.832031 L 7.011719 0.832031 C 7.074219 1.085938 7.109375 1.402344 7.109375 1.78125 C 7.109375 2.144531 7.074219 2.457031 7.011719 2.726562 L 7.960938 2.726562 C 8.023438 2.980469 8.054688 3.296875 8.054688 3.675781 C 8.054688 4.039062 8.023438 4.355469 7.960938 4.625 L 6.066406 4.625 C 6 4.355469 5.96875 4.039062 5.96875 3.675781 C 5.96875 3.296875 6 2.980469 6.066406 2.726562 L 2.273438 2.726562 C 2.335938 2.980469 2.367188 3.296875 2.367188 3.675781 C 2.367188 4.039062 2.335938 4.355469 2.273438 4.625 C 2.335938 4.875 2.367188 5.191406 2.367188 5.570312 C 2.367188 5.9375 2.335938 6.25 2.273438 6.519531 L 7.011719 6.519531 C 7.074219 6.773438 7.109375 7.089844 7.109375 7.46875 C 7.109375 7.832031 7.074219 8.148438 7.011719 8.414062 L 7.960938 8.414062 C 8.023438 8.667969 8.054688 8.984375 8.054688 9.363281 " clip-rule="nonzero"/></clipPath><clipPath id="bb49d19429"><rect x="0" width="9" y="0" height="15"/></clipPath><clipPath id="540ba0f92e"><path d="M 2.703125 0 L 7.632812 0 L 7.632812 13.289062 L 2.703125 13.289062 Z M 2.703125 0 " clip-rule="nonzero"/></clipPath><clipPath id="afa30c3db1"><path d="M 7.539062 11.378906 C 7.601562 11.632812 7.632812 11.945312 7.632812 12.324219 C 7.632812 12.691406 7.601562 13.003906 7.539062 13.273438 L 2.796875 13.273438 C 2.734375 13.003906 2.703125 12.6875 2.703125 12.324219 C 2.703125 11.945312 2.734375 11.632812 2.796875 11.378906 L 4.21875 11.378906 C 4.15625 11.109375 4.125 10.792969 4.125 10.429688 C 4.125 10.050781 4.15625 9.734375 4.21875 9.480469 C 4.15625 9.214844 4.125 8.898438 4.125 8.535156 C 4.125 8.15625 4.15625 7.839844 4.21875 7.585938 C 4.15625 7.316406 4.125 7 4.125 6.636719 C 4.125 6.257812 4.15625 5.941406 4.21875 5.691406 C 4.15625 5.421875 4.125 5.105469 4.125 4.742188 C 4.125 4.363281 4.15625 4.046875 4.21875 3.792969 C 4.15625 3.527344 4.125 3.210938 4.125 2.847656 C 4.125 2.464844 4.15625 2.152344 4.21875 1.898438 L 2.796875 1.898438 C 2.734375 1.628906 2.703125 1.3125 2.703125 0.949219 C 2.703125 0.570312 2.734375 0.253906 2.796875 0 L 7.539062 0 C 7.601562 0.253906 7.632812 0.570312 7.632812 0.949219 C 7.632812 1.3125 7.601562 1.628906 7.539062 1.894531 L 6.117188 1.894531 C 6.179688 2.148438 6.210938 2.464844 6.210938 2.84375 C 6.210938 3.207031 6.179688 3.523438 6.117188 3.792969 C 6.179688 4.046875 6.210938 4.359375 6.210938 4.738281 C 6.210938 5.101562 6.179688 5.417969 6.117188 5.6875 C 6.179688 5.941406 6.210938 6.257812 6.210938 6.636719 C 6.210938 7 6.179688 7.316406 6.117188 7.582031 C 6.179688 7.835938 6.210938 8.152344 6.210938 8.53125 C 6.210938 8.894531 6.179688 9.210938 6.117188 9.480469 C 6.179688 9.734375 6.210938 10.046875 6.210938 10.425781 C 6.210938 10.792969 6.179688 11.105469 6.117188 11.375 Z M 7.539062 11.378906 " clip-rule="nonzero"/></clipPath><clipPath id="1e6fa091a9"><path d="M 0.703125 0 L 5.632812 0 L 5.632812 13.289062 L 0.703125 13.289062 Z M 0.703125 0 " clip-rule="nonzero"/></clipPath><clipPath id="1a423e457a"><path d="M 5.539062 11.378906 C 5.601562 11.632812 5.632812 11.945312 5.632812 12.324219 C 5.632812 12.691406 5.601562 13.003906 5.539062 13.273438 L 0.796875 13.273438 C 0.734375 13.003906 0.703125 12.6875 0.703125 12.324219 C 0.703125 11.945312 0.734375 11.632812 0.796875 11.378906 L 2.21875 11.378906 C 2.15625 11.109375 2.125 10.792969 2.125 10.429688 C 2.125 10.050781 2.15625 9.734375 2.21875 9.480469 C 2.15625 9.214844 2.125 8.898438 2.125 8.535156 C 2.125 8.15625 2.15625 7.839844 2.21875 7.585938 C 2.15625 7.316406 2.125 7 2.125 6.636719 C 2.125 6.257812 2.15625 5.941406 2.21875 5.691406 C 2.15625 5.421875 2.125 5.105469 2.125 4.742188 C 2.125 4.363281 2.15625 4.046875 2.21875 3.792969 C 2.15625 3.527344 2.125 3.210938 2.125 2.847656 C 2.125 2.464844 2.15625 2.152344 2.21875 1.898438 L 0.796875 1.898438 C 0.734375 1.628906 0.703125 1.3125 0.703125 0.949219 C 0.703125 0.570312 0.734375 0.253906 0.796875 0 L 5.539062 0 C 5.601562 0.253906 5.632812 0.570312 5.632812 0.949219 C 5.632812 1.3125 5.601562 1.628906 5.539062 1.894531 L 4.117188 1.894531 C 4.179688 2.148438 4.210938 2.464844 4.210938 2.84375 C 4.210938 3.207031 4.179688 3.523438 4.117188 3.792969 C 4.179688 4.046875 4.210938 4.359375 4.210938 4.738281 C 4.210938 5.101562 4.179688 5.417969 4.117188 5.6875 C 4.179688 5.941406 4.210938 6.257812 4.210938 6.636719 C 4.210938 7 4.179688 7.316406 4.117188 7.582031 C 4.179688 7.835938 4.210938 8.152344 4.210938 8.53125 C 4.210938 8.894531 4.179688 9.210938 4.117188 9.480469 C 4.179688 9.734375 4.210938 10.046875 4.210938 10.425781 C 4.210938 10.792969 4.179688 11.105469 4.117188 11.375 Z M 5.539062 11.378906 " clip-rule="nonzero"/></clipPath><clipPath id="21159d7a8c"><rect x="0" width="6" y="0" height="14"/></clipPath><clipPath id="f7e36d44bd"><path d="M 10.730469 0 L 18.535156 0 L 18.535156 13.300781 L 10.730469 13.300781 Z M 10.730469 0 " clip-rule="nonzero"/></clipPath><clipPath id="16752b79d3"><path d="M 18.535156 2.84375 C 18.535156 3.207031 18.503906 3.523438 18.441406 3.792969 C 18.503906 4.046875 18.535156 4.363281 18.535156 4.742188 C 18.535156 5.105469 18.503906 5.421875 18.441406 5.6875 C 18.503906 5.941406 18.535156 6.257812 18.535156 6.636719 C 18.535156 7 18.503906 7.316406 18.441406 7.585938 C 18.503906 7.835938 18.535156 8.152344 18.535156 8.53125 C 18.535156 8.898438 18.503906 9.210938 18.441406 9.480469 C 18.503906 9.734375 18.535156 10.050781 18.535156 10.429688 C 18.535156 10.792969 18.503906 11.109375 18.441406 11.375 C 18.503906 11.628906 18.535156 11.945312 18.535156 12.324219 C 18.535156 12.6875 18.503906 13.003906 18.441406 13.273438 L 16.546875 13.273438 C 16.480469 13.003906 16.449219 12.6875 16.449219 12.324219 C 16.449219 11.945312 16.480469 11.628906 16.546875 11.375 L 15.359375 11.375 C 15.296875 11.109375 15.265625 10.792969 15.265625 10.429688 C 15.265625 10.050781 15.296875 9.734375 15.359375 9.480469 L 14.648438 9.480469 C 14.585938 9.210938 14.554688 8.894531 14.554688 8.53125 C 14.554688 8.152344 14.585938 7.835938 14.648438 7.585938 L 13.703125 7.585938 C 13.636719 7.316406 13.605469 7 13.605469 6.636719 C 13.605469 6.257812 13.636719 5.941406 13.703125 5.6875 L 12.753906 5.6875 C 12.816406 5.941406 12.847656 6.257812 12.847656 6.636719 C 12.847656 7 12.816406 7.316406 12.753906 7.585938 C 12.816406 7.835938 12.847656 8.152344 12.847656 8.53125 C 12.847656 8.898438 12.816406 9.210938 12.753906 9.480469 C 12.816406 9.734375 12.847656 10.050781 12.847656 10.429688 C 12.847656 10.792969 12.816406 11.109375 12.753906 11.375 C 12.816406 11.628906 12.847656 11.945312 12.847656 12.324219 C 12.847656 12.6875 12.816406 13.003906 12.753906 13.273438 L 10.855469 13.273438 C 10.792969 13.003906 10.761719 12.6875 10.761719 12.324219 C 10.761719 11.945312 10.792969 11.632812 10.855469 11.378906 C 10.792969 11.109375 10.761719 10.792969 10.761719 10.429688 C 10.761719 10.050781 10.792969 9.734375 10.855469 9.480469 C 10.792969 9.214844 10.761719 8.898438 10.761719 8.535156 C 10.761719 8.15625 10.792969 7.839844 10.855469 7.585938 C 10.792969 7.316406 10.761719 7 10.761719 6.636719 C 10.761719 6.257812 10.792969 5.941406 10.855469 5.6875 C 10.792969 5.421875 10.761719 5.105469 10.761719 4.742188 C 10.761719 4.359375 10.792969 4.046875 10.855469 3.792969 C 10.792969 3.523438 10.761719 3.207031 10.761719 2.84375 C 10.761719 2.464844 10.792969 2.148438 10.855469 1.898438 C 10.792969 1.628906 10.761719 1.3125 10.761719 0.949219 C 10.761719 0.570312 10.792969 0.253906 10.855469 0 L 13.226562 0 C 13.289062 0.253906 13.320312 0.570312 13.320312 0.949219 C 13.320312 1.3125 13.289062 1.628906 13.226562 1.894531 L 13.9375 1.894531 C 14 2.148438 14.035156 2.464844 14.035156 2.84375 C 14.035156 3.207031 14 3.523438 13.9375 3.792969 L 14.648438 3.792969 C 14.710938 4.046875 14.746094 4.359375 14.746094 4.738281 C 14.746094 5.105469 14.710938 5.417969 14.648438 5.6875 L 15.597656 5.6875 C 15.660156 5.941406 15.691406 6.257812 15.691406 6.636719 C 15.691406 7 15.660156 7.316406 15.597656 7.582031 L 16.546875 7.582031 C 16.480469 7.316406 16.449219 7 16.449219 6.636719 C 16.449219 6.257812 16.480469 5.941406 16.546875 5.6875 C 16.480469 5.417969 16.449219 5.101562 16.449219 4.738281 C 16.449219 4.359375 16.480469 4.046875 16.546875 3.792969 C 16.480469 3.523438 16.449219 3.207031 16.449219 2.84375 C 16.449219 2.464844 16.480469 2.148438 16.546875 1.894531 C 16.480469 1.628906 16.449219 1.3125 16.449219 0.949219 C 16.449219 0.570312 16.480469 0.253906 16.546875 0 L 18.441406 0 C 18.503906 0.253906 18.535156 0.570312 18.535156 0.949219 C 18.535156 1.3125 18.503906 1.628906 18.441406 1.894531 C 18.503906 2.148438 18.535156 2.464844 18.535156 2.84375 " clip-rule="nonzero"/></clipPath><clipPath id="75533dbec5"><path d="M 0.730469 0 L 8.535156 0 L 8.535156 13.300781 L 0.730469 13.300781 Z M 0.730469 0 " clip-rule="nonzero"/></clipPath><clipPath id="c49645eca3"><path d="M 8.535156 2.84375 C 8.535156 3.207031 8.503906 3.523438 8.441406 3.792969 C 8.503906 4.046875 8.535156 4.363281 8.535156 4.742188 C 8.535156 5.105469 8.503906 5.421875 8.441406 5.6875 C 8.503906 5.941406 8.535156 6.257812 8.535156 6.636719 C 8.535156 7 8.503906 7.316406 8.441406 7.585938 C 8.503906 7.835938 8.535156 8.152344 8.535156 8.53125 C 8.535156 8.898438 8.503906 9.210938 8.441406 9.480469 C 8.503906 9.734375 8.535156 10.050781 8.535156 10.429688 C 8.535156 10.792969 8.503906 11.109375 8.441406 11.375 C 8.503906 11.628906 8.535156 11.945312 8.535156 12.324219 C 8.535156 12.6875 8.503906 13.003906 8.441406 13.273438 L 6.546875 13.273438 C 6.480469 13.003906 6.449219 12.6875 6.449219 12.324219 C 6.449219 11.945312 6.480469 11.628906 6.546875 11.375 L 5.359375 11.375 C 5.296875 11.109375 5.265625 10.792969 5.265625 10.429688 C 5.265625 10.050781 5.296875 9.734375 5.359375 9.480469 L 4.648438 9.480469 C 4.585938 9.210938 4.554688 8.894531 4.554688 8.53125 C 4.554688 8.152344 4.585938 7.835938 4.648438 7.585938 L 3.703125 7.585938 C 3.636719 7.316406 3.605469 7 3.605469 6.636719 C 3.605469 6.257812 3.636719 5.941406 3.703125 5.6875 L 2.753906 5.6875 C 2.816406 5.941406 2.847656 6.257812 2.847656 6.636719 C 2.847656 7 2.816406 7.316406 2.753906 7.585938 C 2.816406 7.835938 2.847656 8.152344 2.847656 8.53125 C 2.847656 8.898438 2.816406 9.210938 2.753906 9.480469 C 2.816406 9.734375 2.847656 10.050781 2.847656 10.429688 C 2.847656 10.792969 2.816406 11.109375 2.753906 11.375 C 2.816406 11.628906 2.847656 11.945312 2.847656 12.324219 C 2.847656 12.6875 2.816406 13.003906 2.753906 13.273438 L 0.855469 13.273438 C 0.792969 13.003906 0.761719 12.6875 0.761719 12.324219 C 0.761719 11.945312 0.792969 11.632812 0.855469 11.378906 C 0.792969 11.109375 0.761719 10.792969 0.761719 10.429688 C 0.761719 10.050781 0.792969 9.734375 0.855469 9.480469 C 0.792969 9.214844 0.761719 8.898438 0.761719 8.535156 C 0.761719 8.15625 0.792969 7.839844 0.855469 7.585938 C 0.792969 7.316406 0.761719 7 0.761719 6.636719 C 0.761719 6.257812 0.792969 5.941406 0.855469 5.6875 C 0.792969 5.421875 0.761719 5.105469 0.761719 4.742188 C 0.761719 4.359375 0.792969 4.046875 0.855469 3.792969 C 0.792969 3.523438 0.761719 3.207031 0.761719 2.84375 C 0.761719 2.464844 0.792969 2.148438 0.855469 1.898438 C 0.792969 1.628906 0.761719 1.3125 0.761719 0.949219 C 0.761719 0.570312 0.792969 0.253906 0.855469 0 L 3.226562 0 C 3.289062 0.253906 3.320312 0.570312 3.320312 0.949219 C 3.320312 1.3125 3.289062 1.628906 3.226562 1.894531 L 3.9375 1.894531 C 4 2.148438 4.035156 2.464844 4.035156 2.84375 C 4.035156 3.207031 4 3.523438 3.9375 3.792969 L 4.648438 3.792969 C 4.710938 4.046875 4.746094 4.359375 4.746094 4.738281 C 4.746094 5.105469 4.710938 5.417969 4.648438 5.6875 L 5.597656 5.6875 C 5.660156 5.941406 5.691406 6.257812 5.691406 6.636719 C 5.691406 7 5.660156 7.316406 5.597656 7.582031 L 6.546875 7.582031 C 6.480469 7.316406 6.449219 7 6.449219 6.636719 C 6.449219 6.257812 6.480469 5.941406 6.546875 5.6875 C 6.480469 5.417969 6.449219 5.101562 6.449219 4.738281 C 6.449219 4.359375 6.480469 4.046875 6.546875 3.792969 C 6.480469 3.523438 6.449219 3.207031 6.449219 2.84375 C 6.449219 2.464844 6.480469 2.148438 6.546875 1.894531 C 6.480469 1.628906 6.449219 1.3125 6.449219 0.949219 C 6.449219 0.570312 6.480469 0.253906 6.546875 0 L 8.441406 0 C 8.503906 0.253906 8.535156 0.570312 8.535156 0.949219 C 8.535156 1.3125 8.503906 1.628906 8.441406 1.894531 C 8.503906 2.148438 8.535156 2.464844 8.535156 2.84375 " clip-rule="nonzero"/></clipPath><clipPath id="3301ecfe0f"><rect x="0" width="9" y="0" height="14"/></clipPath><clipPath id="351db3a380"><path d="M 11.710938 18.832031 L 17.613281 18.832031 L 17.613281 32.125 L 11.710938 32.125 Z M 11.710938 18.832031 " clip-rule="nonzero"/></clipPath><clipPath id="3439068d5e"><path d="M 13.703125 26.417969 C 13.765625 26.667969 13.796875 26.984375 13.796875 27.363281 C 13.796875 27.726562 13.765625 28.042969 13.703125 28.3125 C 13.765625 28.566406 13.796875 28.882812 13.796875 29.261719 C 13.796875 29.625 13.765625 29.9375 13.703125 30.207031 L 17.496094 30.207031 C 17.558594 30.460938 17.589844 30.777344 17.589844 31.15625 C 17.589844 31.519531 17.558594 31.835938 17.496094 32.105469 L 11.804688 32.105469 C 11.742188 31.835938 11.710938 31.519531 11.710938 31.15625 C 11.710938 30.777344 11.742188 30.460938 11.804688 30.207031 C 11.742188 29.941406 11.710938 29.625 11.710938 29.261719 C 11.710938 28.882812 11.742188 28.566406 11.804688 28.3125 C 11.742188 28.042969 11.710938 27.726562 11.710938 27.363281 C 11.710938 26.984375 11.742188 26.667969 11.804688 26.417969 C 11.742188 26.148438 11.710938 25.832031 11.710938 25.46875 C 11.710938 25.089844 11.742188 24.773438 11.804688 24.519531 C 11.742188 24.25 11.710938 23.9375 11.710938 23.570312 C 11.710938 23.191406 11.742188 22.875 11.804688 22.625 C 11.742188 22.355469 11.710938 22.039062 11.710938 21.675781 C 11.710938 21.296875 11.742188 20.980469 11.804688 20.726562 C 11.742188 20.457031 11.710938 20.144531 11.710938 19.777344 C 11.710938 19.398438 11.742188 19.085938 11.804688 18.832031 L 17.496094 18.832031 C 17.558594 19.085938 17.589844 19.398438 17.589844 19.777344 C 17.589844 20.140625 17.558594 20.457031 17.496094 20.726562 L 13.703125 20.726562 C 13.765625 20.980469 13.796875 21.296875 13.796875 21.675781 C 13.796875 22.039062 13.765625 22.355469 13.703125 22.621094 C 13.765625 22.875 13.796875 23.191406 13.796875 23.570312 C 13.796875 23.933594 13.765625 24.25 13.703125 24.519531 L 17.496094 24.519531 C 17.558594 24.773438 17.589844 25.085938 17.589844 25.464844 C 17.589844 25.832031 17.558594 26.144531 17.496094 26.414062 Z M 13.703125 26.417969 " clip-rule="nonzero"/></clipPath><clipPath id="c467b50b4e"><path d="M 0.710938 0.832031 L 6.613281 0.832031 L 6.613281 14.125 L 0.710938 14.125 Z M 0.710938 0.832031 " clip-rule="nonzero"/></clipPath><clipPath id="4c96df2d2b"><path d="M 2.703125 8.417969 C 2.765625 8.667969 2.796875 8.984375 2.796875 9.363281 C 2.796875 9.726562 2.765625 10.042969 2.703125 10.3125 C 2.765625 10.566406 2.796875 10.882812 2.796875 11.261719 C 2.796875 11.625 2.765625 11.9375 2.703125 12.207031 L 6.496094 12.207031 C 6.558594 12.460938 6.589844 12.777344 6.589844 13.15625 C 6.589844 13.519531 6.558594 13.835938 6.496094 14.105469 L 0.804688 14.105469 C 0.742188 13.835938 0.710938 13.519531 0.710938 13.15625 C 0.710938 12.777344 0.742188 12.460938 0.804688 12.207031 C 0.742188 11.941406 0.710938 11.625 0.710938 11.261719 C 0.710938 10.882812 0.742188 10.566406 0.804688 10.3125 C 0.742188 10.042969 0.710938 9.726562 0.710938 9.363281 C 0.710938 8.984375 0.742188 8.667969 0.804688 8.417969 C 0.742188 8.148438 0.710938 7.832031 0.710938 7.46875 C 0.710938 7.089844 0.742188 6.773438 0.804688 6.519531 C 0.742188 6.25 0.710938 5.9375 0.710938 5.570312 C 0.710938 5.191406 0.742188 4.875 0.804688 4.625 C 0.742188 4.355469 0.710938 4.039062 0.710938 3.675781 C 0.710938 3.296875 0.742188 2.980469 0.804688 2.726562 C 0.742188 2.457031 0.710938 2.144531 0.710938 1.777344 C 0.710938 1.398438 0.742188 1.085938 0.804688 0.832031 L 6.496094 0.832031 C 6.558594 1.085938 6.589844 1.398438 6.589844 1.777344 C 6.589844 2.140625 6.558594 2.457031 6.496094 2.726562 L 2.703125 2.726562 C 2.765625 2.980469 2.796875 3.296875 2.796875 3.675781 C 2.796875 4.039062 2.765625 4.355469 2.703125 4.621094 C 2.765625 4.875 2.796875 5.191406 2.796875 5.570312 C 2.796875 5.933594 2.765625 6.25 2.703125 6.519531 L 6.496094 6.519531 C 6.558594 6.773438 6.589844 7.085938 6.589844 7.464844 C 6.589844 7.832031 6.558594 8.144531 6.496094 8.414062 Z M 2.703125 8.417969 " clip-rule="nonzero"/></clipPath><clipPath id="f2b6b205bd"><rect x="0" width="7" y="0" height="15"/></clipPath><clipPath id="1b24100605"><path d="M 20.242188 0 L 28.019531 0 L 28.019531 13.300781 L 20.242188 13.300781 Z M 20.242188 0 " clip-rule="nonzero"/></clipPath><clipPath id="18b1f5460f"><path d="M 27.921875 1.894531 L 25.078125 1.894531 C 25.140625 2.148438 25.171875 2.464844 25.171875 2.84375 C 25.171875 3.207031 25.140625 3.523438 25.078125 3.792969 C 25.140625 4.046875 25.171875 4.359375 25.171875 4.738281 C 25.171875 5.105469 25.140625 5.417969 25.078125 5.6875 C 25.140625 5.941406 25.171875 6.257812 25.171875 6.636719 C 25.171875 7 25.140625 7.316406 25.078125 7.582031 C 25.140625 7.835938 25.171875 8.152344 25.171875 8.53125 C 25.171875 8.894531 25.140625 9.210938 25.078125 9.480469 C 25.140625 9.734375 25.171875 10.046875 25.171875 10.425781 C 25.171875 10.792969 25.140625 11.105469 25.078125 11.375 C 25.140625 11.628906 25.171875 11.945312 25.171875 12.324219 C 25.171875 12.6875 25.140625 13.003906 25.078125 13.273438 L 23.183594 13.273438 C 23.121094 13.003906 23.089844 12.6875 23.089844 12.324219 C 23.089844 11.945312 23.121094 11.628906 23.183594 11.375 C 23.121094 11.105469 23.089844 10.792969 23.089844 10.425781 C 23.089844 10.046875 23.121094 9.734375 23.183594 9.480469 C 23.121094 9.210938 23.089844 8.894531 23.089844 8.53125 C 23.089844 8.152344 23.121094 7.835938 23.183594 7.582031 C 23.121094 7.316406 23.089844 7 23.089844 6.636719 C 23.089844 6.257812 23.121094 5.941406 23.183594 5.6875 C 23.121094 5.417969 23.089844 5.101562 23.089844 4.738281 C 23.089844 4.359375 23.121094 4.046875 23.183594 3.792969 C 23.121094 3.523438 23.089844 3.207031 23.089844 2.84375 C 23.089844 2.464844 23.121094 2.148438 23.183594 1.894531 L 20.339844 1.894531 C 20.273438 1.628906 20.242188 1.3125 20.242188 0.949219 C 20.242188 0.570312 20.273438 0.253906 20.339844 0 L 27.921875 0 C 27.984375 0.253906 28.019531 0.570312 28.019531 0.949219 C 28.019531 1.3125 27.984375 1.628906 27.921875 1.894531 " clip-rule="nonzero"/></clipPath><clipPath id="4b7bf76447"><path d="M 0.242188 0 L 8.019531 0 L 8.019531 13.300781 L 0.242188 13.300781 Z M 0.242188 0 " clip-rule="nonzero"/></clipPath><clipPath id="be33617255"><path d="M 7.921875 1.894531 L 5.078125 1.894531 C 5.140625 2.148438 5.171875 2.464844 5.171875 2.84375 C 5.171875 3.207031 5.140625 3.523438 5.078125 3.792969 C 5.140625 4.046875 5.171875 4.359375 5.171875 4.738281 C 5.171875 5.105469 5.140625 5.417969 5.078125 5.6875 C 5.140625 5.941406 5.171875 6.257812 5.171875 6.636719 C 5.171875 7 5.140625 7.316406 5.078125 7.582031 C 5.140625 7.835938 5.171875 8.152344 5.171875 8.53125 C 5.171875 8.894531 5.140625 9.210938 5.078125 9.480469 C 5.140625 9.734375 5.171875 10.046875 5.171875 10.425781 C 5.171875 10.792969 5.140625 11.105469 5.078125 11.375 C 5.140625 11.628906 5.171875 11.945312 5.171875 12.324219 C 5.171875 12.6875 5.140625 13.003906 5.078125 13.273438 L 3.183594 13.273438 C 3.121094 13.003906 3.089844 12.6875 3.089844 12.324219 C 3.089844 11.945312 3.121094 11.628906 3.183594 11.375 C 3.121094 11.105469 3.089844 10.792969 3.089844 10.425781 C 3.089844 10.046875 3.121094 9.734375 3.183594 9.480469 C 3.121094 9.210938 3.089844 8.894531 3.089844 8.53125 C 3.089844 8.152344 3.121094 7.835938 3.183594 7.582031 C 3.121094 7.316406 3.089844 7 3.089844 6.636719 C 3.089844 6.257812 3.121094 5.941406 3.183594 5.6875 C 3.121094 5.417969 3.089844 5.101562 3.089844 4.738281 C 3.089844 4.359375 3.121094 4.046875 3.183594 3.792969 C 3.121094 3.523438 3.089844 3.207031 3.089844 2.84375 C 3.089844 2.464844 3.121094 2.148438 3.183594 1.894531 L 0.339844 1.894531 C 0.273438 1.628906 0.242188 1.3125 0.242188 0.949219 C 0.242188 0.570312 0.273438 0.253906 0.339844 0 L 7.921875 0 C 7.984375 0.253906 8.019531 0.570312 8.019531 0.949219 C 8.019531 1.3125 7.984375 1.628906 7.921875 1.894531 " clip-rule="nonzero"/></clipPath><clipPath id="6034259084"><rect x="0" width="9" y="0" height="14"/></clipPath><clipPath id="697fdc0b96"><path d="M 20.214844 18.832031 L 28.019531 18.832031 L 28.019531 32.132812 L 20.214844 32.132812 Z M 20.214844 18.832031 " clip-rule="nonzero"/></clipPath><clipPath id="f6335c873c"><path d="M 28.019531 25.46875 C 28.019531 25.832031 27.984375 26.148438 27.921875 26.414062 C 27.984375 26.667969 28.019531 26.984375 28.019531 27.363281 C 28.019531 27.726562 27.984375 28.042969 27.921875 28.3125 C 27.984375 28.5625 28.019531 28.878906 28.019531 29.257812 C 28.019531 29.621094 27.984375 29.9375 27.921875 30.207031 L 26.976562 30.207031 C 27.039062 30.460938 27.070312 30.777344 27.070312 31.15625 C 27.070312 31.519531 27.039062 31.835938 26.976562 32.101562 L 22.234375 32.101562 C 22.171875 31.835938 22.140625 31.519531 22.140625 31.15625 C 22.140625 30.777344 22.171875 30.460938 22.234375 30.207031 L 21.285156 30.207031 C 21.222656 29.9375 21.191406 29.621094 21.191406 29.257812 C 21.191406 28.878906 21.222656 28.5625 21.285156 28.3125 L 20.339844 28.3125 C 20.273438 28.042969 20.242188 27.726562 20.242188 27.363281 C 20.242188 26.984375 20.273438 26.667969 20.339844 26.417969 C 20.273438 26.148438 20.242188 25.832031 20.242188 25.46875 C 20.242188 25.085938 20.273438 24.773438 20.339844 24.519531 C 20.273438 24.25 20.242188 23.9375 20.242188 23.570312 C 20.242188 23.191406 20.273438 22.875 20.339844 22.625 L 21.285156 22.625 C 21.222656 22.355469 21.191406 22.039062 21.191406 21.675781 C 21.191406 21.296875 21.222656 20.980469 21.285156 20.726562 L 22.234375 20.726562 C 22.171875 20.457031 22.140625 20.144531 22.140625 19.78125 C 22.140625 19.402344 22.171875 19.085938 22.234375 18.832031 L 26.976562 18.832031 C 27.039062 19.085938 27.070312 19.402344 27.070312 19.78125 C 27.070312 20.144531 27.039062 20.457031 26.976562 20.726562 L 27.921875 20.726562 C 27.984375 20.980469 28.019531 21.296875 28.019531 21.675781 C 28.019531 22.039062 27.984375 22.355469 27.921875 22.625 L 26.027344 22.625 C 25.964844 22.355469 25.933594 22.039062 25.933594 21.675781 C 25.933594 21.296875 25.964844 20.980469 26.027344 20.726562 L 23.183594 20.726562 C 23.246094 20.980469 23.277344 21.296875 23.277344 21.675781 C 23.277344 22.039062 23.246094 22.355469 23.183594 22.625 L 22.234375 22.625 C 22.296875 22.875 22.328125 23.191406 22.328125 23.570312 C 22.328125 23.9375 22.296875 24.25 22.234375 24.519531 C 22.296875 24.773438 22.328125 25.089844 22.328125 25.46875 C 22.328125 25.832031 22.296875 26.148438 22.234375 26.414062 C 22.296875 26.667969 22.328125 26.984375 22.328125 27.363281 C 22.328125 27.726562 22.296875 28.042969 22.234375 28.3125 L 23.183594 28.3125 C 23.246094 28.5625 23.277344 28.878906 23.277344 29.257812 C 23.277344 29.621094 23.246094 29.9375 23.183594 30.207031 L 26.027344 30.207031 C 25.964844 29.9375 25.933594 29.621094 25.933594 29.257812 C 25.933594 28.878906 25.964844 28.5625 26.027344 28.3125 C 25.964844 28.042969 25.933594 27.726562 25.933594 27.363281 C 25.933594 26.984375 25.964844 26.667969 26.027344 26.414062 L 24.605469 26.414062 C 24.542969 26.148438 24.511719 25.832031 24.511719 25.46875 C 24.511719 25.085938 24.542969 24.773438 24.605469 24.519531 L 27.921875 24.519531 C 27.984375 24.773438 28.019531 25.089844 28.019531 25.46875 " clip-rule="nonzero"/></clipPath><clipPath id="8922f7265f"><path d="M 0.214844 0.832031 L 8.019531 0.832031 L 8.019531 14.132812 L 0.214844 14.132812 Z M 0.214844 0.832031 " clip-rule="nonzero"/></clipPath><clipPath id="e8d0480f6a"><path d="M 8.019531 7.46875 C 8.019531 7.832031 7.984375 8.148438 7.921875 8.414062 C 7.984375 8.667969 8.019531 8.984375 8.019531 9.363281 C 8.019531 9.726562 7.984375 10.042969 7.921875 10.3125 C 7.984375 10.5625 8.019531 10.878906 8.019531 11.257812 C 8.019531 11.621094 7.984375 11.9375 7.921875 12.207031 L 6.976562 12.207031 C 7.039062 12.460938 7.070312 12.777344 7.070312 13.15625 C 7.070312 13.519531 7.039062 13.835938 6.976562 14.101562 L 2.234375 14.101562 C 2.171875 13.835938 2.140625 13.519531 2.140625 13.15625 C 2.140625 12.777344 2.171875 12.460938 2.234375 12.207031 L 1.285156 12.207031 C 1.222656 11.9375 1.191406 11.621094 1.191406 11.257812 C 1.191406 10.878906 1.222656 10.5625 1.285156 10.3125 L 0.339844 10.3125 C 0.273438 10.042969 0.242188 9.726562 0.242188 9.363281 C 0.242188 8.984375 0.273438 8.667969 0.339844 8.417969 C 0.273438 8.148438 0.242188 7.832031 0.242188 7.46875 C 0.242188 7.085938 0.273438 6.773438 0.339844 6.519531 C 0.273438 6.25 0.242188 5.9375 0.242188 5.570312 C 0.242188 5.191406 0.273438 4.875 0.339844 4.625 L 1.285156 4.625 C 1.222656 4.355469 1.191406 4.039062 1.191406 3.675781 C 1.191406 3.296875 1.222656 2.980469 1.285156 2.726562 L 2.234375 2.726562 C 2.171875 2.457031 2.140625 2.144531 2.140625 1.78125 C 2.140625 1.402344 2.171875 1.085938 2.234375 0.832031 L 6.976562 0.832031 C 7.039062 1.085938 7.070312 1.402344 7.070312 1.78125 C 7.070312 2.144531 7.039062 2.457031 6.976562 2.726562 L 7.921875 2.726562 C 7.984375 2.980469 8.019531 3.296875 8.019531 3.675781 C 8.019531 4.039062 7.984375 4.355469 7.921875 4.625 L 6.027344 4.625 C 5.964844 4.355469 5.933594 4.039062 5.933594 3.675781 C 5.933594 3.296875 5.964844 2.980469 6.027344 2.726562 L 3.183594 2.726562 C 3.246094 2.980469 3.277344 3.296875 3.277344 3.675781 C 3.277344 4.039062 3.246094 4.355469 3.183594 4.625 L 2.234375 4.625 C 2.296875 4.875 2.328125 5.191406 2.328125 5.570312 C 2.328125 5.9375 2.296875 6.25 2.234375 6.519531 C 2.296875 6.773438 2.328125 7.089844 2.328125 7.46875 C 2.328125 7.832031 2.296875 8.148438 2.234375 8.414062 C 2.296875 8.667969 2.328125 8.984375 2.328125 9.363281 C 2.328125 9.726562 2.296875 10.042969 2.234375 10.3125 L 3.183594 10.3125 C 3.246094 10.5625 3.277344 10.878906 3.277344 11.257812 C 3.277344 11.621094 3.246094 11.9375 3.183594 12.207031 L 6.027344 12.207031 C 5.964844 11.9375 5.933594 11.621094 5.933594 11.257812 C 5.933594 10.878906 5.964844 10.5625 6.027344 10.3125 C 5.964844 10.042969 5.933594 9.726562 5.933594 9.363281 C 5.933594 8.984375 5.964844 8.667969 6.027344 8.414062 L 4.605469 8.414062 C 4.542969 8.148438 4.511719 7.832031 4.511719 7.46875 C 4.511719 7.085938 4.542969 6.773438 4.605469 6.519531 L 7.921875 6.519531 C 7.984375 6.773438 8.019531 7.089844 8.019531 7.46875 " clip-rule="nonzero"/></clipPath><clipPath id="1563faa074"><rect x="0" width="9" y="0" height="15"/></clipPath><clipPath id="6e6cfd37b6"><path d="M 29.695312 18.832031 L 37.5 18.832031 L 37.5 32.132812 L 29.695312 32.132812 Z M 29.695312 18.832031 " clip-rule="nonzero"/></clipPath><clipPath id="3e3b64b962"><path d="M 37.5 21.675781 C 37.5 22.039062 37.46875 22.355469 37.40625 22.625 C 37.46875 22.875 37.5 23.191406 37.5 23.570312 C 37.5 23.9375 37.46875 24.25 37.40625 24.519531 C 37.46875 24.773438 37.5 25.089844 37.5 25.46875 C 37.5 25.832031 37.46875 26.148438 37.40625 26.414062 C 37.46875 26.667969 37.5 26.984375 37.5 27.363281 C 37.5 27.726562 37.46875 28.042969 37.40625 28.3125 C 37.46875 28.5625 37.5 28.878906 37.5 29.257812 C 37.5 29.625 37.46875 29.9375 37.40625 30.207031 L 36.457031 30.207031 C 36.519531 30.460938 36.550781 30.777344 36.550781 31.15625 C 36.550781 31.519531 36.519531 31.835938 36.457031 32.101562 L 30.765625 32.101562 C 30.703125 31.835938 30.671875 31.519531 30.671875 31.15625 C 30.671875 30.777344 30.703125 30.460938 30.765625 30.207031 L 29.820312 30.207031 C 29.753906 29.941406 29.722656 29.625 29.722656 29.261719 C 29.722656 28.882812 29.753906 28.566406 29.820312 28.3125 C 29.753906 28.042969 29.722656 27.726562 29.722656 27.363281 C 29.722656 26.984375 29.753906 26.667969 29.820312 26.417969 C 29.753906 26.148438 29.722656 25.832031 29.722656 25.46875 C 29.722656 25.089844 29.753906 24.773438 29.820312 24.519531 C 29.753906 24.25 29.722656 23.9375 29.722656 23.570312 C 29.722656 23.191406 29.753906 22.875 29.820312 22.625 C 29.753906 22.355469 29.722656 22.039062 29.722656 21.675781 C 29.722656 21.296875 29.753906 20.980469 29.820312 20.726562 C 29.753906 20.457031 29.722656 20.144531 29.722656 19.777344 C 29.722656 19.398438 29.753906 19.085938 29.820312 18.832031 L 31.714844 18.832031 C 31.777344 19.085938 31.8125 19.398438 31.8125 19.777344 C 31.8125 20.144531 31.777344 20.457031 31.714844 20.726562 C 31.777344 20.980469 31.8125 21.296875 31.8125 21.675781 C 31.8125 22.039062 31.777344 22.355469 31.714844 22.621094 C 31.777344 22.875 31.8125 23.191406 31.8125 23.570312 C 31.8125 23.933594 31.777344 24.25 31.714844 24.519531 C 31.777344 24.773438 31.8125 25.085938 31.8125 25.464844 C 31.8125 25.832031 31.777344 26.144531 31.714844 26.414062 C 31.777344 26.667969 31.8125 26.984375 31.8125 27.363281 C 31.8125 27.726562 31.777344 28.042969 31.714844 28.3125 C 31.777344 28.5625 31.8125 28.878906 31.8125 29.257812 C 31.8125 29.621094 31.777344 29.9375 31.714844 30.207031 L 35.507812 30.207031 C 35.445312 29.9375 35.414062 29.621094 35.414062 29.257812 C 35.414062 28.878906 35.445312 28.5625 35.507812 28.3125 C 35.445312 28.042969 35.414062 27.726562 35.414062 27.363281 C 35.414062 26.984375 35.445312 26.667969 35.507812 26.414062 C 35.445312 26.144531 35.414062 25.832031 35.414062 25.464844 C 35.414062 25.085938 35.445312 24.773438 35.507812 24.519531 C 35.445312 24.25 35.414062 23.933594 35.414062 23.570312 C 35.414062 23.191406 35.445312 22.875 35.507812 22.621094 C 35.445312 22.355469 35.414062 22.039062 35.414062 21.675781 C 35.414062 21.296875 35.445312 20.980469 35.507812 20.726562 C 35.445312 20.457031 35.414062 20.140625 35.414062 19.777344 C 35.414062 19.398438 35.445312 19.085938 35.507812 18.832031 L 37.40625 18.832031 C 37.46875 19.085938 37.5 19.398438 37.5 19.777344 C 37.5 20.144531 37.46875 20.457031 37.40625 20.726562 C 37.46875 20.980469 37.5 21.296875 37.5 21.675781 " clip-rule="nonzero"/></clipPath><clipPath id="2d10360993"><path d="M 0.714844 0.832031 L 8.5 0.832031 L 8.5 14.132812 L 0.714844 14.132812 Z M 0.714844 0.832031 " clip-rule="nonzero"/></clipPath><clipPath id="e759596317"><path d="M 8.5 3.675781 C 8.5 4.039062 8.46875 4.355469 8.40625 4.625 C 8.46875 4.875 8.5 5.191406 8.5 5.570312 C 8.5 5.9375 8.46875 6.25 8.40625 6.519531 C 8.46875 6.773438 8.5 7.089844 8.5 7.46875 C 8.5 7.832031 8.46875 8.148438 8.40625 8.414062 C 8.46875 8.667969 8.5 8.984375 8.5 9.363281 C 8.5 9.726562 8.46875 10.042969 8.40625 10.3125 C 8.46875 10.5625 8.5 10.878906 8.5 11.257812 C 8.5 11.625 8.46875 11.9375 8.40625 12.207031 L 7.457031 12.207031 C 7.519531 12.460938 7.550781 12.777344 7.550781 13.15625 C 7.550781 13.519531 7.519531 13.835938 7.457031 14.101562 L 1.765625 14.101562 C 1.703125 13.835938 1.671875 13.519531 1.671875 13.15625 C 1.671875 12.777344 1.703125 12.460938 1.765625 12.207031 L 0.820312 12.207031 C 0.753906 11.941406 0.722656 11.625 0.722656 11.261719 C 0.722656 10.882812 0.753906 10.566406 0.820312 10.3125 C 0.753906 10.042969 0.722656 9.726562 0.722656 9.363281 C 0.722656 8.984375 0.753906 8.667969 0.820312 8.417969 C 0.753906 8.148438 0.722656 7.832031 0.722656 7.46875 C 0.722656 7.089844 0.753906 6.773438 0.820312 6.519531 C 0.753906 6.25 0.722656 5.9375 0.722656 5.570312 C 0.722656 5.191406 0.753906 4.875 0.820312 4.625 C 0.753906 4.355469 0.722656 4.039062 0.722656 3.675781 C 0.722656 3.296875 0.753906 2.980469 0.820312 2.726562 C 0.753906 2.457031 0.722656 2.144531 0.722656 1.777344 C 0.722656 1.398438 0.753906 1.085938 0.820312 0.832031 L 2.714844 0.832031 C 2.777344 1.085938 2.8125 1.398438 2.8125 1.777344 C 2.8125 2.144531 2.777344 2.457031 2.714844 2.726562 C 2.777344 2.980469 2.8125 3.296875 2.8125 3.675781 C 2.8125 4.039062 2.777344 4.355469 2.714844 4.621094 C 2.777344 4.875 2.8125 5.191406 2.8125 5.570312 C 2.8125 5.933594 2.777344 6.25 2.714844 6.519531 C 2.777344 6.773438 2.8125 7.085938 2.8125 7.464844 C 2.8125 7.832031 2.777344 8.144531 2.714844 8.414062 C 2.777344 8.667969 2.8125 8.984375 2.8125 9.363281 C 2.8125 9.726562 2.777344 10.042969 2.714844 10.3125 C 2.777344 10.5625 2.8125 10.878906 2.8125 11.257812 C 2.8125 11.621094 2.777344 11.9375 2.714844 12.207031 L 6.507812 12.207031 C 6.445312 11.9375 6.414062 11.621094 6.414062 11.257812 C 6.414062 10.878906 6.445312 10.5625 6.507812 10.3125 C 6.445312 10.042969 6.414062 9.726562 6.414062 9.363281 C 6.414062 8.984375 6.445312 8.667969 6.507812 8.414062 C 6.445312 8.144531 6.414062 7.832031 6.414062 7.464844 C 6.414062 7.085938 6.445312 6.773438 6.507812 6.519531 C 6.445312 6.25 6.414062 5.933594 6.414062 5.570312 C 6.414062 5.191406 6.445312 4.875 6.507812 4.621094 C 6.445312 4.355469 6.414062 4.039062 6.414062 3.675781 C 6.414062 3.296875 6.445312 2.980469 6.507812 2.726562 C 6.445312 2.457031 6.414062 2.140625 6.414062 1.777344 C 6.414062 1.398438 6.445312 1.085938 6.507812 0.832031 L 8.40625 0.832031 C 8.46875 1.085938 8.5 1.398438 8.5 1.777344 C 8.5 2.144531 8.46875 2.457031 8.40625 2.726562 C 8.46875 2.980469 8.5 3.296875 8.5 3.675781 " clip-rule="nonzero"/></clipPath><clipPath id="6f49253282"><rect x="0" width="9" y="0" height="15"/></clipPath><clipPath id="1b56cf15f1"><path d="M 30.671875 0 L 36.574219 0 L 36.574219 13.296875 L 30.671875 13.296875 Z M 30.671875 0 " clip-rule="nonzero"/></clipPath><clipPath id="5018458b99"><path d="M 32.664062 7.585938 C 32.726562 7.839844 32.757812 8.15625 32.757812 8.535156 C 32.757812 8.898438 32.726562 9.210938 32.664062 9.480469 C 32.726562 9.734375 32.757812 10.050781 32.757812 10.429688 C 32.757812 10.792969 32.726562 11.109375 32.664062 11.378906 L 36.457031 11.378906 C 36.519531 11.628906 36.550781 11.945312 36.550781 12.324219 C 36.550781 12.6875 36.519531 13.003906 36.457031 13.273438 L 30.765625 13.273438 C 30.703125 13.003906 30.671875 12.6875 30.671875 12.324219 C 30.671875 11.945312 30.703125 11.632812 30.765625 11.378906 C 30.703125 11.109375 30.671875 10.792969 30.671875 10.429688 C 30.671875 10.050781 30.703125 9.734375 30.765625 9.480469 C 30.703125 9.214844 30.671875 8.898438 30.671875 8.535156 C 30.671875 8.15625 30.703125 7.839844 30.765625 7.585938 C 30.703125 7.316406 30.671875 7 30.671875 6.636719 C 30.671875 6.257812 30.703125 5.941406 30.765625 5.6875 C 30.703125 5.421875 30.671875 5.105469 30.671875 4.742188 C 30.671875 4.359375 30.703125 4.046875 30.765625 3.792969 C 30.703125 3.523438 30.671875 3.207031 30.671875 2.84375 C 30.671875 2.464844 30.703125 2.148438 30.765625 1.898438 C 30.703125 1.628906 30.671875 1.3125 30.671875 0.949219 C 30.671875 0.570312 30.703125 0.253906 30.765625 0 L 36.457031 0 C 36.519531 0.253906 36.550781 0.570312 36.550781 0.949219 C 36.550781 1.3125 36.519531 1.628906 36.457031 1.894531 L 32.664062 1.894531 C 32.726562 2.148438 32.757812 2.464844 32.757812 2.84375 C 32.757812 3.207031 32.726562 3.523438 32.664062 3.792969 C 32.726562 4.046875 32.757812 4.359375 32.757812 4.738281 C 32.757812 5.105469 32.726562 5.417969 32.664062 5.6875 L 36.457031 5.6875 C 36.519531 5.941406 36.550781 6.257812 36.550781 6.636719 C 36.550781 7 36.519531 7.316406 36.457031 7.582031 Z M 32.664062 7.585938 " clip-rule="nonzero"/></clipPath><clipPath id="fb1e66b481"><path d="M 0.671875 0 L 6.574219 0 L 6.574219 13.296875 L 0.671875 13.296875 Z M 0.671875 0 " clip-rule="nonzero"/></clipPath><clipPath id="462d4fc8e4"><path d="M 2.664062 7.585938 C 2.726562 7.839844 2.757812 8.15625 2.757812 8.535156 C 2.757812 8.898438 2.726562 9.210938 2.664062 9.480469 C 2.726562 9.734375 2.757812 10.050781 2.757812 10.429688 C 2.757812 10.792969 2.726562 11.109375 2.664062 11.378906 L 6.457031 11.378906 C 6.519531 11.628906 6.550781 11.945312 6.550781 12.324219 C 6.550781 12.6875 6.519531 13.003906 6.457031 13.273438 L 0.765625 13.273438 C 0.703125 13.003906 0.671875 12.6875 0.671875 12.324219 C 0.671875 11.945312 0.703125 11.632812 0.765625 11.378906 C 0.703125 11.109375 0.671875 10.792969 0.671875 10.429688 C 0.671875 10.050781 0.703125 9.734375 0.765625 9.480469 C 0.703125 9.214844 0.671875 8.898438 0.671875 8.535156 C 0.671875 8.15625 0.703125 7.839844 0.765625 7.585938 C 0.703125 7.316406 0.671875 7 0.671875 6.636719 C 0.671875 6.257812 0.703125 5.941406 0.765625 5.6875 C 0.703125 5.421875 0.671875 5.105469 0.671875 4.742188 C 0.671875 4.359375 0.703125 4.046875 0.765625 3.792969 C 0.703125 3.523438 0.671875 3.207031 0.671875 2.84375 C 0.671875 2.464844 0.703125 2.148438 0.765625 1.898438 C 0.703125 1.628906 0.671875 1.3125 0.671875 0.949219 C 0.671875 0.570312 0.703125 0.253906 0.765625 0 L 6.457031 0 C 6.519531 0.253906 6.550781 0.570312 6.550781 0.949219 C 6.550781 1.3125 6.519531 1.628906 6.457031 1.894531 L 2.664062 1.894531 C 2.726562 2.148438 2.757812 2.464844 2.757812 2.84375 C 2.757812 3.207031 2.726562 3.523438 2.664062 3.792969 C 2.726562 4.046875 2.757812 4.359375 2.757812 4.738281 C 2.757812 5.105469 2.726562 5.417969 2.664062 5.6875 L 6.457031 5.6875 C 6.519531 5.941406 6.550781 6.257812 6.550781 6.636719 C 6.550781 7 6.519531 7.316406 6.457031 7.582031 Z M 2.664062 7.585938 " clip-rule="nonzero"/></clipPath><clipPath id="52ed8b7ab0"><rect x="0" width="7" y="0" height="14"/></clipPath><clipPath id="e19b4fde71"><path d="M 39.175781 0 L 46.980469 0 L 46.980469 13.300781 L 39.175781 13.300781 Z M 39.175781 0 " clip-rule="nonzero"/></clipPath><clipPath id="1b7e44a8ec"><path d="M 44.421875 4.742188 C 44.421875 4.359375 44.453125 4.046875 44.515625 3.792969 C 44.453125 3.523438 44.421875 3.207031 44.421875 2.84375 C 44.421875 2.464844 44.453125 2.148438 44.515625 1.898438 L 41.195312 1.898438 C 41.257812 2.148438 41.289062 2.464844 41.289062 2.84375 C 41.289062 3.207031 41.257812 3.523438 41.195312 3.792969 C 41.257812 4.046875 41.289062 4.363281 41.289062 4.742188 C 41.289062 5.105469 41.257812 5.417969 41.195312 5.6875 L 44.515625 5.6875 C 44.453125 5.417969 44.421875 5.105469 44.421875 4.742188 M 46.886719 11.378906 C 46.949219 11.628906 46.980469 11.945312 46.980469 12.324219 C 46.980469 12.6875 46.949219 13.003906 46.886719 13.273438 L 44.988281 13.273438 C 44.925781 13.003906 44.894531 12.6875 44.894531 12.324219 C 44.894531 11.945312 44.925781 11.628906 44.988281 11.378906 L 44.277344 11.378906 C 44.214844 11.109375 44.183594 10.792969 44.183594 10.429688 C 44.183594 10.050781 44.214844 9.734375 44.277344 9.480469 L 43.566406 9.480469 C 43.503906 9.210938 43.472656 8.898438 43.472656 8.53125 C 43.472656 8.152344 43.503906 7.839844 43.566406 7.585938 L 41.195312 7.585938 C 41.257812 7.839844 41.289062 8.152344 41.289062 8.53125 C 41.289062 8.898438 41.257812 9.210938 41.195312 9.480469 C 41.257812 9.734375 41.289062 10.050781 41.289062 10.429688 C 41.289062 10.792969 41.257812 11.109375 41.195312 11.378906 C 41.257812 11.628906 41.289062 11.945312 41.289062 12.324219 C 41.289062 12.6875 41.257812 13.003906 41.195312 13.273438 L 39.300781 13.273438 C 39.238281 13.003906 39.207031 12.6875 39.207031 12.324219 C 39.207031 11.945312 39.238281 11.628906 39.300781 11.378906 C 39.238281 11.109375 39.207031 10.792969 39.207031 10.429688 C 39.207031 10.050781 39.238281 9.734375 39.300781 9.480469 C 39.238281 9.214844 39.207031 8.898438 39.207031 8.535156 C 39.207031 8.15625 39.238281 7.839844 39.300781 7.585938 C 39.238281 7.316406 39.207031 7 39.207031 6.636719 C 39.207031 6.257812 39.238281 5.941406 39.300781 5.6875 C 39.238281 5.417969 39.207031 5.105469 39.207031 4.742188 C 39.207031 4.359375 39.238281 4.046875 39.300781 3.792969 C 39.238281 3.523438 39.207031 3.207031 39.207031 2.84375 C 39.207031 2.464844 39.238281 2.148438 39.300781 1.898438 C 39.238281 1.628906 39.207031 1.3125 39.207031 0.949219 C 39.207031 0.570312 39.238281 0.253906 39.300781 0 L 45.9375 0 C 46 0.253906 46.03125 0.570312 46.03125 0.949219 C 46.03125 1.3125 46 1.628906 45.9375 1.894531 L 46.886719 1.894531 C 46.949219 2.148438 46.980469 2.464844 46.980469 2.84375 C 46.980469 3.207031 46.949219 3.523438 46.886719 3.792969 L 46.410156 3.792969 C 46.472656 4.046875 46.507812 4.359375 46.507812 4.738281 C 46.507812 5.105469 46.472656 5.417969 46.410156 5.6875 L 44.988281 5.6875 C 45.050781 5.941406 45.082031 6.257812 45.082031 6.636719 C 45.082031 7 45.050781 7.316406 44.988281 7.582031 L 45.464844 7.582031 C 45.527344 7.835938 45.558594 8.152344 45.558594 8.53125 C 45.558594 8.894531 45.527344 9.210938 45.464844 9.480469 L 46.175781 9.480469 C 46.238281 9.734375 46.269531 10.046875 46.269531 10.425781 C 46.269531 10.792969 46.238281 11.105469 46.175781 11.375 Z M 46.886719 11.378906 " clip-rule="nonzero"/></clipPath><clipPath id="318746b662"><path d="M 0.175781 0 L 7.980469 0 L 7.980469 13.300781 L 0.175781 13.300781 Z M 0.175781 0 " clip-rule="nonzero"/></clipPath><clipPath id="90a48c1d4a"><path d="M 5.421875 4.742188 C 5.421875 4.359375 5.453125 4.046875 5.515625 3.792969 C 5.453125 3.523438 5.421875 3.207031 5.421875 2.84375 C 5.421875 2.464844 5.453125 2.148438 5.515625 1.898438 L 2.195312 1.898438 C 2.257812 2.148438 2.289062 2.464844 2.289062 2.84375 C 2.289062 3.207031 2.257812 3.523438 2.195312 3.792969 C 2.257812 4.046875 2.289062 4.363281 2.289062 4.742188 C 2.289062 5.105469 2.257812 5.417969 2.195312 5.6875 L 5.515625 5.6875 C 5.453125 5.417969 5.421875 5.105469 5.421875 4.742188 M 7.886719 11.378906 C 7.949219 11.628906 7.980469 11.945312 7.980469 12.324219 C 7.980469 12.6875 7.949219 13.003906 7.886719 13.273438 L 5.988281 13.273438 C 5.925781 13.003906 5.894531 12.6875 5.894531 12.324219 C 5.894531 11.945312 5.925781 11.628906 5.988281 11.378906 L 5.277344 11.378906 C 5.214844 11.109375 5.183594 10.792969 5.183594 10.429688 C 5.183594 10.050781 5.214844 9.734375 5.277344 9.480469 L 4.566406 9.480469 C 4.503906 9.210938 4.472656 8.898438 4.472656 8.53125 C 4.472656 8.152344 4.503906 7.839844 4.566406 7.585938 L 2.195312 7.585938 C 2.257812 7.839844 2.289062 8.152344 2.289062 8.53125 C 2.289062 8.898438 2.257812 9.210938 2.195312 9.480469 C 2.257812 9.734375 2.289062 10.050781 2.289062 10.429688 C 2.289062 10.792969 2.257812 11.109375 2.195312 11.378906 C 2.257812 11.628906 2.289062 11.945312 2.289062 12.324219 C 2.289062 12.6875 2.257812 13.003906 2.195312 13.273438 L 0.300781 13.273438 C 0.238281 13.003906 0.207031 12.6875 0.207031 12.324219 C 0.207031 11.945312 0.238281 11.628906 0.300781 11.378906 C 0.238281 11.109375 0.207031 10.792969 0.207031 10.429688 C 0.207031 10.050781 0.238281 9.734375 0.300781 9.480469 C 0.238281 9.214844 0.207031 8.898438 0.207031 8.535156 C 0.207031 8.15625 0.238281 7.839844 0.300781 7.585938 C 0.238281 7.316406 0.207031 7 0.207031 6.636719 C 0.207031 6.257812 0.238281 5.941406 0.300781 5.6875 C 0.238281 5.417969 0.207031 5.105469 0.207031 4.742188 C 0.207031 4.359375 0.238281 4.046875 0.300781 3.792969 C 0.238281 3.523438 0.207031 3.207031 0.207031 2.84375 C 0.207031 2.464844 0.238281 2.148438 0.300781 1.898438 C 0.238281 1.628906 0.207031 1.3125 0.207031 0.949219 C 0.207031 0.570312 0.238281 0.253906 0.300781 0 L 6.9375 0 C 7 0.253906 7.03125 0.570312 7.03125 0.949219 C 7.03125 1.3125 7 1.628906 6.9375 1.894531 L 7.886719 1.894531 C 7.949219 2.148438 7.980469 2.464844 7.980469 2.84375 C 7.980469 3.207031 7.949219 3.523438 7.886719 3.792969 L 7.410156 3.792969 C 7.472656 4.046875 7.507812 4.359375 7.507812 4.738281 C 7.507812 5.105469 7.472656 5.417969 7.410156 5.6875 L 5.988281 5.6875 C 6.050781 5.941406 6.082031 6.257812 6.082031 6.636719 C 6.082031 7 6.050781 7.316406 5.988281 7.582031 L 6.464844 7.582031 C 6.527344 7.835938 6.558594 8.152344 6.558594 8.53125 C 6.558594 8.894531 6.527344 9.210938 6.464844 9.480469 L 7.175781 9.480469 C 7.238281 9.734375 7.269531 10.046875 7.269531 10.425781 C 7.269531 10.792969 7.238281 11.105469 7.175781 11.375 Z M 7.886719 11.378906 " clip-rule="nonzero"/></clipPath><clipPath id="dc76dcab39"><rect x="0" width="8" y="0" height="14"/></clipPath><clipPath id="dda66a61a7"><path d="M 39.175781 18.832031 L 46.980469 18.832031 L 46.980469 32.132812 L 39.175781 32.132812 Z M 39.175781 18.832031 " clip-rule="nonzero"/></clipPath><clipPath id="7426b1bd13"><path d="M 44.421875 23.570312 C 44.421875 23.191406 44.453125 22.875 44.515625 22.625 C 44.453125 22.355469 44.421875 22.039062 44.421875 21.675781 C 44.421875 21.296875 44.453125 20.980469 44.515625 20.726562 L 41.195312 20.726562 C 41.257812 20.980469 41.289062 21.296875 41.289062 21.675781 C 41.289062 22.039062 41.257812 22.355469 41.195312 22.625 C 41.257812 22.875 41.289062 23.191406 41.289062 23.570312 C 41.289062 23.933594 41.257812 24.25 41.195312 24.519531 L 44.515625 24.519531 C 44.453125 24.25 44.421875 23.933594 44.421875 23.570312 M 46.886719 30.207031 C 46.949219 30.460938 46.980469 30.777344 46.980469 31.15625 C 46.980469 31.519531 46.949219 31.835938 46.886719 32.105469 L 44.988281 32.105469 C 44.925781 31.835938 44.894531 31.519531 44.894531 31.15625 C 44.894531 30.777344 44.925781 30.460938 44.988281 30.207031 L 44.277344 30.207031 C 44.214844 29.9375 44.183594 29.625 44.183594 29.261719 C 44.183594 28.878906 44.214844 28.566406 44.277344 28.3125 L 43.566406 28.3125 C 43.503906 28.042969 43.472656 27.726562 43.472656 27.363281 C 43.472656 26.984375 43.503906 26.667969 43.566406 26.417969 L 41.195312 26.417969 C 41.257812 26.667969 41.289062 26.984375 41.289062 27.363281 C 41.289062 27.726562 41.257812 28.042969 41.195312 28.3125 C 41.257812 28.566406 41.289062 28.882812 41.289062 29.261719 C 41.289062 29.625 41.257812 29.9375 41.195312 30.207031 C 41.257812 30.460938 41.289062 30.777344 41.289062 31.15625 C 41.289062 31.519531 41.257812 31.835938 41.195312 32.105469 L 39.300781 32.105469 C 39.238281 31.835938 39.207031 31.519531 39.207031 31.15625 C 39.207031 30.777344 39.238281 30.460938 39.300781 30.207031 C 39.238281 29.941406 39.207031 29.625 39.207031 29.261719 C 39.207031 28.882812 39.238281 28.566406 39.300781 28.3125 C 39.238281 28.042969 39.207031 27.726562 39.207031 27.363281 C 39.207031 26.984375 39.238281 26.667969 39.300781 26.417969 C 39.238281 26.148438 39.207031 25.832031 39.207031 25.46875 C 39.207031 25.089844 39.238281 24.773438 39.300781 24.519531 C 39.238281 24.25 39.207031 23.933594 39.207031 23.570312 C 39.207031 23.191406 39.238281 22.875 39.300781 22.625 C 39.238281 22.355469 39.207031 22.039062 39.207031 21.675781 C 39.207031 21.296875 39.238281 20.980469 39.300781 20.726562 C 39.238281 20.457031 39.207031 20.144531 39.207031 19.777344 C 39.207031 19.398438 39.238281 19.082031 39.300781 18.832031 L 45.9375 18.832031 C 46 19.082031 46.03125 19.398438 46.03125 19.777344 C 46.03125 20.144531 46 20.457031 45.9375 20.726562 L 46.886719 20.726562 C 46.949219 20.980469 46.980469 21.296875 46.980469 21.675781 C 46.980469 22.039062 46.949219 22.355469 46.886719 22.621094 L 46.410156 22.621094 C 46.472656 22.875 46.507812 23.191406 46.507812 23.570312 C 46.507812 23.933594 46.472656 24.25 46.410156 24.519531 L 44.988281 24.519531 C 45.050781 24.773438 45.082031 25.085938 45.082031 25.464844 C 45.082031 25.832031 45.050781 26.144531 44.988281 26.414062 L 45.464844 26.414062 C 45.527344 26.667969 45.558594 26.984375 45.558594 27.363281 C 45.558594 27.726562 45.527344 28.042969 45.464844 28.3125 L 46.175781 28.3125 C 46.238281 28.5625 46.269531 28.878906 46.269531 29.257812 C 46.269531 29.621094 46.238281 29.9375 46.175781 30.207031 Z M 46.886719 30.207031 " clip-rule="nonzero"/></clipPath><clipPath id="505d64a91f"><path d="M 0.175781 0.832031 L 7.980469 0.832031 L 7.980469 14.132812 L 0.175781 14.132812 Z M 0.175781 0.832031 " clip-rule="nonzero"/></clipPath><clipPath id="ca9a768267"><path d="M 5.421875 5.570312 C 5.421875 5.191406 5.453125 4.875 5.515625 4.625 C 5.453125 4.355469 5.421875 4.039062 5.421875 3.675781 C 5.421875 3.296875 5.453125 2.980469 5.515625 2.726562 L 2.195312 2.726562 C 2.257812 2.980469 2.289062 3.296875 2.289062 3.675781 C 2.289062 4.039062 2.257812 4.355469 2.195312 4.625 C 2.257812 4.875 2.289062 5.191406 2.289062 5.570312 C 2.289062 5.933594 2.257812 6.25 2.195312 6.519531 L 5.515625 6.519531 C 5.453125 6.25 5.421875 5.933594 5.421875 5.570312 M 7.886719 12.207031 C 7.949219 12.460938 7.980469 12.777344 7.980469 13.15625 C 7.980469 13.519531 7.949219 13.835938 7.886719 14.105469 L 5.988281 14.105469 C 5.925781 13.835938 5.894531 13.519531 5.894531 13.15625 C 5.894531 12.777344 5.925781 12.460938 5.988281 12.207031 L 5.277344 12.207031 C 5.214844 11.9375 5.183594 11.625 5.183594 11.261719 C 5.183594 10.878906 5.214844 10.566406 5.277344 10.3125 L 4.566406 10.3125 C 4.503906 10.042969 4.472656 9.726562 4.472656 9.363281 C 4.472656 8.984375 4.503906 8.667969 4.566406 8.417969 L 2.195312 8.417969 C 2.257812 8.667969 2.289062 8.984375 2.289062 9.363281 C 2.289062 9.726562 2.257812 10.042969 2.195312 10.3125 C 2.257812 10.566406 2.289062 10.882812 2.289062 11.261719 C 2.289062 11.625 2.257812 11.9375 2.195312 12.207031 C 2.257812 12.460938 2.289062 12.777344 2.289062 13.15625 C 2.289062 13.519531 2.257812 13.835938 2.195312 14.105469 L 0.300781 14.105469 C 0.238281 13.835938 0.207031 13.519531 0.207031 13.15625 C 0.207031 12.777344 0.238281 12.460938 0.300781 12.207031 C 0.238281 11.941406 0.207031 11.625 0.207031 11.261719 C 0.207031 10.882812 0.238281 10.566406 0.300781 10.3125 C 0.238281 10.042969 0.207031 9.726562 0.207031 9.363281 C 0.207031 8.984375 0.238281 8.667969 0.300781 8.417969 C 0.238281 8.148438 0.207031 7.832031 0.207031 7.46875 C 0.207031 7.089844 0.238281 6.773438 0.300781 6.519531 C 0.238281 6.25 0.207031 5.933594 0.207031 5.570312 C 0.207031 5.191406 0.238281 4.875 0.300781 4.625 C 0.238281 4.355469 0.207031 4.039062 0.207031 3.675781 C 0.207031 3.296875 0.238281 2.980469 0.300781 2.726562 C 0.238281 2.457031 0.207031 2.144531 0.207031 1.777344 C 0.207031 1.398438 0.238281 1.082031 0.300781 0.832031 L 6.9375 0.832031 C 7 1.082031 7.03125 1.398438 7.03125 1.777344 C 7.03125 2.144531 7 2.457031 6.9375 2.726562 L 7.886719 2.726562 C 7.949219 2.980469 7.980469 3.296875 7.980469 3.675781 C 7.980469 4.039062 7.949219 4.355469 7.886719 4.621094 L 7.410156 4.621094 C 7.472656 4.875 7.507812 5.191406 7.507812 5.570312 C 7.507812 5.933594 7.472656 6.25 7.410156 6.519531 L 5.988281 6.519531 C 6.050781 6.773438 6.082031 7.085938 6.082031 7.464844 C 6.082031 7.832031 6.050781 8.144531 5.988281 8.414062 L 6.464844 8.414062 C 6.527344 8.667969 6.558594 8.984375 6.558594 9.363281 C 6.558594 9.726562 6.527344 10.042969 6.464844 10.3125 L 7.175781 10.3125 C 7.238281 10.5625 7.269531 10.878906 7.269531 11.257812 C 7.269531 11.621094 7.238281 11.9375 7.175781 12.207031 Z M 7.886719 12.207031 " clip-rule="nonzero"/></clipPath><clipPath id="61166455b4"><rect x="0" width="8" y="0" height="15"/></clipPath><clipPath id="686a94cece"><path d="M 48.65625 0 L 56.460938 0 L 56.460938 13.300781 L 48.65625 13.300781 Z M 48.65625 0 " clip-rule="nonzero"/></clipPath><clipPath id="ce6fe19467"><path d="M 56.460938 2.84375 C 56.460938 3.207031 56.429688 3.523438 56.367188 3.792969 C 56.429688 4.046875 56.460938 4.363281 56.460938 4.742188 C 56.460938 5.105469 56.429688 5.421875 56.367188 5.6875 C 56.429688 5.941406 56.460938 6.257812 56.460938 6.636719 C 56.460938 7 56.429688 7.316406 56.367188 7.585938 C 56.429688 7.835938 56.460938 8.152344 56.460938 8.53125 C 56.460938 8.898438 56.429688 9.210938 56.367188 9.480469 C 56.429688 9.734375 56.460938 10.050781 56.460938 10.429688 C 56.460938 10.792969 56.429688 11.109375 56.367188 11.375 C 56.429688 11.628906 56.460938 11.945312 56.460938 12.324219 C 56.460938 12.6875 56.429688 13.003906 56.367188 13.273438 L 54.46875 13.273438 C 54.40625 13.003906 54.375 12.6875 54.375 12.324219 C 54.375 11.945312 54.40625 11.628906 54.46875 11.375 L 53.285156 11.375 C 53.222656 11.109375 53.191406 10.792969 53.191406 10.429688 C 53.191406 10.050781 53.222656 9.734375 53.285156 9.480469 L 52.574219 9.480469 C 52.511719 9.210938 52.480469 8.894531 52.480469 8.53125 C 52.480469 8.152344 52.511719 7.835938 52.574219 7.585938 L 51.625 7.585938 C 51.5625 7.316406 51.53125 7 51.53125 6.636719 C 51.53125 6.257812 51.5625 5.941406 51.625 5.6875 L 50.679688 5.6875 C 50.742188 5.941406 50.773438 6.257812 50.773438 6.636719 C 50.773438 7 50.742188 7.316406 50.679688 7.585938 C 50.742188 7.835938 50.773438 8.152344 50.773438 8.53125 C 50.773438 8.898438 50.742188 9.210938 50.679688 9.480469 C 50.742188 9.734375 50.773438 10.050781 50.773438 10.429688 C 50.773438 10.792969 50.742188 11.109375 50.679688 11.375 C 50.742188 11.628906 50.773438 11.945312 50.773438 12.324219 C 50.773438 12.6875 50.742188 13.003906 50.679688 13.273438 L 48.78125 13.273438 C 48.71875 13.003906 48.6875 12.6875 48.6875 12.324219 C 48.6875 11.945312 48.71875 11.632812 48.78125 11.378906 C 48.71875 11.109375 48.6875 10.792969 48.6875 10.429688 C 48.6875 10.050781 48.71875 9.734375 48.78125 9.480469 C 48.71875 9.214844 48.6875 8.898438 48.6875 8.535156 C 48.6875 8.15625 48.71875 7.839844 48.78125 7.585938 C 48.71875 7.316406 48.6875 7 48.6875 6.636719 C 48.6875 6.257812 48.71875 5.941406 48.78125 5.6875 C 48.71875 5.421875 48.6875 5.105469 48.6875 4.742188 C 48.6875 4.359375 48.71875 4.046875 48.78125 3.792969 C 48.71875 3.523438 48.6875 3.207031 48.6875 2.84375 C 48.6875 2.464844 48.71875 2.148438 48.78125 1.898438 C 48.71875 1.628906 48.6875 1.3125 48.6875 0.949219 C 48.6875 0.570312 48.71875 0.253906 48.78125 0 L 51.152344 0 C 51.214844 0.253906 51.246094 0.570312 51.246094 0.949219 C 51.246094 1.3125 51.214844 1.628906 51.152344 1.894531 L 51.863281 1.894531 C 51.925781 2.148438 51.957031 2.464844 51.957031 2.84375 C 51.957031 3.207031 51.925781 3.523438 51.863281 3.792969 L 52.574219 3.792969 C 52.636719 4.046875 52.667969 4.359375 52.667969 4.738281 C 52.667969 5.105469 52.636719 5.417969 52.574219 5.6875 L 53.523438 5.6875 C 53.585938 5.941406 53.617188 6.257812 53.617188 6.636719 C 53.617188 7 53.585938 7.316406 53.523438 7.582031 L 54.46875 7.582031 C 54.40625 7.316406 54.375 7 54.375 6.636719 C 54.375 6.257812 54.40625 5.941406 54.46875 5.6875 C 54.40625 5.417969 54.375 5.101562 54.375 4.738281 C 54.375 4.359375 54.40625 4.046875 54.46875 3.792969 C 54.40625 3.523438 54.375 3.207031 54.375 2.84375 C 54.375 2.464844 54.40625 2.148438 54.46875 1.894531 C 54.40625 1.628906 54.375 1.3125 54.375 0.949219 C 54.375 0.570312 54.40625 0.253906 54.46875 0 L 56.367188 0 C 56.429688 0.253906 56.460938 0.570312 56.460938 0.949219 C 56.460938 1.3125 56.429688 1.628906 56.367188 1.894531 C 56.429688 2.148438 56.460938 2.464844 56.460938 2.84375 " clip-rule="nonzero"/></clipPath><clipPath id="400c7fa7ab"><path d="M 0.65625 0 L 8.460938 0 L 8.460938 13.300781 L 0.65625 13.300781 Z M 0.65625 0 " clip-rule="nonzero"/></clipPath><clipPath id="2f57155d07"><path d="M 8.460938 2.84375 C 8.460938 3.207031 8.429688 3.523438 8.367188 3.792969 C 8.429688 4.046875 8.460938 4.363281 8.460938 4.742188 C 8.460938 5.105469 8.429688 5.421875 8.367188 5.6875 C 8.429688 5.941406 8.460938 6.257812 8.460938 6.636719 C 8.460938 7 8.429688 7.316406 8.367188 7.585938 C 8.429688 7.835938 8.460938 8.152344 8.460938 8.53125 C 8.460938 8.898438 8.429688 9.210938 8.367188 9.480469 C 8.429688 9.734375 8.460938 10.050781 8.460938 10.429688 C 8.460938 10.792969 8.429688 11.109375 8.367188 11.375 C 8.429688 11.628906 8.460938 11.945312 8.460938 12.324219 C 8.460938 12.6875 8.429688 13.003906 8.367188 13.273438 L 6.46875 13.273438 C 6.40625 13.003906 6.375 12.6875 6.375 12.324219 C 6.375 11.945312 6.40625 11.628906 6.46875 11.375 L 5.285156 11.375 C 5.222656 11.109375 5.191406 10.792969 5.191406 10.429688 C 5.191406 10.050781 5.222656 9.734375 5.285156 9.480469 L 4.574219 9.480469 C 4.511719 9.210938 4.480469 8.894531 4.480469 8.53125 C 4.480469 8.152344 4.511719 7.835938 4.574219 7.585938 L 3.625 7.585938 C 3.5625 7.316406 3.53125 7 3.53125 6.636719 C 3.53125 6.257812 3.5625 5.941406 3.625 5.6875 L 2.679688 5.6875 C 2.742188 5.941406 2.773438 6.257812 2.773438 6.636719 C 2.773438 7 2.742188 7.316406 2.679688 7.585938 C 2.742188 7.835938 2.773438 8.152344 2.773438 8.53125 C 2.773438 8.898438 2.742188 9.210938 2.679688 9.480469 C 2.742188 9.734375 2.773438 10.050781 2.773438 10.429688 C 2.773438 10.792969 2.742188 11.109375 2.679688 11.375 C 2.742188 11.628906 2.773438 11.945312 2.773438 12.324219 C 2.773438 12.6875 2.742188 13.003906 2.679688 13.273438 L 0.78125 13.273438 C 0.71875 13.003906 0.6875 12.6875 0.6875 12.324219 C 0.6875 11.945312 0.71875 11.632812 0.78125 11.378906 C 0.71875 11.109375 0.6875 10.792969 0.6875 10.429688 C 0.6875 10.050781 0.71875 9.734375 0.78125 9.480469 C 0.71875 9.214844 0.6875 8.898438 0.6875 8.535156 C 0.6875 8.15625 0.71875 7.839844 0.78125 7.585938 C 0.71875 7.316406 0.6875 7 0.6875 6.636719 C 0.6875 6.257812 0.71875 5.941406 0.78125 5.6875 C 0.71875 5.421875 0.6875 5.105469 0.6875 4.742188 C 0.6875 4.359375 0.71875 4.046875 0.78125 3.792969 C 0.71875 3.523438 0.6875 3.207031 0.6875 2.84375 C 0.6875 2.464844 0.71875 2.148438 0.78125 1.898438 C 0.71875 1.628906 0.6875 1.3125 0.6875 0.949219 C 0.6875 0.570312 0.71875 0.253906 0.78125 0 L 3.152344 0 C 3.214844 0.253906 3.246094 0.570312 3.246094 0.949219 C 3.246094 1.3125 3.214844 1.628906 3.152344 1.894531 L 3.863281 1.894531 C 3.925781 2.148438 3.957031 2.464844 3.957031 2.84375 C 3.957031 3.207031 3.925781 3.523438 3.863281 3.792969 L 4.574219 3.792969 C 4.636719 4.046875 4.667969 4.359375 4.667969 4.738281 C 4.667969 5.105469 4.636719 5.417969 4.574219 5.6875 L 5.523438 5.6875 C 5.585938 5.941406 5.617188 6.257812 5.617188 6.636719 C 5.617188 7 5.585938 7.316406 5.523438 7.582031 L 6.46875 7.582031 C 6.40625 7.316406 6.375 7 6.375 6.636719 C 6.375 6.257812 6.40625 5.941406 6.46875 5.6875 C 6.40625 5.417969 6.375 5.101562 6.375 4.738281 C 6.375 4.359375 6.40625 4.046875 6.46875 3.792969 C 6.40625 3.523438 6.375 3.207031 6.375 2.84375 C 6.375 2.464844 6.40625 2.148438 6.46875 1.894531 C 6.40625 1.628906 6.375 1.3125 6.375 0.949219 C 6.375 0.570312 6.40625 0.253906 6.46875 0 L 8.367188 0 C 8.429688 0.253906 8.460938 0.570312 8.460938 0.949219 C 8.460938 1.3125 8.429688 1.628906 8.367188 1.894531 C 8.429688 2.148438 8.460938 2.464844 8.460938 2.84375 " clip-rule="nonzero"/></clipPath><clipPath id="76d88a0096"><rect x="0" width="9" y="0" height="14"/></clipPath><clipPath id="9427f0fd17"><path d="M 48.65625 18.832031 L 56.460938 18.832031 L 56.460938 32.132812 L 48.65625 32.132812 Z M 48.65625 18.832031 " clip-rule="nonzero"/></clipPath><clipPath id="f6221e6907"><path d="M 53.664062 25.46875 C 53.664062 25.085938 53.695312 24.773438 53.757812 24.519531 L 53.285156 24.519531 C 53.222656 24.25 53.191406 23.933594 53.191406 23.570312 C 53.191406 23.191406 53.222656 22.875 53.285156 22.625 L 51.863281 22.625 C 51.925781 22.875 51.957031 23.191406 51.957031 23.570312 C 51.957031 23.9375 51.925781 24.25 51.863281 24.519531 L 51.386719 24.519531 C 51.453125 24.773438 51.484375 25.089844 51.484375 25.46875 C 51.484375 25.832031 51.453125 26.148438 51.386719 26.414062 L 53.757812 26.414062 C 53.695312 26.148438 53.664062 25.832031 53.664062 25.46875 M 56.367188 30.207031 C 56.429688 30.460938 56.460938 30.777344 56.460938 31.15625 C 56.460938 31.519531 56.429688 31.835938 56.367188 32.105469 L 54.46875 32.105469 C 54.40625 31.835938 54.375 31.519531 54.375 31.15625 C 54.375 30.777344 54.40625 30.460938 54.46875 30.207031 C 54.40625 29.9375 54.375 29.625 54.375 29.261719 C 54.375 28.882812 54.40625 28.566406 54.46875 28.3125 L 50.675781 28.3125 C 50.742188 28.566406 50.773438 28.882812 50.773438 29.261719 C 50.773438 29.625 50.742188 29.9375 50.675781 30.207031 C 50.742188 30.460938 50.773438 30.777344 50.773438 31.15625 C 50.773438 31.519531 50.742188 31.835938 50.675781 32.105469 L 48.78125 32.105469 C 48.71875 31.835938 48.6875 31.519531 48.6875 31.15625 C 48.6875 30.777344 48.71875 30.460938 48.78125 30.207031 C 48.71875 29.941406 48.6875 29.625 48.6875 29.261719 C 48.6875 28.882812 48.71875 28.566406 48.78125 28.3125 L 49.492188 28.3125 C 49.429688 28.042969 49.398438 27.726562 49.398438 27.363281 C 49.398438 26.984375 49.429688 26.667969 49.492188 26.417969 C 49.429688 26.148438 49.398438 25.832031 49.398438 25.46875 C 49.398438 25.089844 49.429688 24.773438 49.492188 24.519531 L 49.96875 24.519531 C 49.902344 24.253906 49.871094 23.9375 49.871094 23.574219 C 49.871094 23.195312 49.902344 22.878906 49.96875 22.625 L 50.675781 22.625 C 50.613281 22.355469 50.582031 22.039062 50.582031 21.675781 C 50.582031 21.296875 50.613281 20.980469 50.675781 20.730469 L 51.152344 20.730469 C 51.089844 20.460938 51.058594 20.144531 51.058594 19.78125 C 51.058594 19.402344 51.089844 19.085938 51.152344 18.832031 L 53.996094 18.832031 C 54.058594 19.085938 54.089844 19.402344 54.089844 19.78125 C 54.089844 20.144531 54.058594 20.460938 53.996094 20.730469 L 54.46875 20.730469 C 54.535156 20.980469 54.566406 21.296875 54.566406 21.675781 C 54.566406 22.042969 54.535156 22.355469 54.46875 22.625 L 55.179688 22.625 C 55.242188 22.878906 55.277344 23.195312 55.277344 23.574219 C 55.277344 23.9375 55.242188 24.253906 55.179688 24.519531 L 55.65625 24.519531 C 55.71875 24.773438 55.75 25.089844 55.75 25.46875 C 55.75 25.832031 55.71875 26.148438 55.65625 26.417969 C 55.71875 26.667969 55.75 26.984375 55.75 27.363281 C 55.75 27.726562 55.71875 28.042969 55.65625 28.3125 L 56.367188 28.3125 C 56.429688 28.566406 56.460938 28.882812 56.460938 29.261719 C 56.460938 29.625 56.429688 29.941406 56.367188 30.207031 " clip-rule="nonzero"/></clipPath><clipPath id="6861aa4114"><path d="M 0.65625 0.832031 L 8.460938 0.832031 L 8.460938 14.132812 L 0.65625 14.132812 Z M 0.65625 0.832031 " clip-rule="nonzero"/></clipPath><clipPath id="3beec9c939"><path d="M 5.664062 7.46875 C 5.664062 7.085938 5.695312 6.773438 5.757812 6.519531 L 5.285156 6.519531 C 5.222656 6.25 5.191406 5.933594 5.191406 5.570312 C 5.191406 5.191406 5.222656 4.875 5.285156 4.625 L 3.863281 4.625 C 3.925781 4.875 3.957031 5.191406 3.957031 5.570312 C 3.957031 5.9375 3.925781 6.25 3.863281 6.519531 L 3.386719 6.519531 C 3.453125 6.773438 3.484375 7.089844 3.484375 7.46875 C 3.484375 7.832031 3.453125 8.148438 3.386719 8.414062 L 5.757812 8.414062 C 5.695312 8.148438 5.664062 7.832031 5.664062 7.46875 M 8.367188 12.207031 C 8.429688 12.460938 8.460938 12.777344 8.460938 13.15625 C 8.460938 13.519531 8.429688 13.835938 8.367188 14.105469 L 6.46875 14.105469 C 6.40625 13.835938 6.375 13.519531 6.375 13.15625 C 6.375 12.777344 6.40625 12.460938 6.46875 12.207031 C 6.40625 11.9375 6.375 11.625 6.375 11.261719 C 6.375 10.882812 6.40625 10.566406 6.46875 10.3125 L 2.675781 10.3125 C 2.742188 10.566406 2.773438 10.882812 2.773438 11.261719 C 2.773438 11.625 2.742188 11.9375 2.675781 12.207031 C 2.742188 12.460938 2.773438 12.777344 2.773438 13.15625 C 2.773438 13.519531 2.742188 13.835938 2.675781 14.105469 L 0.78125 14.105469 C 0.71875 13.835938 0.6875 13.519531 0.6875 13.15625 C 0.6875 12.777344 0.71875 12.460938 0.78125 12.207031 C 0.71875 11.941406 0.6875 11.625 0.6875 11.261719 C 0.6875 10.882812 0.71875 10.566406 0.78125 10.3125 L 1.492188 10.3125 C 1.429688 10.042969 1.398438 9.726562 1.398438 9.363281 C 1.398438 8.984375 1.429688 8.667969 1.492188 8.417969 C 1.429688 8.148438 1.398438 7.832031 1.398438 7.46875 C 1.398438 7.089844 1.429688 6.773438 1.492188 6.519531 L 1.96875 6.519531 C 1.902344 6.253906 1.871094 5.9375 1.871094 5.574219 C 1.871094 5.195312 1.902344 4.878906 1.96875 4.625 L 2.675781 4.625 C 2.613281 4.355469 2.582031 4.039062 2.582031 3.675781 C 2.582031 3.296875 2.613281 2.980469 2.675781 2.730469 L 3.152344 2.730469 C 3.089844 2.460938 3.058594 2.144531 3.058594 1.78125 C 3.058594 1.402344 3.089844 1.085938 3.152344 0.832031 L 5.996094 0.832031 C 6.058594 1.085938 6.089844 1.402344 6.089844 1.78125 C 6.089844 2.144531 6.058594 2.460938 5.996094 2.730469 L 6.46875 2.730469 C 6.535156 2.980469 6.566406 3.296875 6.566406 3.675781 C 6.566406 4.042969 6.535156 4.355469 6.46875 4.625 L 7.179688 4.625 C 7.242188 4.878906 7.277344 5.195312 7.277344 5.574219 C 7.277344 5.9375 7.242188 6.253906 7.179688 6.519531 L 7.65625 6.519531 C 7.71875 6.773438 7.75 7.089844 7.75 7.46875 C 7.75 7.832031 7.71875 8.148438 7.65625 8.417969 C 7.71875 8.667969 7.75 8.984375 7.75 9.363281 C 7.75 9.726562 7.71875 10.042969 7.65625 10.3125 L 8.367188 10.3125 C 8.429688 10.566406 8.460938 10.882812 8.460938 11.261719 C 8.460938 11.625 8.429688 11.941406 8.367188 12.207031 " clip-rule="nonzero"/></clipPath><clipPath id="47dca7292f"><rect x="0" width="9" y="0" height="15"/></clipPath><clipPath id="ea64e4b37b"><path d="M 59.117188 0 L 64.996094 0 L 64.996094 13.296875 L 59.117188 13.296875 Z M 59.117188 0 " clip-rule="nonzero"/></clipPath><clipPath id="061182fd2d"><path d="M 61.105469 7.585938 C 61.171875 7.839844 61.203125 8.15625 61.203125 8.535156 C 61.203125 8.898438 61.171875 9.210938 61.105469 9.480469 C 61.171875 9.734375 61.203125 10.050781 61.203125 10.429688 C 61.203125 10.792969 61.171875 11.109375 61.105469 11.378906 L 64.898438 11.378906 C 64.960938 11.628906 64.992188 11.945312 64.992188 12.324219 C 64.992188 12.6875 64.960938 13.003906 64.898438 13.273438 L 59.210938 13.273438 C 59.148438 13.003906 59.117188 12.6875 59.117188 12.324219 C 59.117188 11.945312 59.148438 11.632812 59.210938 11.378906 C 59.148438 11.109375 59.117188 10.792969 59.117188 10.429688 C 59.117188 10.050781 59.148438 9.734375 59.210938 9.480469 C 59.148438 9.214844 59.117188 8.898438 59.117188 8.535156 C 59.117188 8.15625 59.148438 7.839844 59.210938 7.585938 C 59.148438 7.316406 59.117188 7 59.117188 6.636719 C 59.117188 6.257812 59.148438 5.941406 59.210938 5.6875 C 59.148438 5.421875 59.117188 5.105469 59.117188 4.742188 C 59.117188 4.359375 59.148438 4.046875 59.210938 3.792969 C 59.148438 3.523438 59.117188 3.207031 59.117188 2.84375 C 59.117188 2.464844 59.148438 2.148438 59.210938 1.898438 C 59.148438 1.628906 59.117188 1.3125 59.117188 0.949219 C 59.117188 0.570312 59.148438 0.253906 59.210938 0 L 64.898438 0 C 64.960938 0.253906 64.992188 0.570312 64.992188 0.949219 C 64.992188 1.3125 64.960938 1.628906 64.898438 1.894531 L 61.105469 1.894531 C 61.171875 2.148438 61.203125 2.464844 61.203125 2.84375 C 61.203125 3.207031 61.171875 3.523438 61.105469 3.792969 C 61.171875 4.046875 61.203125 4.359375 61.203125 4.738281 C 61.203125 5.105469 61.171875 5.417969 61.105469 5.6875 L 64.898438 5.6875 C 64.960938 5.941406 64.992188 6.257812 64.992188 6.636719 C 64.992188 7 64.960938 7.316406 64.898438 7.582031 Z M 61.105469 7.585938 " clip-rule="nonzero"/></clipPath><clipPath id="9d5bec2b26"><path d="M 0.117188 0 L 5.996094 0 L 5.996094 13.296875 L 0.117188 13.296875 Z M 0.117188 0 " clip-rule="nonzero"/></clipPath><clipPath id="774937200f"><path d="M 2.105469 7.585938 C 2.171875 7.839844 2.203125 8.15625 2.203125 8.535156 C 2.203125 8.898438 2.171875 9.210938 2.105469 9.480469 C 2.171875 9.734375 2.203125 10.050781 2.203125 10.429688 C 2.203125 10.792969 2.171875 11.109375 2.105469 11.378906 L 5.898438 11.378906 C 5.960938 11.628906 5.992188 11.945312 5.992188 12.324219 C 5.992188 12.6875 5.960938 13.003906 5.898438 13.273438 L 0.210938 13.273438 C 0.148438 13.003906 0.117188 12.6875 0.117188 12.324219 C 0.117188 11.945312 0.148438 11.632812 0.210938 11.378906 C 0.148438 11.109375 0.117188 10.792969 0.117188 10.429688 C 0.117188 10.050781 0.148438 9.734375 0.210938 9.480469 C 0.148438 9.214844 0.117188 8.898438 0.117188 8.535156 C 0.117188 8.15625 0.148438 7.839844 0.210938 7.585938 C 0.148438 7.316406 0.117188 7 0.117188 6.636719 C 0.117188 6.257812 0.148438 5.941406 0.210938 5.6875 C 0.148438 5.421875 0.117188 5.105469 0.117188 4.742188 C 0.117188 4.359375 0.148438 4.046875 0.210938 3.792969 C 0.148438 3.523438 0.117188 3.207031 0.117188 2.84375 C 0.117188 2.464844 0.148438 2.148438 0.210938 1.898438 C 0.148438 1.628906 0.117188 1.3125 0.117188 0.949219 C 0.117188 0.570312 0.148438 0.253906 0.210938 0 L 5.898438 0 C 5.960938 0.253906 5.992188 0.570312 5.992188 0.949219 C 5.992188 1.3125 5.960938 1.628906 5.898438 1.894531 L 2.105469 1.894531 C 2.171875 2.148438 2.203125 2.464844 2.203125 2.84375 C 2.203125 3.207031 2.171875 3.523438 2.105469 3.792969 C 2.171875 4.046875 2.203125 4.359375 2.203125 4.738281 C 2.203125 5.105469 2.171875 5.417969 2.105469 5.6875 L 5.898438 5.6875 C 5.960938 5.941406 5.992188 6.257812 5.992188 6.636719 C 5.992188 7 5.960938 7.316406 5.898438 7.582031 Z M 2.105469 7.585938 " clip-rule="nonzero"/></clipPath><clipPath id="bab389b328"><rect x="0" width="6" y="0" height="14"/></clipPath><clipPath id="15102a8b4a"><path d="M 67.648438 0 L 75.421875 0 L 75.421875 13.300781 L 67.648438 13.300781 Z M 67.648438 0 " clip-rule="nonzero"/></clipPath><clipPath id="495094368f"><path d="M 75.328125 1.894531 L 72.484375 1.894531 C 72.546875 2.148438 72.578125 2.464844 72.578125 2.84375 C 72.578125 3.207031 72.546875 3.523438 72.484375 3.792969 C 72.546875 4.046875 72.578125 4.359375 72.578125 4.738281 C 72.578125 5.105469 72.546875 5.417969 72.484375 5.6875 C 72.546875 5.941406 72.578125 6.257812 72.578125 6.636719 C 72.578125 7 72.546875 7.316406 72.484375 7.582031 C 72.546875 7.835938 72.578125 8.152344 72.578125 8.53125 C 72.578125 8.894531 72.546875 9.210938 72.484375 9.480469 C 72.546875 9.734375 72.578125 10.046875 72.578125 10.425781 C 72.578125 10.792969 72.546875 11.105469 72.484375 11.375 C 72.546875 11.628906 72.578125 11.945312 72.578125 12.324219 C 72.578125 12.6875 72.546875 13.003906 72.484375 13.273438 L 70.589844 13.273438 C 70.523438 13.003906 70.492188 12.6875 70.492188 12.324219 C 70.492188 11.945312 70.523438 11.628906 70.589844 11.375 C 70.523438 11.105469 70.492188 10.792969 70.492188 10.425781 C 70.492188 10.046875 70.523438 9.734375 70.589844 9.480469 C 70.523438 9.210938 70.492188 8.894531 70.492188 8.53125 C 70.492188 8.152344 70.523438 7.835938 70.589844 7.582031 C 70.523438 7.316406 70.492188 7 70.492188 6.636719 C 70.492188 6.257812 70.523438 5.941406 70.589844 5.6875 C 70.523438 5.417969 70.492188 5.101562 70.492188 4.738281 C 70.492188 4.359375 70.523438 4.046875 70.589844 3.792969 C 70.523438 3.523438 70.492188 3.207031 70.492188 2.84375 C 70.492188 2.464844 70.523438 2.148438 70.589844 1.894531 L 67.742188 1.894531 C 67.679688 1.628906 67.648438 1.3125 67.648438 0.949219 C 67.648438 0.570312 67.679688 0.253906 67.742188 0 L 75.328125 0 C 75.390625 0.253906 75.421875 0.570312 75.421875 0.949219 C 75.421875 1.3125 75.390625 1.628906 75.328125 1.894531 " clip-rule="nonzero"/></clipPath><clipPath id="129948ad01"><path d="M 0.648438 0 L 8.421875 0 L 8.421875 13.300781 L 0.648438 13.300781 Z M 0.648438 0 " clip-rule="nonzero"/></clipPath><clipPath id="205cc05b05"><path d="M 8.328125 1.894531 L 5.484375 1.894531 C 5.546875 2.148438 5.578125 2.464844 5.578125 2.84375 C 5.578125 3.207031 5.546875 3.523438 5.484375 3.792969 C 5.546875 4.046875 5.578125 4.359375 5.578125 4.738281 C 5.578125 5.105469 5.546875 5.417969 5.484375 5.6875 C 5.546875 5.941406 5.578125 6.257812 5.578125 6.636719 C 5.578125 7 5.546875 7.316406 5.484375 7.582031 C 5.546875 7.835938 5.578125 8.152344 5.578125 8.53125 C 5.578125 8.894531 5.546875 9.210938 5.484375 9.480469 C 5.546875 9.734375 5.578125 10.046875 5.578125 10.425781 C 5.578125 10.792969 5.546875 11.105469 5.484375 11.375 C 5.546875 11.628906 5.578125 11.945312 5.578125 12.324219 C 5.578125 12.6875 5.546875 13.003906 5.484375 13.273438 L 3.589844 13.273438 C 3.523438 13.003906 3.492188 12.6875 3.492188 12.324219 C 3.492188 11.945312 3.523438 11.628906 3.589844 11.375 C 3.523438 11.105469 3.492188 10.792969 3.492188 10.425781 C 3.492188 10.046875 3.523438 9.734375 3.589844 9.480469 C 3.523438 9.210938 3.492188 8.894531 3.492188 8.53125 C 3.492188 8.152344 3.523438 7.835938 3.589844 7.582031 C 3.523438 7.316406 3.492188 7 3.492188 6.636719 C 3.492188 6.257812 3.523438 5.941406 3.589844 5.6875 C 3.523438 5.417969 3.492188 5.101562 3.492188 4.738281 C 3.492188 4.359375 3.523438 4.046875 3.589844 3.792969 C 3.523438 3.523438 3.492188 3.207031 3.492188 2.84375 C 3.492188 2.464844 3.523438 2.148438 3.589844 1.894531 L 0.742188 1.894531 C 0.679688 1.628906 0.648438 1.3125 0.648438 0.949219 C 0.648438 0.570312 0.679688 0.253906 0.742188 0 L 8.328125 0 C 8.390625 0.253906 8.421875 0.570312 8.421875 0.949219 C 8.421875 1.3125 8.390625 1.628906 8.328125 1.894531 " clip-rule="nonzero"/></clipPath><clipPath id="5f3a314ca6"><rect x="0" width="9" y="0" height="14"/></clipPath><clipPath id="9a64868adc"><path d="M 67.648438 16.933594 L 75.421875 16.933594 L 75.421875 34 L 67.648438 34 Z M 67.648438 16.933594 " clip-rule="nonzero"/></clipPath><clipPath id="293796913f"><path d="M 75.328125 18.832031 L 74.617188 18.832031 C 74.679688 19.082031 74.710938 19.398438 74.710938 19.777344 C 74.710938 20.144531 74.679688 20.457031 74.617188 20.726562 L 73.90625 20.726562 C 73.96875 20.980469 74 21.296875 74 21.675781 C 74 22.039062 73.96875 22.355469 73.90625 22.621094 L 73.195312 22.621094 C 73.257812 22.875 73.289062 23.191406 73.289062 23.570312 C 73.289062 23.933594 73.257812 24.25 73.195312 24.519531 L 72.484375 24.519531 C 72.546875 24.773438 72.578125 25.085938 72.578125 25.464844 C 72.578125 25.832031 72.546875 26.144531 72.484375 26.414062 L 71.773438 26.414062 C 71.835938 26.667969 71.867188 26.984375 71.867188 27.363281 C 71.867188 27.726562 71.835938 28.042969 71.773438 28.308594 L 71.0625 28.308594 C 71.125 28.5625 71.15625 28.878906 71.15625 29.257812 C 71.15625 29.621094 71.125 29.9375 71.0625 30.207031 L 70.351562 30.207031 C 70.414062 30.460938 70.445312 30.773438 70.445312 31.152344 C 70.445312 31.519531 70.414062 31.832031 70.351562 32.101562 L 69.640625 32.101562 C 69.703125 32.355469 69.734375 32.671875 69.734375 33.050781 C 69.734375 33.414062 69.703125 33.730469 69.640625 34 L 67.742188 34 C 67.679688 33.730469 67.648438 33.417969 67.648438 33.054688 C 67.648438 32.671875 67.679688 32.355469 67.742188 32.105469 L 68.453125 32.105469 C 68.390625 31.835938 68.359375 31.519531 68.359375 31.15625 C 68.359375 30.777344 68.390625 30.460938 68.453125 30.210938 L 69.164062 30.210938 C 69.101562 29.941406 69.070312 29.625 69.070312 29.261719 C 69.070312 28.882812 69.101562 28.566406 69.164062 28.3125 L 69.878906 28.3125 C 69.8125 28.042969 69.78125 27.730469 69.78125 27.363281 C 69.78125 26.984375 69.8125 26.671875 69.878906 26.417969 L 70.589844 26.417969 C 70.523438 26.148438 70.492188 25.832031 70.492188 25.46875 C 70.492188 25.089844 70.523438 24.773438 70.589844 24.519531 L 71.300781 24.519531 C 71.234375 24.253906 71.203125 23.9375 71.203125 23.574219 C 71.203125 23.195312 71.238281 22.878906 71.300781 22.625 L 72.011719 22.625 C 71.945312 22.355469 71.914062 22.039062 71.914062 21.675781 C 71.914062 21.296875 71.945312 20.984375 72.011719 20.730469 L 72.722656 20.730469 C 72.65625 20.460938 72.625 20.144531 72.625 19.78125 C 72.625 19.402344 72.65625 19.085938 72.722656 18.832031 L 73.433594 18.832031 C 73.367188 18.566406 73.335938 18.25 73.335938 17.886719 C 73.335938 17.507812 73.371094 17.191406 73.433594 16.9375 L 75.328125 16.9375 C 75.390625 17.191406 75.421875 17.507812 75.421875 17.886719 C 75.421875 18.25 75.390625 18.566406 75.328125 18.832031 " clip-rule="nonzero"/></clipPath><clipPath id="f1d5870cf3"><path d="M 0.648438 0.933594 L 8.421875 0.933594 L 8.421875 18 L 0.648438 18 Z M 0.648438 0.933594 " clip-rule="nonzero"/></clipPath><clipPath id="150ca67b30"><path d="M 8.328125 2.832031 L 7.617188 2.832031 C 7.679688 3.082031 7.710938 3.398438 7.710938 3.777344 C 7.710938 4.144531 7.679688 4.457031 7.617188 4.726562 L 6.90625 4.726562 C 6.96875 4.980469 7 5.296875 7 5.675781 C 7 6.039062 6.96875 6.355469 6.90625 6.621094 L 6.195312 6.621094 C 6.257812 6.875 6.289062 7.191406 6.289062 7.570312 C 6.289062 7.933594 6.257812 8.25 6.195312 8.519531 L 5.484375 8.519531 C 5.546875 8.773438 5.578125 9.085938 5.578125 9.464844 C 5.578125 9.832031 5.546875 10.144531 5.484375 10.414062 L 4.773438 10.414062 C 4.835938 10.667969 4.867188 10.984375 4.867188 11.363281 C 4.867188 11.726562 4.835938 12.042969 4.773438 12.308594 L 4.0625 12.308594 C 4.125 12.5625 4.15625 12.878906 4.15625 13.257812 C 4.15625 13.621094 4.125 13.9375 4.0625 14.207031 L 3.351562 14.207031 C 3.414062 14.460938 3.445312 14.773438 3.445312 15.152344 C 3.445312 15.519531 3.414062 15.832031 3.351562 16.101562 L 2.640625 16.101562 C 2.703125 16.355469 2.734375 16.671875 2.734375 17.050781 C 2.734375 17.414062 2.703125 17.730469 2.640625 18 L 0.742188 18 C 0.679688 17.730469 0.648438 17.417969 0.648438 17.054688 C 0.648438 16.671875 0.679688 16.355469 0.742188 16.105469 L 1.453125 16.105469 C 1.390625 15.835938 1.359375 15.519531 1.359375 15.15625 C 1.359375 14.777344 1.390625 14.460938 1.453125 14.210938 L 2.164062 14.210938 C 2.101562 13.941406 2.070312 13.625 2.070312 13.261719 C 2.070312 12.882812 2.101562 12.566406 2.164062 12.3125 L 2.878906 12.3125 C 2.8125 12.042969 2.78125 11.730469 2.78125 11.363281 C 2.78125 10.984375 2.8125 10.671875 2.878906 10.417969 L 3.589844 10.417969 C 3.523438 10.148438 3.492188 9.832031 3.492188 9.46875 C 3.492188 9.089844 3.523438 8.773438 3.589844 8.519531 L 4.300781 8.519531 C 4.234375 8.253906 4.203125 7.9375 4.203125 7.574219 C 4.203125 7.195312 4.238281 6.878906 4.300781 6.625 L 5.011719 6.625 C 4.945312 6.355469 4.914062 6.039062 4.914062 5.675781 C 4.914062 5.296875 4.945312 4.984375 5.011719 4.730469 L 5.722656 4.730469 C 5.65625 4.460938 5.625 4.144531 5.625 3.78125 C 5.625 3.402344 5.65625 3.085938 5.722656 2.832031 L 6.433594 2.832031 C 6.367188 2.566406 6.335938 2.25 6.335938 1.886719 C 6.335938 1.507812 6.371094 1.191406 6.433594 0.9375 L 8.328125 0.9375 C 8.390625 1.191406 8.421875 1.507812 8.421875 1.886719 C 8.421875 2.25 8.390625 2.566406 8.328125 2.832031 " clip-rule="nonzero"/></clipPath><clipPath id="a0b93bacea"><rect x="0" width="9" y="0" height="18"/></clipPath><clipPath id="7148071d06"><path d="M 87.578125 0 L 121.558594 0 L 121.558594 34 L 87.578125 34 Z M 87.578125 0 " clip-rule="nonzero"/></clipPath><clipPath id="239a4e3e80"><path d="M 114.480469 5.226562 L 118.253906 5.226562 L 118.253906 3.339844 C 118.253906 2.804688 118.074219 2.355469 117.714844 1.996094 C 117.351562 1.632812 116.902344 1.453125 116.367188 1.453125 C 115.832031 1.453125 115.382812 1.632812 115.023438 1.988281 C 114.660156 2.347656 114.480469 2.777344 114.480469 3.28125 Z M 111.101562 13.796875 L 111.101562 5.226562 L 113.027344 5.226562 L 113.027344 3.339844 C 113.027344 2.398438 113.347656 1.605469 113.992188 0.964844 C 114.632812 0.320312 115.425781 0 116.367188 0 C 117.308594 0 118.101562 0.320312 118.746094 0.964844 C 119.386719 1.605469 119.707031 2.398438 119.707031 3.339844 L 119.707031 5.226562 L 121.558594 5.226562 L 121.558594 13.796875 Z M 106.558594 32.480469 C 109.300781 32.082031 111.757812 31.039062 113.933594 29.363281 C 116.109375 27.6875 117.773438 25.589844 118.921875 23.078125 L 111.019531 23.078125 C 110.527344 24.734375 109.933594 26.363281 109.238281 27.964844 C 108.542969 29.5625 107.648438 31.070312 106.558594 32.480469 M 104.570312 32.660156 C 105.789062 31.285156 106.808594 29.789062 107.628906 28.167969 C 108.449219 26.546875 109.078125 24.851562 109.511719 23.078125 L 99.675781 23.078125 C 100.074219 24.851562 100.679688 26.550781 101.488281 28.183594 C 102.296875 29.8125 103.324219 31.304688 104.570312 32.660156 M 90.175781 10.890625 L 98.175781 10.890625 C 98.5625 9.210938 99.121094 7.578125 99.855469 5.992188 C 100.585938 4.410156 101.496094 2.910156 102.578125 1.5 C 99.847656 1.894531 97.378906 2.929688 95.179688 4.601562 C 92.980469 6.277344 91.3125 8.371094 90.175781 10.890625 M 102.589844 32.492188 C 101.425781 31.097656 100.488281 29.609375 99.78125 28.019531 C 99.074219 26.429688 98.535156 24.78125 98.164062 23.078125 L 90.214844 23.078125 C 91.363281 25.617188 93.035156 27.707031 95.226562 29.359375 C 97.417969 31.007812 99.871094 32.050781 102.589844 32.492188 M 89.742188 21.628906 L 97.863281 21.628906 C 97.726562 20.855469 97.632812 20.078125 97.578125 19.296875 C 97.519531 18.515625 97.492188 17.730469 97.492188 16.933594 C 97.492188 16.167969 97.519531 15.402344 97.578125 14.636719 C 97.632812 13.875 97.730469 13.109375 97.875 12.34375 L 89.742188 12.34375 C 89.503906 13.109375 89.328125 13.871094 89.207031 14.632812 C 89.089844 15.394531 89.03125 16.160156 89.03125 16.933594 C 89.03125 17.730469 89.089844 18.519531 89.207031 19.296875 C 89.328125 20.078125 89.503906 20.855469 89.742188 21.628906 M 104.570312 33.980469 C 102.222656 33.980469 100.015625 33.535156 97.949219 32.640625 C 95.882812 31.746094 94.085938 30.527344 92.554688 28.980469 C 91.027344 27.433594 89.8125 25.632812 88.917969 23.574219 C 88.023438 21.515625 87.578125 19.300781 87.578125 16.933594 C 87.578125 14.613281 88.023438 12.417969 88.917969 10.355469 C 89.8125 8.292969 91.027344 6.496094 92.554688 4.964844 C 94.085938 3.4375 95.882812 2.226562 97.949219 1.335938 C 100.015625 0.445312 102.222656 0 104.570312 0 C 105.167969 0 105.753906 0.03125 106.316406 0.0976562 C 106.882812 0.164062 107.449219 0.273438 108.019531 0.433594 L 107.363281 1.742188 C 106.878906 1.601562 106.402344 1.511719 105.929688 1.472656 C 105.460938 1.433594 104.992188 1.414062 104.53125 1.414062 C 103.234375 2.6875 102.21875 4.140625 101.480469 5.785156 C 100.742188 7.425781 100.140625 9.128906 99.675781 10.890625 L 107.761719 10.890625 L 107.761719 12.34375 L 99.335938 12.34375 C 99.21875 13.109375 99.125 13.875 99.050781 14.636719 C 98.980469 15.402344 98.945312 16.167969 98.945312 16.933594 C 98.945312 17.730469 98.980469 18.515625 99.050781 19.296875 C 99.125 20.078125 99.21875 20.855469 99.335938 21.625 L 109.8125 21.625 C 109.953125 20.855469 110.054688 20.085938 110.113281 19.324219 C 110.171875 18.5625 110.203125 17.832031 110.203125 17.136719 L 111.65625 17.136719 C 111.65625 17.832031 111.625 18.5625 111.5625 19.324219 C 111.5 20.085938 111.398438 20.855469 111.265625 21.625 L 119.394531 21.625 C 119.632812 20.855469 119.808594 20.089844 119.929688 19.332031 C 120.046875 18.570312 120.105469 17.839844 120.105469 17.136719 L 121.558594 17.136719 C 121.558594 19.414062 121.113281 21.574219 120.21875 23.609375 C 119.324219 25.644531 118.113281 27.433594 116.582031 28.972656 C 115.050781 30.511719 113.253906 31.734375 111.1875 32.632812 C 109.121094 33.53125 106.914062 33.980469 104.570312 33.980469 " clip-rule="nonzero"/></clipPath><clipPath id="2fbf515a4b"><path d="M 0.578125 0 L 34.558594 0 L 34.558594 34 L 0.578125 34 Z M 0.578125 0 " clip-rule="nonzero"/></clipPath><clipPath id="8e21cf28f3"><path d="M 27.480469 5.226562 L 31.253906 5.226562 L 31.253906 3.339844 C 31.253906 2.804688 31.074219 2.355469 30.714844 1.996094 C 30.351562 1.632812 29.902344 1.453125 29.367188 1.453125 C 28.832031 1.453125 28.382812 1.632812 28.023438 1.988281 C 27.660156 2.347656 27.480469 2.777344 27.480469 3.28125 Z M 24.101562 13.796875 L 24.101562 5.226562 L 26.027344 5.226562 L 26.027344 3.339844 C 26.027344 2.398438 26.347656 1.605469 26.992188 0.964844 C 27.632812 0.320312 28.425781 0 29.367188 0 C 30.308594 0 31.101562 0.320312 31.746094 0.964844 C 32.386719 1.605469 32.707031 2.398438 32.707031 3.339844 L 32.707031 5.226562 L 34.558594 5.226562 L 34.558594 13.796875 Z M 19.558594 32.480469 C 22.300781 32.082031 24.757812 31.039062 26.933594 29.363281 C 29.109375 27.6875 30.773438 25.589844 31.921875 23.078125 L 24.019531 23.078125 C 23.527344 24.734375 22.933594 26.363281 22.238281 27.964844 C 21.542969 29.5625 20.648438 31.070312 19.558594 32.480469 M 17.570312 32.660156 C 18.789062 31.285156 19.808594 29.789062 20.628906 28.167969 C 21.449219 26.546875 22.078125 24.851562 22.511719 23.078125 L 12.675781 23.078125 C 13.074219 24.851562 13.679688 26.550781 14.488281 28.183594 C 15.296875 29.8125 16.324219 31.304688 17.570312 32.660156 M 3.175781 10.890625 L 11.175781 10.890625 C 11.5625 9.210938 12.121094 7.578125 12.855469 5.992188 C 13.585938 4.410156 14.496094 2.910156 15.578125 1.5 C 12.847656 1.894531 10.378906 2.929688 8.179688 4.601562 C 5.980469 6.277344 4.3125 8.371094 3.175781 10.890625 M 15.589844 32.492188 C 14.425781 31.097656 13.488281 29.609375 12.78125 28.019531 C 12.074219 26.429688 11.535156 24.78125 11.164062 23.078125 L 3.214844 23.078125 C 4.363281 25.617188 6.035156 27.707031 8.226562 29.359375 C 10.417969 31.007812 12.871094 32.050781 15.589844 32.492188 M 2.742188 21.628906 L 10.863281 21.628906 C 10.726562 20.855469 10.632812 20.078125 10.578125 19.296875 C 10.519531 18.515625 10.492188 17.730469 10.492188 16.933594 C 10.492188 16.167969 10.519531 15.402344 10.578125 14.636719 C 10.632812 13.875 10.730469 13.109375 10.875 12.34375 L 2.742188 12.34375 C 2.503906 13.109375 2.328125 13.871094 2.207031 14.632812 C 2.089844 15.394531 2.03125 16.160156 2.03125 16.933594 C 2.03125 17.730469 2.089844 18.519531 2.207031 19.296875 C 2.328125 20.078125 2.503906 20.855469 2.742188 21.628906 M 17.570312 33.980469 C 15.222656 33.980469 13.015625 33.535156 10.949219 32.640625 C 8.882812 31.746094 7.085938 30.527344 5.554688 28.980469 C 4.027344 27.433594 2.8125 25.632812 1.917969 23.574219 C 1.023438 21.515625 0.578125 19.300781 0.578125 16.933594 C 0.578125 14.613281 1.023438 12.417969 1.917969 10.355469 C 2.8125 8.292969 4.027344 6.496094 5.554688 4.964844 C 7.085938 3.4375 8.882812 2.226562 10.949219 1.335938 C 13.015625 0.445312 15.222656 0 17.570312 0 C 18.167969 0 18.753906 0.03125 19.316406 0.0976562 C 19.882812 0.164062 20.449219 0.273438 21.019531 0.433594 L 20.363281 1.742188 C 19.878906 1.601562 19.402344 1.511719 18.929688 1.472656 C 18.460938 1.433594 17.992188 1.414062 17.53125 1.414062 C 16.234375 2.6875 15.21875 4.140625 14.480469 5.785156 C 13.742188 7.425781 13.140625 9.128906 12.675781 10.890625 L 20.761719 10.890625 L 20.761719 12.34375 L 12.335938 12.34375 C 12.21875 13.109375 12.125 13.875 12.050781 14.636719 C 11.980469 15.402344 11.945312 16.167969 11.945312 16.933594 C 11.945312 17.730469 11.980469 18.515625 12.050781 19.296875 C 12.125 20.078125 12.21875 20.855469 12.335938 21.625 L 22.8125 21.625 C 22.953125 20.855469 23.054688 20.085938 23.113281 19.324219 C 23.171875 18.5625 23.203125 17.832031 23.203125 17.136719 L 24.65625 17.136719 C 24.65625 17.832031 24.625 18.5625 24.5625 19.324219 C 24.5 20.085938 24.398438 20.855469 24.265625 21.625 L 32.394531 21.625 C 32.632812 20.855469 32.808594 20.089844 32.929688 19.332031 C 33.046875 18.570312 33.105469 17.839844 33.105469 17.136719 L 34.558594 17.136719 C 34.558594 19.414062 34.113281 21.574219 33.21875 23.609375 C 32.324219 25.644531 31.113281 27.433594 29.582031 28.972656 C 28.050781 30.511719 26.253906 31.734375 24.1875 32.632812 C 22.121094 33.53125 19.914062 33.980469 17.570312 33.980469 " clip-rule="nonzero"/></clipPath><clipPath id="a9e80d1093"><rect x="0" width="35" y="0" height="34"/></clipPath></defs><g clip-path="url(#c7ef77aac0)"><g clip-path="url(#c0acff1648)"><g transform="matrix(1, 0, 0, 1, 1, 18)"><g clip-path="url(#bb49d19429)"><g clip-path="url(#793cc1527e)"><g clip-path="url(#90ed429af0)"><path fill="#3b443c" d="M 0.28125 0.832031 L 8.054688 0.832031 L 8.054688 14.101562 L 0.28125 14.101562 Z M 0.28125 0.832031 " fill-opacity="1" fill-rule="nonzero"/></g></g></g></g></g></g><g clip-path="url(#540ba0f92e)"><g clip-path="url(#afa30c3db1)"><g transform="matrix(1, 0, 0, 1, 2, -0.00000000000000115)"><g clip-path="url(#21159d7a8c)"><g clip-path="url(#1e6fa091a9)"><g clip-path="url(#1a423e457a)"><path fill="#3b443c" d="M 0.703125 0 L 5.632812 0 L 5.632812 13.269531 L 0.703125 13.269531 Z M 0.703125 0 " fill-opacity="1" fill-rule="nonzero"/></g></g></g></g></g></g><g clip-path="url(#f7e36d44bd)"><g clip-path="url(#16752b79d3)"><g transform="matrix(1, 0, 0, 1, 10, -0.00000000000000115)"><g clip-path="url(#3301ecfe0f)"><g clip-path="url(#75533dbec5)"><g clip-path="url(#c49645eca3)"><path fill="#3b443c" d="M 0.761719 0 L 8.535156 0 L 8.535156 13.273438 L 0.761719 13.273438 Z M 0.761719 0 " fill-opacity="1" fill-rule="nonzero"/></g></g></g></g></g></g><g clip-path="url(#351db3a380)"><g clip-path="url(#3439068d5e)"><g transform="matrix(1, 0, 0, 1, 11, 18)"><g clip-path="url(#f2b6b205bd)"><g clip-path="url(#c467b50b4e)"><g clip-path="url(#4c96df2d2b)"><path fill="#3b443c" d="M 0.710938 0.832031 L 6.589844 0.832031 L 6.589844 14.101562 L 0.710938 14.101562 Z M 0.710938 0.832031 " fill-opacity="1" fill-rule="nonzero"/></g></g></g></g></g></g><g clip-path="url(#1b24100605)"><g clip-path="url(#18b1f5460f)"><g transform="matrix(1, 0, 0, 1, 20, -0.00000000000000115)"><g clip-path="url(#6034259084)"><g clip-path="url(#4b7bf76447)"><g clip-path="url(#be33617255)"><path fill="#3b443c" d="M 0.242188 0 L 8.019531 0 L 8.019531 13.273438 L 0.242188 13.273438 Z M 0.242188 0 " fill-opacity="1" fill-rule="nonzero"/></g></g></g></g></g></g><g clip-path="url(#697fdc0b96)"><g clip-path="url(#f6335c873c)"><g transform="matrix(1, 0, 0, 1, 20, 18)"><g clip-path="url(#1563faa074)"><g clip-path="url(#8922f7265f)"><g clip-path="url(#e8d0480f6a)"><path fill="#3b443c" d="M 0.242188 0.832031 L 8.019531 0.832031 L 8.019531 14.101562 L 0.242188 14.101562 Z M 0.242188 0.832031 " fill-opacity="1" fill-rule="nonzero"/></g></g></g></g></g></g><g clip-path="url(#6e6cfd37b6)"><g clip-path="url(#3e3b64b962)"><g transform="matrix(1, 0, 0, 1, 29, 18)"><g clip-path="url(#6f49253282)"><g clip-path="url(#2d10360993)"><g clip-path="url(#e759596317)"><path fill="#3b443c" d="M 0.722656 0.832031 L 8.5 0.832031 L 8.5 14.101562 L 0.722656 14.101562 Z M 0.722656 0.832031 " fill-opacity="1" fill-rule="nonzero"/></g></g></g></g></g></g><g clip-path="url(#1b56cf15f1)"><g clip-path="url(#5018458b99)"><g transform="matrix(1, 0, 0, 1, 30, -0.00000000000000115)"><g clip-path="url(#52ed8b7ab0)"><g clip-path="url(#fb1e66b481)"><g clip-path="url(#462d4fc8e4)"><path fill="#3b443c" d="M 0.671875 0 L 6.550781 0 L 6.550781 13.273438 L 0.671875 13.273438 Z M 0.671875 0 " fill-opacity="1" fill-rule="nonzero"/></g></g></g></g></g></g><g clip-path="url(#e19b4fde71)"><g clip-path="url(#1b7e44a8ec)"><g transform="matrix(1, 0, 0, 1, 39, -0.00000000000000115)"><g clip-path="url(#dc76dcab39)"><g clip-path="url(#318746b662)"><g clip-path="url(#90a48c1d4a)"><path fill="#3b443c" d="M 0.207031 0 L 7.980469 0 L 7.980469 13.273438 L 0.207031 13.273438 Z M 0.207031 0 " fill-opacity="1" fill-rule="nonzero"/></g></g></g></g></g></g><g clip-path="url(#dda66a61a7)"><g clip-path="url(#7426b1bd13)"><g transform="matrix(1, 0, 0, 1, 39, 18)"><g clip-path="url(#61166455b4)"><g clip-path="url(#505d64a91f)"><g clip-path="url(#ca9a768267)"><path fill="#3b443c" d="M 0.207031 0.832031 L 7.980469 0.832031 L 7.980469 14.101562 L 0.207031 14.101562 Z M 0.207031 0.832031 " fill-opacity="1" fill-rule="nonzero"/></g></g></g></g></g></g><g clip-path="url(#686a94cece)"><g clip-path="url(#ce6fe19467)"><g transform="matrix(1, 0, 0, 1, 48, -0.00000000000000115)"><g clip-path="url(#76d88a0096)"><g clip-path="url(#400c7fa7ab)"><g clip-path="url(#2f57155d07)"><path fill="#3b443c" d="M 0.6875 0 L 8.460938 0 L 8.460938 13.273438 L 0.6875 13.273438 Z M 0.6875 0 " fill-opacity="1" fill-rule="nonzero"/></g></g></g></g></g></g><g clip-path="url(#9427f0fd17)"><g clip-path="url(#f6221e6907)"><g transform="matrix(1, 0, 0, 1, 48, 18)"><g clip-path="url(#47dca7292f)"><g clip-path="url(#6861aa4114)"><g clip-path="url(#3beec9c939)"><path fill="#3b443c" d="M 0.6875 0.832031 L 8.460938 0.832031 L 8.460938 14.101562 L 0.6875 14.101562 Z M 0.6875 0.832031 " fill-opacity="1" fill-rule="nonzero"/></g></g></g></g></g></g><g clip-path="url(#ea64e4b37b)"><g clip-path="url(#061182fd2d)"><g transform="matrix(1, 0, 0, 1, 59, -0.00000000000000115)"><g clip-path="url(#bab389b328)"><g clip-path="url(#9d5bec2b26)"><g clip-path="url(#774937200f)"><path fill="#3b443c" d="M 0.117188 0 L 5.996094 0 L 5.996094 13.273438 L 0.117188 13.273438 Z M 0.117188 0 " fill-opacity="1" fill-rule="nonzero"/></g></g></g></g></g></g><g clip-path="url(#15102a8b4a)"><g clip-path="url(#495094368f)"><g transform="matrix(1, 0, 0, 1, 67, -0.00000000000000115)"><g clip-path="url(#5f3a314ca6)"><g clip-path="url(#129948ad01)"><g clip-path="url(#205cc05b05)"><path fill="#3b443c" d="M 0.648438 0 L 8.421875 0 L 8.421875 13.273438 L 0.648438 13.273438 Z M 0.648438 0 " fill-opacity="1" fill-rule="nonzero"/></g></g></g></g></g></g><g clip-path="url(#9a64868adc)"><g clip-path="url(#293796913f)"><g transform="matrix(1, 0, 0, 1, 67, 16)"><g clip-path="url(#a0b93bacea)"><g clip-path="url(#f1d5870cf3)"><g clip-path="url(#150ca67b30)"><path fill="#3b443c" d="M 0.648438 0.933594 L 8.421875 0.933594 L 8.421875 18.003906 L 0.648438 18.003906 Z M 0.648438 0.933594 " fill-opacity="1" fill-rule="nonzero"/></g></g></g></g></g></g><g clip-path="url(#7148071d06)"><g clip-path="url(#239a4e3e80)"><g transform="matrix(1, 0, 0, 1, 87, -0.00000000000000115)"><g clip-path="url(#a9e80d1093)"><g clip-path="url(#2fbf515a4b)"><g clip-path="url(#8e21cf28f3)"><path fill="#f5a0c5" d="M 0.578125 0 L 34.558594 0 L 34.558594 33.980469 L 0.578125 33.980469 Z M 0.578125 0 " fill-opacity="1" fill-rule="nonzero"/></g></g></g></g></g></g></svg>