<?xml version="1.0" encoding="UTF-8"?>
<svg id="Layer_1" data-name="Layer 1" xmlns="http://www.w3.org/2000/svg" viewBox="0 0 562.71 159.17">
  <defs>
    <style>
      .cls-1 {
        fill: none;
      }

      .cls-1, .cls-2 {
        stroke: #32fa96;
        stroke-linecap: round;
        stroke-linejoin: round;
        stroke-width: 4px;
      }

      .cls-2, .cls-3 {
        fill: #32fa96;
      }
    </style>
  </defs>
  <g>
    <path class="cls-3" d="M297.73,53.43c2.03-4.18,4.79-7.4,8.3-9.65,3.51-2.25,7.42-3.38,11.73-3.38,3.73,0,6.95.74,9.65,2.22s4.79,3.47,6.27,5.98v-7.53h18.92v54.15h-18.92v-7.53c-1.48,2.51-3.59,4.51-6.32,5.99-2.74,1.48-5.94,2.22-9.6,2.22-4.31,0-8.22-1.12-11.73-3.38-3.51-2.25-6.27-5.49-8.3-9.7-2.03-4.21-3.04-9.12-3.04-14.72s1.01-10.49,3.04-14.67ZM319.11,21.28c1.48,0,2.81.23,4.01.68,1.19.45,2.56,1.1,4.1,1.93,1.09.58,2.03,1.03,2.8,1.35.77.32,1.54.48,2.32.48,2.38,0,3.8-1.48,4.25-4.44h9.56c-.9,5.47-2.59,9.45-5.07,11.92s-5.62,3.72-9.41,3.72c-1.42,0-2.7-.21-3.86-.63-1.16-.42-2.58-1.05-4.25-1.88-1.09-.58-2.03-1.03-2.8-1.35s-1.54-.48-2.32-.48c-2.32,0-3.76,1.48-4.34,4.44h-9.46c1.8-10.49,6.63-15.73,14.48-15.73ZM330.84,59.89c-1.9-1.99-4.23-2.99-7-2.99s-5.18.98-7.05,2.95c-1.87,1.96-2.8,4.71-2.8,8.25s.93,6.23,2.8,8.25c1.87,2.03,4.21,3.04,7.05,3.04s5.1-1,7-2.99c1.9-1.99,2.85-4.76,2.85-8.3s-.95-6.21-2.85-8.2Z"/>
    <path class="cls-3" d="M372.83,92.52c-4.28-2.25-7.64-5.47-10.09-9.65-2.45-4.18-3.67-9.11-3.67-14.77s1.24-10.49,3.72-14.67c2.48-4.18,5.86-7.4,10.14-9.65,4.28-2.25,9.12-3.38,14.53-3.38s10.25,1.13,14.53,3.38c4.28,2.25,7.66,5.47,10.14,9.65,2.48,4.18,3.72,9.07,3.72,14.67s-1.24,10.51-3.72,14.72c-2.48,4.22-5.87,7.45-10.18,9.7-4.31,2.25-9.17,3.38-14.58,3.38s-10.25-1.12-14.53-3.38ZM393.97,76.55c1.77-1.96,2.65-4.78,2.65-8.45s-.88-6.47-2.65-8.4c-1.77-1.93-3.94-2.9-6.52-2.9s-4.73.96-6.47,2.9c-1.74,1.93-2.61,4.73-2.61,8.4s.83,6.56,2.51,8.5c1.67,1.93,3.83,2.9,6.47,2.9s4.84-.98,6.61-2.94Z"/>
    <path class="cls-3" d="M504.4,53.43c2.03-4.18,4.79-7.4,8.3-9.65,3.51-2.25,7.42-3.38,11.73-3.38,3.73,0,6.95.74,9.65,2.22s4.79,3.47,6.27,5.98v-7.53h18.92v54.15h-18.92v-7.53c-1.48,2.51-3.59,4.51-6.32,5.99-2.74,1.48-5.94,2.22-9.6,2.22-4.31,0-8.22-1.12-11.73-3.38-3.51-2.25-6.27-5.49-8.3-9.7-2.03-4.21-3.04-9.12-3.04-14.72s1.01-10.49,3.04-14.67ZM537.51,59.89c-1.9-1.99-4.23-2.99-7-2.99s-5.18.98-7.05,2.95c-1.87,1.96-2.8,4.71-2.8,8.25s.93,6.23,2.8,8.25c1.87,2.03,4.21,3.04,7.05,3.04s5.1-1,7-2.99c1.9-1.99,2.85-4.76,2.85-8.3s-.95-6.21-2.85-8.2Z"/>
    <g>
      <path class="cls-3" d="M325.7,158.46c-.09-.17-.09-.37,0-.58l22.2-43.95c.17-.35.45-.52.84-.52h6.08c.26,0,.43.09.52.26.09.17.09.37,0,.58l-22.2,43.95c-.17.35-.45.52-.84.52h-6.08c-.26,0-.43-.09-.52-.26Z"/>
      <path class="cls-3" d="M360.97,158.52c-.13-.13-.2-.3-.2-.52v-31.71c0-.26.07-.44.2-.55.13-.11.3-.16.52-.16h7.05c.26,0,.44.05.55.16.11.11.16.29.16.55v4.14h.26c1.12-1.73,2.54-3.04,4.27-3.95s3.67-1.36,5.83-1.36,4.16.44,5.76,1.33c1.6.88,2.87,2.21,3.82,3.98h.26c1.34-1.68,3-2.99,4.98-3.92,1.98-.93,4.16-1.39,6.54-1.39,3.71,0,6.54,1.24,8.48,3.72,1.94,2.48,2.91,6.14,2.91,10.97v18.19c0,.22-.05.39-.16.52-.11.13-.29.19-.55.19h-7.51c-.17,0-.33-.06-.49-.19-.15-.13-.23-.3-.23-.52v-18.19c0-2.63-.5-4.57-1.49-5.83-.99-1.25-2.57-1.88-4.72-1.88s-3.68.63-4.69,1.88c-1.02,1.25-1.52,3.19-1.52,5.83v18.19c0,.22-.05.39-.16.52-.11.13-.29.19-.55.19h-7.44c-.22,0-.39-.06-.52-.19-.13-.13-.19-.3-.19-.52v-18.19c0-2.63-.51-4.57-1.52-5.83-1.01-1.25-2.58-1.88-4.69-1.88s-3.74.63-4.76,1.88c-1.01,1.25-1.52,3.19-1.52,5.83v18.19c0,.22-.05.39-.16.52-.11.13-.27.19-.49.19h-7.51c-.22,0-.39-.06-.52-.19Z"/>
      <path class="cls-3" d="M424.59,157.1c-2.16-1.38-3.81-3.36-4.95-5.92-1.14-2.57-1.71-5.56-1.71-8.96s.57-6.58,1.71-9.13c1.14-2.55,2.79-4.51,4.95-5.89,2.16-1.38,4.68-2.07,7.57-2.07,2.11,0,4.09.48,5.92,1.42s3.31,2.24,4.43,3.88h.26v-4.14c0-.47.24-.71.71-.71h7.51c.22,0,.39.05.52.16.13.11.2.29.2.55v25.95h3.3c.47,0,.71.24.71.71v5.05c0,.47-.24.71-.71.71h-6.41c-1.81,0-3.16-.38-4.04-1.13-.88-.75-1.33-1.89-1.33-3.4v-.26h-.32c-.99,1.6-2.46,2.87-4.4,3.82-1.94.95-4.06,1.42-6.34,1.42-2.89,0-5.42-.69-7.57-2.07ZM439.48,151.18c1.21-.8,2.11-1.96,2.72-3.5.6-1.53.9-3.35.9-5.47s-.31-4.01-.94-5.57c-.63-1.55-1.53-2.73-2.72-3.53-1.19-.8-2.62-1.2-4.3-1.2s-3.14.4-4.37,1.2c-1.23.8-2.17,1.97-2.82,3.53-.65,1.55-.97,3.41-.97,5.57s.32,3.94.97,5.47c.65,1.53,1.59,2.7,2.82,3.5,1.23.8,2.69,1.2,4.37,1.2s3.13-.4,4.34-1.2Z"/>
      <path class="cls-3" d="M463.68,156.48c-2.5-1.79-3.93-4.39-4.27-7.8-.04-.22,0-.39.13-.52.13-.13.3-.2.52-.2h6.86c.35,0,.58.2.71.58.3,1.6.96,2.74,1.97,3.43,1.01.69,2.45,1.04,4.3,1.04,1.51,0,2.72-.32,3.62-.97.91-.65,1.36-1.49,1.36-2.52,0-.73-.15-1.33-.45-1.78-.3-.45-.77-.82-1.39-1.1-.62-.28-1.48-.51-2.56-.68l-4.6-.84c-3.32-.6-5.77-1.69-7.35-3.27-1.57-1.58-2.36-3.76-2.36-6.57,0-2.07.52-3.86,1.55-5.37,1.04-1.51,2.54-2.69,4.5-3.53,1.96-.84,4.28-1.26,6.96-1.26,3.79,0,6.86.83,9.19,2.49s3.69,4.07,4.08,7.22c.04.26,0,.45-.13.58-.13.13-.3.19-.52.19h-6.86c-.39,0-.65-.19-.78-.58v-.07c-.26-1.29-.79-2.23-1.59-2.82s-1.93-.87-3.4-.87-2.65.3-3.43.91c-.78.6-1.16,1.47-1.16,2.59,0,.99.31,1.75.94,2.27s1.78.93,3.46,1.23l4.79.91c2.37.39,4.25.98,5.63,1.78s2.38,1.84,3.01,3.14.94,2.91.94,4.85c0,3.32-1.17,5.86-3.5,7.6-2.33,1.75-5.65,2.62-9.97,2.62s-7.72-.89-10.23-2.69Z"/>
      <path class="cls-3" d="M496.63,156.48c-2.5-1.79-3.93-4.39-4.27-7.8-.04-.22,0-.39.13-.52.13-.13.3-.2.52-.2h6.86c.35,0,.58.2.71.58.3,1.6.96,2.74,1.97,3.43,1.01.69,2.45,1.04,4.3,1.04,1.51,0,2.72-.32,3.62-.97.91-.65,1.36-1.49,1.36-2.52,0-.73-.15-1.33-.45-1.78-.3-.45-.77-.82-1.39-1.1-.62-.28-1.48-.51-2.56-.68l-4.6-.84c-3.32-.6-5.77-1.69-7.35-3.27-1.57-1.58-2.36-3.76-2.36-6.57,0-2.07.52-3.86,1.55-5.37,1.04-1.51,2.54-2.69,4.5-3.53,1.96-.84,4.28-1.26,6.96-1.26,3.79,0,6.86.83,9.19,2.49s3.69,4.07,4.08,7.22c.04.26,0,.45-.13.58-.13.13-.3.19-.52.19h-6.86c-.39,0-.65-.19-.78-.58v-.07c-.26-1.29-.79-2.23-1.59-2.82s-1.93-.87-3.4-.87-2.65.3-3.43.91c-.78.6-1.16,1.47-1.16,2.59,0,.99.31,1.75.94,2.27s1.78.93,3.46,1.23l4.79.91c2.37.39,4.25.98,5.63,1.78s2.38,1.84,3.01,3.14.94,2.91.94,4.85c0,3.32-1.17,5.86-3.5,7.6-2.33,1.75-5.65,2.62-9.97,2.62s-7.72-.89-10.23-2.69Z"/>
      <path class="cls-3" d="M531.58,157.1c-2.16-1.38-3.81-3.36-4.95-5.92-1.14-2.57-1.71-5.56-1.71-8.96s.57-6.58,1.71-9.13c1.14-2.55,2.79-4.51,4.95-5.89,2.16-1.38,4.68-2.07,7.57-2.07,2.11,0,4.09.48,5.92,1.42s3.31,2.24,4.43,3.88h.26v-4.14c0-.47.24-.71.71-.71h7.51c.22,0,.39.05.52.16.13.11.2.29.2.55v25.95h3.3c.47,0,.71.24.71.71v5.05c0,.47-.24.71-.71.71h-6.41c-1.81,0-3.16-.38-4.04-1.13-.88-.75-1.33-1.89-1.33-3.4v-.26h-.32c-.99,1.6-2.46,2.87-4.4,3.82-1.94.95-4.06,1.42-6.34,1.42-2.89,0-5.42-.69-7.57-2.07ZM546.46,151.18c1.21-.8,2.11-1.96,2.72-3.5.6-1.53.9-3.35.9-5.47s-.31-4.01-.94-5.57c-.63-1.55-1.53-2.73-2.72-3.53-1.19-.8-2.62-1.2-4.3-1.2s-3.14.4-4.37,1.2c-1.23.8-2.17,1.97-2.82,3.53-.65,1.55-.97,3.41-.97,5.57s.32,3.94.97,5.47c.65,1.53,1.59,2.7,2.82,3.5,1.23.8,2.69,1.2,4.37,1.2s3.13-.4,4.34-1.2Z"/>
    </g>
    <g>
      <g>
        <polygon class="cls-3" points="269.63 58.94 269.63 73.21 269.63 77.08 269.63 95.22 287.8 95.22 287.8 77.08 287.8 73.21 287.8 58.94 269.63 58.94"/>
        <polygon class="cls-3" points="233.29 40.8 233.29 58.94 233.29 73.21 233.29 77.08 233.29 95.22 251.46 95.22 251.46 77.08 251.46 73.21 251.46 58.94 269.63 58.94 269.63 40.8 233.29 40.8"/>
      </g>
      <g>
        <polygon class="cls-3" points="233.29 58.94 233.29 73.21 233.29 77.08 233.29 95.22 251.46 95.22 251.46 77.08 251.46 73.21 251.46 58.94 233.29 58.94"/>
        <polygon class="cls-3" points="196.95 40.8 196.95 58.94 196.95 73.21 196.95 77.08 196.95 95.22 215.12 95.22 215.12 77.08 215.12 73.21 215.12 58.94 233.29 58.94 233.29 40.8 196.95 40.8"/>
      </g>
    </g>
    <g>
      <polygon class="cls-3" points="476.47 58.94 476.47 73.21 476.47 77.08 476.47 95.22 494.64 95.22 494.64 77.08 494.64 73.21 494.64 58.94 476.47 58.94"/>
      <polygon class="cls-3" points="440.13 40.8 440.13 58.94 440.13 73.21 440.13 77.08 440.13 95.22 458.3 95.22 458.3 77.08 458.3 73.21 458.3 58.94 476.47 58.94 476.47 40.8 440.13 40.8"/>
    </g>
  </g>
  <polygon class="cls-2" points="105.85 101.94 105.85 141.91 71.23 121.92 105.85 101.94"/>
  <polygon class="cls-2" points="71.23 121.92 36.61 141.91 36.61 101.94 71.23 121.92"/>
  <polygon class="cls-1" points="140.47 41.98 140.47 121.93 105.85 141.91 105.85 101.94 71.23 121.92 71.23 81.95 105.85 61.96 140.47 41.98"/>
  <polygon class="cls-1" points="71.23 81.95 71.23 121.92 36.61 101.94 36.61 141.91 2 121.93 2 41.98 36.61 61.96 71.23 81.95"/>
  <polygon class="cls-2" points="105.85 21.99 105.85 21.98 71.23 2 36.61 21.98 36.61 21.99 2 41.98 36.61 61.96 71.23 81.95 105.85 61.96 140.47 41.98 105.85 21.99"/>
</svg>