<?xml version="1.0" encoding="UTF-8"?>
<svg id="Layer_1" data-name="Layer 1" xmlns="http://www.w3.org/2000/svg" viewBox="0 0 107.07 108.15">
  <defs>
    <style>
      .cls-1 {
        fill: #32fa96;
      }

      .cls-1, .cls-2 {
        stroke: #f8fcf8;
        stroke-linecap: round;
        stroke-linejoin: round;
        stroke-width: 3.01px;
      }

      .cls-2 {
        fill: #f8fcf8;
      }
    </style>
  </defs>
  <polygon class="cls-2" points="79.55 76.6 79.55 106.64 53.53 91.62 79.55 76.6"/>
  <polygon class="cls-2" points="53.53 91.62 27.51 106.64 27.51 76.6 53.53 91.62"/>
  <polygon class="cls-1" points="105.56 31.54 105.56 91.62 79.55 106.64 79.55 76.6 53.53 91.62 53.53 61.58 79.55 46.56 105.56 31.54"/>
  <polygon class="cls-1" points="53.53 61.58 53.53 91.62 27.51 76.6 27.51 106.64 1.5 91.62 1.5 31.54 27.51 46.56 53.53 61.58"/>
  <polygon class="cls-2" points="79.55 16.53 79.55 16.52 53.53 1.5 27.51 16.52 27.51 16.53 1.5 31.54 27.51 46.56 53.53 61.58 79.55 46.56 105.56 31.54 79.55 16.53"/>
</svg>