<?xml version="1.0" encoding="UTF-8"?>
<svg id="Layer_1" data-name="Layer 1" xmlns="http://www.w3.org/2000/svg" viewBox="0 0 582.2 94.3">
  <defs>
    <style>
      .cls-1 {
        fill: #b3d9fe;
      }
    </style>
  </defs>
  <path class="cls-1" d="M114.94,52.9h-35.81c.19,2.96,1.01,5.16,2.46,6.61s3.3,2.17,5.55,2.17c3.15,0,5.41-1.41,6.76-4.25h20.17c-.84,3.73-2.46,7.06-4.88,9.99-2.41,2.93-5.45,5.23-9.12,6.9-3.67,1.67-7.72,2.51-12.16,2.51-5.34,0-10.09-1.13-14.24-3.38-4.15-2.25-7.4-5.47-9.75-9.65-2.35-4.18-3.52-9.11-3.52-14.77s1.16-10.57,3.48-14.72c2.32-4.15,5.55-7.35,9.7-9.6,4.15-2.25,8.93-3.38,14.33-3.38s10.07,1.09,14.19,3.28c4.12,2.19,7.34,5.33,9.65,9.41,2.32,4.09,3.48,8.9,3.48,14.43,0,1.48-.1,2.96-.29,4.44ZM95.93,43.73c0-2.32-.77-4.13-2.32-5.45-1.54-1.32-3.47-1.98-5.79-1.98s-4.22.63-5.7,1.88c-1.48,1.25-2.45,3.11-2.9,5.55h16.7Z"/>
  <path class="cls-1" d="M182.51,22.01v54.15h-18.92V22.01h18.92Z"/>
  <path class="cls-1" d="M221.32,37.74h-8.5v38.42h-19.02v-38.42h-5.89v-15.73h5.89v-.48c0-6.95,2.04-12.27,6.13-15.98,4.09-3.7,9.96-5.55,17.62-5.55,1.54,0,2.73.03,3.57.1v16.12c-.52-.06-1.22-.1-2.12-.1-2.06,0-3.57.47-4.54,1.4-.97.93-1.51,2.43-1.64,4.49h8.5v15.73Z"/>
  <path class="cls-1" d="M226.77,34.36c2.03-4.18,4.79-7.4,8.3-9.65,3.51-2.25,7.42-3.38,11.73-3.38,3.73,0,6.95.74,9.65,2.22,2.7,1.48,4.79,3.48,6.27,5.98v-7.53h18.92v54.15h-18.92v-7.53c-1.48,2.51-3.59,4.51-6.32,5.98-2.74,1.48-5.94,2.22-9.6,2.22-4.31,0-8.22-1.13-11.73-3.38-3.51-2.25-6.27-5.49-8.3-9.7-2.03-4.21-3.04-9.12-3.04-14.72s1.01-10.49,3.04-14.67ZM259.88,40.83c-1.9-1.99-4.23-2.99-7-2.99s-5.18.98-7.05,2.94c-1.87,1.96-2.8,4.71-2.8,8.25s.93,6.23,2.8,8.25c1.87,2.03,4.21,3.04,7.05,3.04s5.1-1,7-2.99c1.9-1.99,2.85-4.76,2.85-8.3s-.95-6.21-2.85-8.2Z"/>
  <polygon class="cls-1" points="157.16 21.73 157.16 39.87 140.81 39.87 140.81 76.16 122.64 76.16 122.64 21.73 157.16 21.73"/>
  <path class="cls-1" d="M293.61,75.89c-.09-.17-.09-.37,0-.58l22.2-43.95c.17-.34.45-.52.84-.52h6.08c.26,0,.43.09.52.26.09.17.09.37,0,.58l-22.2,43.95c-.17.35-.45.52-.84.52h-6.08c-.26,0-.43-.09-.52-.26Z"/>
  <g>
    <g>
      <path class="cls-1" d="M328.86,39.27c-.12-.14-.18-.28-.18-.44v-7.34c0-.2.06-.35.18-.47.12-.12.25-.18.41-.18h7.63c.2,0,.35.06.47.18.12.12.18.27.18.47v7.34c0,.16-.06.3-.18.44-.12.14-.27.21-.47.21h-7.63c-.16,0-.29-.07-.41-.21Z"/>
      <path class="cls-1" d="M329.4,76.15c-.22,0-.39-.06-.52-.19-.13-.13-.19-.3-.19-.52v-31.71c0-.26.07-.44.19-.55.13-.11.3-.16.52-.16h7.51c.22,0,.38.05.49.16.11.11.16.29.16.55v31.71c0,.22-.05.39-.16.52-.11.13-.27.19-.49.19h-7.51Z"/>
    </g>
    <path class="cls-1" d="M345.9,75.96c-.13-.13-.19-.3-.19-.52v-31.71c0-.26.07-.44.19-.55.13-.11.3-.16.52-.16h7.06c.26,0,.44.05.55.16.11.11.16.29.16.55v4.14h.26c1.12-1.73,2.54-3.04,4.27-3.95,1.73-.91,3.67-1.36,5.83-1.36s4.16.44,5.76,1.33c1.6.88,2.87,2.21,3.82,3.98h.26c1.34-1.68,3-2.99,4.98-3.92,1.98-.93,4.16-1.39,6.54-1.39,3.71,0,6.54,1.24,8.48,3.72,1.94,2.48,2.91,6.14,2.91,10.97v18.19c0,.22-.05.39-.16.52-.11.13-.29.19-.55.19h-7.51c-.17,0-.33-.06-.49-.19s-.23-.3-.23-.52v-18.19c0-2.63-.5-4.57-1.49-5.83-.99-1.25-2.57-1.88-4.72-1.88s-3.68.63-4.69,1.88c-1.01,1.25-1.52,3.19-1.52,5.83v18.19c0,.22-.05.39-.16.52-.11.13-.29.19-.55.19h-7.44c-.22,0-.39-.06-.52-.19-.13-.13-.19-.3-.19-.52v-18.19c0-2.63-.51-4.57-1.52-5.83-1.01-1.25-2.58-1.88-4.69-1.88s-3.74.63-4.76,1.88c-1.01,1.25-1.52,3.19-1.52,5.83v18.19c0,.22-.05.39-.16.52-.11.13-.27.19-.49.19h-7.51c-.22,0-.39-.06-.52-.19Z"/>
    <path class="cls-1" d="M404.99,88.29c-.13-.11-.19-.29-.19-.55v-44.01c0-.26.07-.44.19-.55.13-.11.3-.16.52-.16h7.06c.26,0,.44.05.55.16.11.11.16.29.16.55v4.08h.26c1.04-1.6,2.52-2.87,4.47-3.82,1.94-.95,4.03-1.42,6.28-1.42,2.89,0,5.42.69,7.57,2.07,2.16,1.38,3.82,3.36,4.98,5.92,1.17,2.57,1.75,5.56,1.75,8.96s-.57,6.53-1.71,9.09c-1.14,2.57-2.79,4.54-4.95,5.92-2.16,1.38-4.7,2.07-7.64,2.07-2.07,0-4.03-.47-5.89-1.42-1.86-.95-3.32-2.24-4.4-3.88h-.32v16.44c0,.26-.05.44-.16.55-.11.11-.27.16-.49.16h-7.51c-.22,0-.39-.05-.52-.16ZM425.67,68.61c1.23-.8,2.18-1.97,2.85-3.53.67-1.55,1-3.41,1-5.57s-.33-3.94-1-5.47c-.67-1.53-1.62-2.7-2.85-3.49-1.23-.8-2.69-1.2-4.37-1.2s-3.12.4-4.3,1.2c-1.19.8-2.09,1.96-2.72,3.49-.63,1.53-.94,3.36-.94,5.47s.32,4.01.97,5.57c.65,1.55,1.56,2.73,2.75,3.53,1.19.8,2.6,1.2,4.24,1.2s3.14-.4,4.37-1.2Z"/>
    <path class="cls-1" d="M449.52,74.53c-2.16-1.38-3.81-3.35-4.95-5.92-1.14-2.57-1.71-5.56-1.71-8.96s.57-6.58,1.71-9.13c1.14-2.55,2.79-4.51,4.95-5.89,2.16-1.38,4.68-2.07,7.57-2.07,2.11,0,4.09.48,5.92,1.42,1.83.95,3.31,2.24,4.43,3.88h.26v-4.14c0-.47.24-.71.71-.71h7.51c.22,0,.39.05.52.16.13.11.19.29.19.55v25.95h3.3c.47,0,.71.24.71.71v5.05c0,.48-.24.71-.71.71h-6.41c-1.81,0-3.16-.38-4.04-1.13-.88-.75-1.33-1.89-1.33-3.4v-.26h-.32c-.99,1.6-2.46,2.87-4.4,3.82-1.94.95-4.06,1.42-6.34,1.42-2.89,0-5.42-.69-7.57-2.07ZM464.41,68.61c1.21-.8,2.11-1.96,2.72-3.5.6-1.53.91-3.35.91-5.47s-.31-4.01-.94-5.57c-.63-1.55-1.53-2.73-2.72-3.53-1.19-.8-2.62-1.2-4.3-1.2s-3.14.4-4.37,1.2c-1.23.8-2.17,1.97-2.82,3.53s-.97,3.41-.97,5.57.32,3.94.97,5.47c.65,1.53,1.59,2.7,2.82,3.5,1.23.8,2.69,1.2,4.37,1.2s3.13-.4,4.34-1.2Z"/>
    <path class="cls-1" d="M492.08,74.53c-2.61-1.38-4.62-3.35-6.02-5.92-1.4-2.57-2.1-5.56-2.1-8.96s.72-6.4,2.17-8.96c1.45-2.57,3.47-4.56,6.08-5.99,2.61-1.42,5.62-2.14,9.03-2.14,2.89,0,5.45.49,7.67,1.46,2.22.97,4.02,2.35,5.4,4.14,1.38,1.79,2.22,3.89,2.52,6.31.04.22-.01.4-.16.55-.15.15-.33.23-.55.23h-7.25c-.22,0-.38-.05-.49-.16-.11-.11-.21-.29-.29-.55-.39-1.85-1.14-3.2-2.27-4.05s-2.65-1.26-4.59-1.26c-1.73,0-3.2.41-4.43,1.23-1.23.82-2.17,2.01-2.82,3.56s-.97,3.43-.97,5.63c0,3.28.72,5.81,2.17,7.6,1.45,1.79,3.46,2.69,6.05,2.69,2.03,0,3.62-.42,4.79-1.26s1.96-2.19,2.39-4.04c.09-.43.35-.65.78-.65h7.25c.26,0,.45.05.58.16.13.11.17.25.13.42-.56,3.71-2.23,6.65-5.02,8.8-2.78,2.16-6.42,3.24-10.91,3.24-3.5,0-6.55-.69-9.16-2.07Z"/>
    <path class="cls-1" d="M529.45,73.6c-1.73-1.7-2.59-4.15-2.59-7.35v-16.76h-5.37c-.22,0-.39-.06-.52-.19-.13-.13-.19-.3-.19-.52v-5.05c0-.47.24-.71.71-.71h5.37v-9.06c0-.26.08-.44.23-.55.15-.11.31-.16.49-.16h7.51c.26,0,.44.05.55.16.11.11.16.29.16.55v9.06h7.7c.26,0,.44.05.55.16.11.11.16.29.16.55v5.05c0,.48-.24.71-.71.71h-7.7v20.19h7.7c.26,0,.44.05.55.16.11.11.16.29.16.55v5.05c0,.48-.24.71-.71.71h-6.67c-3.19,0-5.65-.85-7.38-2.56Z"/>
    <path class="cls-1" d="M555.99,74.5c-2.59-1.4-4.6-3.39-6.02-5.95-1.42-2.57-2.14-5.53-2.14-8.9s.71-6.4,2.14-8.96c1.42-2.57,3.43-4.56,6.02-5.99s5.59-2.14,9-2.14,6.41.71,9,2.14,4.61,3.42,6.05,5.99c1.45,2.57,2.17,5.56,2.17,8.96s-.72,6.33-2.17,8.9c-1.45,2.57-3.46,4.55-6.05,5.95-2.59,1.4-5.59,2.1-9,2.1s-6.41-.7-9-2.1ZM569.36,68.74c1.23-.8,2.17-1.97,2.82-3.53.65-1.55.97-3.41.97-5.57s-.32-4.09-.97-5.66c-.65-1.57-1.58-2.76-2.78-3.56-1.21-.8-2.68-1.2-4.4-1.2s-3.19.4-4.4,1.2c-1.21.8-2.12,1.98-2.75,3.56-.63,1.58-.94,3.46-.94,5.66s.31,4.07.94,5.6c.62,1.53,1.54,2.7,2.75,3.5,1.21.8,2.68,1.2,4.4,1.2s3.14-.4,4.37-1.2Z"/>
  </g>
  <polygon class="cls-1" points="36.34 39.87 36.34 56.09 36.34 58.02 36.34 58.02 18.17 58.02 18.17 58.02 18.17 55.73 18.17 39.87 36.34 39.87 36.34 21.73 18.17 21.73 0 21.73 0 39.87 0 55.73 0 58.02 0 75.05 0 76.16 0 94.3 18.17 94.3 18.17 76.16 36.34 76.16 54.51 76.16 54.51 58.02 54.51 56.09 54.51 39.87 36.34 39.87"/>
</svg>