<?xml version="1.0" encoding="UTF-8"?>
<svg id="Layer_1" data-name="Layer 1" xmlns="http://www.w3.org/2000/svg" viewBox="0 0 281.65 143.26">
  <defs>
    <style>
      .cls-1 {
        fill: #ff9ecf;
      }
    </style>
  </defs>
  <path class="cls-1" d="M114.94,52.9h-35.81c.19,2.96,1.01,5.16,2.46,6.61s3.3,2.17,5.55,2.17c3.15,0,5.41-1.41,6.76-4.25h20.17c-.84,3.73-2.46,7.06-4.88,9.99-2.41,2.93-5.45,5.23-9.12,6.9-3.67,1.67-7.72,2.51-12.16,2.51-5.34,0-10.09-1.13-14.24-3.38-4.15-2.25-7.4-5.47-9.75-9.65-2.35-4.18-3.52-9.11-3.52-14.77s1.16-10.57,3.48-14.72c2.32-4.15,5.55-7.35,9.7-9.6,4.15-2.25,8.93-3.38,14.33-3.38s10.07,1.09,14.19,3.28c4.12,2.19,7.34,5.33,9.65,9.41,2.32,4.09,3.48,8.9,3.48,14.43,0,1.48-.1,2.96-.29,4.44ZM95.93,43.73c0-2.32-.77-4.13-2.32-5.45-1.54-1.32-3.47-1.98-5.79-1.98s-4.22.63-5.7,1.88c-1.48,1.25-2.45,3.11-2.9,5.55h16.7Z"/>
  <path class="cls-1" d="M182.51,22.01v54.15h-18.92V22.01h18.92Z"/>
  <path class="cls-1" d="M221.32,37.74h-8.5v38.42h-19.02v-38.42h-5.89v-15.73h5.89v-.48c0-6.95,2.04-12.27,6.13-15.98,4.09-3.7,9.96-5.55,17.62-5.55,1.54,0,2.73.03,3.57.1v16.12c-.52-.06-1.22-.1-2.12-.1-2.06,0-3.57.47-4.54,1.4-.97.93-1.51,2.43-1.64,4.49h8.5v15.73Z"/>
  <path class="cls-1" d="M226.77,34.36c2.03-4.18,4.79-7.4,8.3-9.65,3.51-2.25,7.42-3.38,11.73-3.38,3.73,0,6.95.74,9.65,2.22,2.7,1.48,4.79,3.48,6.27,5.98v-7.53h18.92v54.15h-18.92v-7.53c-1.48,2.51-3.59,4.51-6.32,5.98-2.74,1.48-5.94,2.22-9.6,2.22-4.31,0-8.22-1.13-11.73-3.38-3.51-2.25-6.27-5.49-8.3-9.7-2.03-4.21-3.04-9.12-3.04-14.72s1.01-10.49,3.04-14.67ZM259.88,40.83c-1.9-1.99-4.23-2.99-7-2.99s-5.18.98-7.05,2.94c-1.87,1.96-2.8,4.71-2.8,8.25s.93,6.23,2.8,8.25c1.87,2.03,4.21,3.04,7.05,3.04s5.1-1,7-2.99c1.9-1.99,2.85-4.76,2.85-8.3s-.95-6.21-2.85-8.2Z"/>
  <polygon class="cls-1" points="157.16 21.73 157.16 39.87 140.81 39.87 140.81 76.16 122.64 76.16 122.64 21.73 157.16 21.73"/>
  <polygon class="cls-1" points="36.34 39.87 36.34 58.02 18.17 58.02 18.17 58.02 18.17 57.23 18.17 39.87 36.34 39.87 36.34 21.73 18.17 21.73 0 21.73 0 39.87 0 57.23 0 58.02 0 76.16 0 76.92 0 94.3 18.17 94.3 18.17 76.92 18.17 76.16 18.17 76.16 36.34 76.16 54.51 76.16 54.51 58.77 54.51 58.02 54.51 39.87 36.34 39.87"/>
  <g>
    <path class="cls-1" d="M36.4,132.59c-.07-.15-.07-.31,0-.5l18.87-37.35c.15-.29.39-.44.72-.44h5.17c.22,0,.37.07.44.22.07.15.07.31,0,.5l-18.87,37.35c-.15.29-.39.44-.71.44h-5.17c-.22,0-.37-.07-.44-.22Z"/>
    <g>
      <g>
        <path class="cls-1" d="M66.36,101.47c-.1-.12-.15-.24-.15-.37v-6.24c0-.17.05-.3.15-.4.1-.1.22-.15.35-.15h6.49c.17,0,.3.05.4.15.1.1.15.23.15.4v6.24c0,.13-.05.26-.15.37-.1.12-.23.17-.4.17h-6.49c-.13,0-.25-.06-.35-.17Z"/>
        <path class="cls-1" d="M66.81,132.81c-.18,0-.33-.06-.44-.17-.11-.11-.17-.26-.17-.44v-26.95c0-.22.06-.38.17-.47.11-.09.26-.14.44-.14h6.38c.18,0,.32.05.41.14.09.09.14.25.14.47v26.95c0,.18-.05.33-.14.44-.09.11-.23.17-.41.17h-6.38Z"/>
      </g>
      <path class="cls-1" d="M80.84,132.64c-.11-.11-.17-.26-.17-.44v-26.95c0-.22.06-.38.17-.47.11-.09.26-.14.44-.14h6c.22,0,.38.05.47.14.09.09.14.25.14.47v3.52h.22c.95-1.47,2.16-2.59,3.63-3.36,1.47-.77,3.12-1.16,4.95-1.16s3.54.38,4.89,1.13c1.36.75,2.44,1.88,3.25,3.38h.22c1.14-1.43,2.55-2.54,4.23-3.33,1.69-.79,3.54-1.18,5.56-1.18,3.15,0,5.56,1.05,7.21,3.16,1.65,2.11,2.47,5.22,2.47,9.32v15.46c0,.18-.05.33-.14.44-.09.11-.25.17-.47.17h-6.38c-.15,0-.28-.06-.41-.17s-.19-.26-.19-.44v-15.46c0-2.24-.42-3.89-1.26-4.95-.84-1.06-2.18-1.6-4.02-1.6s-3.13.53-3.99,1.6c-.86,1.06-1.29,2.71-1.29,4.95v15.46c0,.18-.05.33-.14.44-.09.11-.25.17-.47.17h-6.32c-.18,0-.33-.06-.44-.17-.11-.11-.17-.26-.17-.44v-15.46c0-2.24-.43-3.89-1.29-4.95-.86-1.06-2.19-1.6-3.99-1.6s-3.18.53-4.04,1.6c-.86,1.06-1.29,2.71-1.29,4.95v15.46c0,.18-.05.33-.14.44-.09.11-.23.17-.41.17h-6.38c-.18,0-.33-.06-.44-.17Z"/>
      <path class="cls-1" d="M131.05,143.12c-.11-.09-.17-.25-.17-.47v-37.4c0-.22.06-.38.17-.47.11-.09.26-.14.44-.14h6c.22,0,.38.05.47.14.09.09.14.25.14.47v3.47h.22c.88-1.36,2.14-2.44,3.8-3.24,1.65-.81,3.43-1.21,5.33-1.21,2.46,0,4.6.59,6.44,1.76,1.83,1.17,3.24,2.85,4.23,5.03.99,2.18,1.48,4.72,1.48,7.62s-.49,5.55-1.46,7.73c-.97,2.18-2.37,3.86-4.21,5.03-1.83,1.17-4,1.76-6.49,1.76-1.76,0-3.43-.4-5.01-1.21-1.58-.81-2.82-1.91-3.74-3.3h-.28v13.97c0,.22-.05.38-.14.47-.09.09-.23.14-.41.14h-6.38c-.18,0-.33-.05-.44-.14ZM148.63,126.4c1.05-.68,1.85-1.68,2.42-3,.57-1.32.85-2.9.85-4.73s-.28-3.35-.85-4.65c-.57-1.3-1.38-2.29-2.42-2.97-1.04-.68-2.28-1.02-3.71-1.02s-2.65.34-3.66,1.02c-1.01.68-1.78,1.67-2.31,2.97-.53,1.3-.8,2.85-.8,4.65s.27,3.41.82,4.73c.55,1.32,1.33,2.32,2.34,3,1.01.68,2.21,1.02,3.6,1.02s2.67-.34,3.71-1.02Z"/>
      <path class="cls-1" d="M168.9,131.43c-1.83-1.17-3.24-2.85-4.21-5.03-.97-2.18-1.46-4.72-1.46-7.62s.49-5.59,1.46-7.76c.97-2.16,2.37-3.83,4.21-5.01,1.83-1.17,3.98-1.76,6.44-1.76,1.8,0,3.47.4,5.03,1.21,1.56.81,2.81,1.91,3.77,3.3h.22v-3.52c0-.4.2-.6.6-.6h6.38c.18,0,.33.05.44.14.11.09.17.25.17.47v22.06h2.81c.4,0,.6.2.6.6v4.29c0,.4-.2.6-.6.6h-5.44c-1.54,0-2.69-.32-3.44-.96-.75-.64-1.13-1.6-1.13-2.89v-.22h-.27c-.84,1.36-2.09,2.44-3.74,3.25-1.65.81-3.45,1.21-5.39,1.21-2.46,0-4.6-.59-6.44-1.76ZM181.55,126.4c1.03-.68,1.8-1.67,2.31-2.97.51-1.3.77-2.85.77-4.65s-.27-3.41-.8-4.73c-.53-1.32-1.3-2.32-2.31-3-1.01-.68-2.23-1.02-3.66-1.02s-2.67.34-3.71,1.02c-1.04.68-1.84,1.68-2.39,3-.55,1.32-.82,2.9-.82,4.73s.27,3.35.82,4.65c.55,1.3,1.35,2.29,2.39,2.97,1.04.68,2.28,1.02,3.71,1.02s2.66-.34,3.68-1.02Z"/>
      <path class="cls-1" d="M205.06,131.43c-2.22-1.17-3.92-2.85-5.12-5.03-1.19-2.18-1.79-4.72-1.79-7.62s.61-5.44,1.84-7.62c1.23-2.18,2.95-3.88,5.17-5.09,2.22-1.21,4.78-1.82,7.67-1.82,2.46,0,4.63.41,6.52,1.24,1.89.82,3.42,2,4.59,3.52,1.17,1.52,1.89,3.31,2.14,5.36.04.18,0,.34-.14.47-.13.13-.28.19-.47.19h-6.16c-.18,0-.32-.05-.41-.14-.09-.09-.17-.25-.25-.47-.33-1.58-.97-2.72-1.93-3.44s-2.25-1.07-3.9-1.07c-1.47,0-2.72.35-3.77,1.05-1.04.7-1.84,1.71-2.39,3.02-.55,1.32-.82,2.92-.82,4.79,0,2.79.61,4.94,1.84,6.46,1.23,1.52,2.94,2.28,5.14,2.28,1.72,0,3.08-.36,4.07-1.07s1.67-1.86,2.03-3.44c.07-.37.29-.55.66-.55h6.16c.22,0,.39.05.49.14.11.09.15.21.11.36-.48,3.15-1.9,5.65-4.26,7.48-2.37,1.83-5.45,2.75-9.27,2.75-2.97,0-5.56-.59-7.78-1.76Z"/>
      <path class="cls-1" d="M236.82,130.63c-1.47-1.45-2.2-3.53-2.2-6.24v-14.25h-4.57c-.18,0-.33-.06-.44-.17-.11-.11-.17-.26-.17-.44v-4.29c0-.4.2-.6.6-.6h4.57v-7.7c0-.22.06-.38.19-.47.13-.09.27-.14.41-.14h6.38c.22,0,.38.05.47.14.09.09.14.25.14.47v7.7h6.55c.22,0,.38.05.47.14.09.09.14.25.14.47v4.29c0,.4-.2.61-.6.61h-6.55v17.16h6.55c.22,0,.38.05.47.14.09.09.14.25.14.47v4.29c0,.4-.2.6-.6.6h-5.66c-2.71,0-4.8-.72-6.27-2.17Z"/>
      <path class="cls-1" d="M259.37,131.4c-2.2-1.19-3.91-2.88-5.12-5.06-1.21-2.18-1.81-4.7-1.81-7.56s.6-5.44,1.81-7.62c1.21-2.18,2.92-3.88,5.12-5.09,2.2-1.21,4.75-1.82,7.65-1.82s5.45.61,7.65,1.82c2.2,1.21,3.91,2.91,5.14,5.09,1.23,2.18,1.84,4.72,1.84,7.62s-.61,5.38-1.84,7.56c-1.23,2.18-2.94,3.87-5.14,5.06-2.2,1.19-4.75,1.79-7.65,1.79s-5.44-.6-7.65-1.79ZM270.73,126.51c1.04-.68,1.84-1.68,2.39-3,.55-1.32.82-2.9.82-4.73s-.27-3.47-.82-4.81c-.55-1.34-1.34-2.35-2.37-3.02-1.03-.68-2.27-1.02-3.74-1.02s-2.71.34-3.74,1.02c-1.03.68-1.81,1.69-2.34,3.02-.53,1.34-.8,2.94-.8,4.81s.27,3.46.8,4.76c.53,1.3,1.31,2.29,2.34,2.97,1.03.68,2.27,1.02,3.74,1.02s2.67-.34,3.71-1.02Z"/>
    </g>
  </g>
</svg>