<?xml version="1.0" encoding="UTF-8"?>
<svg id="Layer_1" data-name="Layer 1" xmlns="http://www.w3.org/2000/svg" viewBox="0 0 470.54 470.54">
  <defs>
    <style>
      .cls-1 {
        fill: none;
        stroke: #f8fcf8;
        stroke-linecap: round;
        stroke-linejoin: round;
        stroke-width: 2px;
      }
    </style>
  </defs>
  <g>
    <rect class="cls-1" x="1" y="1" width="35.1" height="35.1"/>
    <polygon class="cls-1" points="50.37 17.78 50.37 50.37 36.1 36.1 36.1 1 50.37 17.78"/>
    <polygon class="cls-1" points="50.37 50.37 17.78 50.37 1 36.1 36.1 36.1 50.37 50.37"/>
    <polygon class="cls-1" points="107.85 50.37 75.27 50.37 62.92 36.1 98.02 36.1 107.85 50.37"/>
    <rect class="cls-1" x="62.92" y="1" width="35.11" height="35.1"/>
    <polygon class="cls-1" points="107.85 17.78 107.85 50.37 98.02 36.1 98.02 1 107.85 17.78"/>
    <polygon class="cls-1" points="165.34 50.37 132.75 50.37 124.85 36.1 159.94 36.1 165.34 50.37"/>
    <rect class="cls-1" x="124.85" y="1" width="35.1" height="35.1"/>
    <polygon class="cls-1" points="165.34 17.78 165.34 50.37 159.94 36.1 159.94 1 165.34 17.78"/>
    <polygon class="cls-1" points="222.82 17.78 222.82 50.37 221.86 36.1 221.86 1 222.82 17.78"/>
    <polygon class="cls-1" points="222.82 50.37 190.23 50.37 186.76 36.1 221.86 36.1 222.82 50.37"/>
    <rect class="cls-1" x="186.76" y="1" width="35.1" height="35.1"/>
    <polygon class="cls-1" points="50.37 107.85 17.78 107.85 1 98.02 36.1 98.02 50.37 107.85"/>
    <rect class="cls-1" x="1" y="62.92" width="35.1" height="35.11"/>
    <polygon class="cls-1" points="50.37 75.27 50.37 107.85 36.1 98.02 36.1 62.92 50.37 75.27"/>
    <polygon class="cls-1" points="107.85 107.85 75.27 107.85 62.92 98.02 98.02 98.02 107.85 107.85"/>
    <rect class="cls-1" x="62.92" y="62.92" width="35.11" height="35.11"/>
    <polygon class="cls-1" points="107.85 75.27 107.85 107.85 98.02 98.02 98.02 62.92 107.85 75.27"/>
    <polygon class="cls-1" points="165.34 107.85 132.75 107.85 124.85 98.02 159.94 98.02 165.34 107.85"/>
    <rect class="cls-1" x="124.85" y="62.92" width="35.1" height="35.11"/>
    <polygon class="cls-1" points="165.34 75.27 165.34 107.85 159.94 98.02 159.94 62.92 165.34 75.27"/>
    <polygon class="cls-1" points="222.82 107.85 190.23 107.85 186.76 98.02 221.86 98.02 222.82 107.85"/>
    <rect class="cls-1" x="186.76" y="62.92" width="35.1" height="35.11"/>
    <polygon class="cls-1" points="222.82 75.27 222.82 107.85 221.86 98.02 221.86 62.92 222.82 75.27"/>
    <polygon class="cls-1" points="50.37 165.34 17.78 165.34 1 159.94 36.1 159.94 50.37 165.34"/>
    <rect class="cls-1" x="1" y="124.85" width="35.1" height="35.1"/>
    <polygon class="cls-1" points="50.37 132.75 50.37 165.34 36.1 159.94 36.1 124.85 50.37 132.75"/>
    <polygon class="cls-1" points="107.85 165.34 75.27 165.34 62.92 159.94 98.02 159.94 107.85 165.34"/>
    <polygon class="cls-1" points="107.85 132.75 107.85 165.34 98.02 159.94 98.02 124.85 107.85 132.75"/>
    <rect class="cls-1" x="62.92" y="124.85" width="35.11" height="35.1"/>
    <polygon class="cls-1" points="165.34 165.34 132.75 165.34 124.85 159.94 159.94 159.94 165.34 165.34"/>
    <rect class="cls-1" x="124.85" y="124.85" width="35.1" height="35.1"/>
    <polygon class="cls-1" points="165.34 132.75 165.34 165.34 159.94 159.94 159.94 124.85 165.34 132.75"/>
    <polygon class="cls-1" points="222.82 132.75 222.82 165.34 221.86 159.94 221.86 124.85 222.82 132.75"/>
    <polygon class="cls-1" points="222.82 165.34 190.23 165.34 186.76 159.94 221.86 159.94 222.82 165.34"/>
    <rect class="cls-1" x="186.76" y="124.85" width="35.1" height="35.1"/>
    <polygon class="cls-1" points="50.37 190.23 50.37 222.82 36.1 221.86 36.1 186.76 50.37 190.23"/>
    <polygon class="cls-1" points="50.37 222.82 17.78 222.82 1 221.86 36.1 221.86 50.37 222.82"/>
    <rect class="cls-1" x="1" y="186.76" width="35.1" height="35.11"/>
    <polygon class="cls-1" points="107.85 222.82 75.27 222.82 62.92 221.86 98.02 221.86 107.85 222.82"/>
    <rect class="cls-1" x="62.92" y="186.76" width="35.11" height="35.11"/>
    <polygon class="cls-1" points="107.85 190.23 107.85 222.82 98.02 221.86 98.02 186.76 107.85 190.23"/>
    <polygon class="cls-1" points="165.34 222.82 132.75 222.82 124.85 221.86 159.94 221.86 165.34 222.82"/>
    <rect class="cls-1" x="124.85" y="186.76" width="35.1" height="35.11"/>
    <polygon class="cls-1" points="165.34 190.23 165.34 222.82 159.94 221.86 159.94 186.76 165.34 190.23"/>
    <polygon class="cls-1" points="222.82 190.23 222.82 222.82 221.86 221.86 221.86 186.76 222.82 190.23"/>
    <polygon class="cls-1" points="222.82 222.82 190.23 222.82 186.76 221.86 221.86 221.86 222.82 222.82"/>
    <rect class="cls-1" x="186.76" y="186.76" width="35.1" height="35.11"/>
  </g>
  <g>
    <rect class="cls-1" x="1" y="434.44" width="35.1" height="35.1"/>
    <polygon class="cls-1" points="50.37 452.76 50.37 420.17 36.1 434.44 36.1 469.54 50.37 452.76"/>
    <polygon class="cls-1" points="50.37 420.17 17.78 420.17 1 434.44 36.1 434.44 50.37 420.17"/>
    <polygon class="cls-1" points="107.85 420.17 75.27 420.17 62.92 434.44 98.02 434.44 107.85 420.17"/>
    <rect class="cls-1" x="62.92" y="434.44" width="35.11" height="35.1"/>
    <polygon class="cls-1" points="107.85 452.76 107.85 420.17 98.02 434.44 98.02 469.54 107.85 452.76"/>
    <polygon class="cls-1" points="165.34 420.17 132.75 420.17 124.85 434.44 159.94 434.44 165.34 420.17"/>
    <rect class="cls-1" x="124.85" y="434.44" width="35.1" height="35.1"/>
    <polygon class="cls-1" points="165.34 452.76 165.34 420.17 159.94 434.44 159.94 469.54 165.34 452.76"/>
    <polygon class="cls-1" points="222.82 452.76 222.82 420.17 221.86 434.44 221.86 469.54 222.82 452.76"/>
    <polygon class="cls-1" points="222.82 420.17 190.23 420.17 186.76 434.44 221.86 434.44 222.82 420.17"/>
    <rect class="cls-1" x="186.76" y="434.44" width="35.1" height="35.1"/>
    <polygon class="cls-1" points="50.37 362.69 17.78 362.69 1 372.52 36.1 372.52 50.37 362.69"/>
    <rect class="cls-1" x="1" y="372.52" width="35.1" height="35.11"/>
    <polygon class="cls-1" points="50.37 395.28 50.37 362.69 36.1 372.52 36.1 407.62 50.37 395.28"/>
    <polygon class="cls-1" points="107.85 362.69 75.27 362.69 62.92 372.52 98.02 372.52 107.85 362.69"/>
    <rect class="cls-1" x="62.92" y="372.52" width="35.11" height="35.11"/>
    <polygon class="cls-1" points="107.85 395.28 107.85 362.69 98.02 372.52 98.02 407.62 107.85 395.28"/>
    <polygon class="cls-1" points="165.34 362.69 132.75 362.69 124.85 372.52 159.94 372.52 165.34 362.69"/>
    <rect class="cls-1" x="124.85" y="372.52" width="35.1" height="35.11"/>
    <polygon class="cls-1" points="165.34 395.28 165.34 362.69 159.94 372.52 159.94 407.62 165.34 395.28"/>
    <polygon class="cls-1" points="222.82 362.69 190.23 362.69 186.76 372.52 221.86 372.52 222.82 362.69"/>
    <rect class="cls-1" x="186.76" y="372.52" width="35.1" height="35.11"/>
    <polygon class="cls-1" points="222.82 395.28 222.82 362.69 221.86 372.52 221.86 407.62 222.82 395.28"/>
    <polygon class="cls-1" points="50.37 305.2 17.78 305.2 1 310.6 36.1 310.6 50.37 305.2"/>
    <rect class="cls-1" x="1" y="310.6" width="35.1" height="35.1"/>
    <polygon class="cls-1" points="50.37 337.79 50.37 305.2 36.1 310.6 36.1 345.7 50.37 337.79"/>
    <polygon class="cls-1" points="107.85 305.2 75.27 305.2 62.92 310.6 98.02 310.6 107.85 305.2"/>
    <polygon class="cls-1" points="107.85 337.79 107.85 305.2 98.02 310.6 98.02 345.7 107.85 337.79"/>
    <rect class="cls-1" x="62.92" y="310.6" width="35.11" height="35.1"/>
    <polygon class="cls-1" points="165.34 305.2 132.75 305.2 124.85 310.6 159.94 310.6 165.34 305.2"/>
    <rect class="cls-1" x="124.85" y="310.6" width="35.1" height="35.1"/>
    <polygon class="cls-1" points="165.34 337.79 165.34 305.2 159.94 310.6 159.94 345.7 165.34 337.79"/>
    <polygon class="cls-1" points="222.82 337.79 222.82 305.2 221.86 310.6 221.86 345.7 222.82 337.79"/>
    <polygon class="cls-1" points="222.82 305.2 190.23 305.2 186.76 310.6 221.86 310.6 222.82 305.2"/>
    <rect class="cls-1" x="186.76" y="310.6" width="35.1" height="35.1"/>
    <polygon class="cls-1" points="50.37 280.31 50.37 247.72 36.1 248.68 36.1 283.79 50.37 280.31"/>
    <polygon class="cls-1" points="50.37 247.72 17.78 247.72 1 248.68 36.1 248.68 50.37 247.72"/>
    <rect class="cls-1" x="1" y="248.68" width="35.1" height="35.11"/>
    <polygon class="cls-1" points="107.85 247.72 75.27 247.72 62.92 248.68 98.02 248.68 107.85 247.72"/>
    <rect class="cls-1" x="62.92" y="248.68" width="35.11" height="35.11"/>
    <polygon class="cls-1" points="107.85 280.31 107.85 247.72 98.02 248.68 98.02 283.79 107.85 280.31"/>
    <polygon class="cls-1" points="165.34 247.72 132.75 247.72 124.85 248.68 159.94 248.68 165.34 247.72"/>
    <rect class="cls-1" x="124.85" y="248.68" width="35.1" height="35.11"/>
    <polygon class="cls-1" points="165.34 280.31 165.34 247.72 159.94 248.68 159.94 283.79 165.34 280.31"/>
    <polygon class="cls-1" points="222.82 280.31 222.82 247.72 221.86 248.68 221.86 283.79 222.82 280.31"/>
    <polygon class="cls-1" points="222.82 247.72 190.23 247.72 186.76 248.68 221.86 248.68 222.82 247.72"/>
    <rect class="cls-1" x="186.76" y="248.68" width="35.1" height="35.11"/>
  </g>
  <g>
    <rect class="cls-1" x="434.44" y="434.44" width="35.1" height="35.1"/>
    <polygon class="cls-1" points="420.17 452.76 420.17 420.17 434.44 434.44 434.44 469.54 420.17 452.76"/>
    <polygon class="cls-1" points="420.17 420.17 452.75 420.17 469.54 434.44 434.44 434.44 420.17 420.17"/>
    <polygon class="cls-1" points="362.68 420.17 395.27 420.17 407.62 434.44 372.51 434.44 362.68 420.17"/>
    <rect class="cls-1" x="372.51" y="434.44" width="35.11" height="35.1"/>
    <polygon class="cls-1" points="362.68 452.76 362.68 420.17 372.51 434.44 372.51 469.54 362.68 452.76"/>
    <polygon class="cls-1" points="305.2 420.17 337.78 420.17 345.69 434.44 310.59 434.44 305.2 420.17"/>
    <rect class="cls-1" x="310.59" y="434.44" width="35.1" height="35.1"/>
    <polygon class="cls-1" points="305.2 452.76 305.2 420.17 310.59 434.44 310.59 469.54 305.2 452.76"/>
    <polygon class="cls-1" points="247.72 452.76 247.72 420.17 248.68 434.44 248.68 469.54 247.72 452.76"/>
    <polygon class="cls-1" points="247.72 420.17 280.31 420.17 283.78 434.44 248.68 434.44 247.72 420.17"/>
    <rect class="cls-1" x="248.68" y="434.44" width="35.1" height="35.1"/>
    <polygon class="cls-1" points="420.17 362.69 452.75 362.69 469.54 372.52 434.44 372.52 420.17 362.69"/>
    <rect class="cls-1" x="434.44" y="372.52" width="35.1" height="35.11"/>
    <polygon class="cls-1" points="420.17 395.28 420.17 362.69 434.44 372.52 434.44 407.62 420.17 395.28"/>
    <polygon class="cls-1" points="362.68 362.69 395.27 362.69 407.62 372.52 372.51 372.52 362.68 362.69"/>
    <rect class="cls-1" x="372.51" y="372.52" width="35.11" height="35.11"/>
    <polygon class="cls-1" points="362.68 395.28 362.68 362.69 372.51 372.52 372.51 407.62 362.68 395.28"/>
    <polygon class="cls-1" points="305.2 362.69 337.78 362.69 345.69 372.52 310.59 372.52 305.2 362.69"/>
    <rect class="cls-1" x="310.59" y="372.52" width="35.1" height="35.11"/>
    <polygon class="cls-1" points="305.2 395.28 305.2 362.69 310.59 372.52 310.59 407.62 305.2 395.28"/>
    <polygon class="cls-1" points="247.72 362.69 280.31 362.69 283.78 372.52 248.68 372.52 247.72 362.69"/>
    <rect class="cls-1" x="248.68" y="372.52" width="35.1" height="35.11"/>
    <polygon class="cls-1" points="247.72 395.28 247.72 362.69 248.68 372.52 248.68 407.62 247.72 395.28"/>
    <polygon class="cls-1" points="420.17 305.2 452.75 305.2 469.54 310.6 434.44 310.6 420.17 305.2"/>
    <rect class="cls-1" x="434.44" y="310.6" width="35.1" height="35.1"/>
    <polygon class="cls-1" points="420.17 337.79 420.17 305.2 434.44 310.6 434.44 345.7 420.17 337.79"/>
    <polygon class="cls-1" points="362.68 305.2 395.27 305.2 407.62 310.6 372.51 310.6 362.68 305.2"/>
    <polygon class="cls-1" points="362.68 337.79 362.68 305.2 372.51 310.6 372.51 345.7 362.68 337.79"/>
    <rect class="cls-1" x="372.51" y="310.6" width="35.11" height="35.1"/>
    <polygon class="cls-1" points="305.2 305.2 337.78 305.2 345.69 310.6 310.59 310.6 305.2 305.2"/>
    <rect class="cls-1" x="310.59" y="310.6" width="35.1" height="35.1"/>
    <polygon class="cls-1" points="305.2 337.79 305.2 305.2 310.59 310.6 310.59 345.7 305.2 337.79"/>
    <polygon class="cls-1" points="247.72 337.79 247.72 305.2 248.68 310.6 248.68 345.7 247.72 337.79"/>
    <polygon class="cls-1" points="247.72 305.2 280.31 305.2 283.78 310.6 248.68 310.6 247.72 305.2"/>
    <rect class="cls-1" x="248.68" y="310.6" width="35.1" height="35.1"/>
    <polygon class="cls-1" points="420.17 280.31 420.17 247.72 434.44 248.68 434.44 283.79 420.17 280.31"/>
    <polygon class="cls-1" points="420.17 247.72 452.75 247.72 469.54 248.68 434.44 248.68 420.17 247.72"/>
    <rect class="cls-1" x="434.44" y="248.68" width="35.1" height="35.11"/>
    <polygon class="cls-1" points="362.68 247.72 395.27 247.72 407.62 248.68 372.51 248.68 362.68 247.72"/>
    <rect class="cls-1" x="372.51" y="248.68" width="35.11" height="35.11"/>
    <polygon class="cls-1" points="362.68 280.31 362.68 247.72 372.51 248.68 372.51 283.79 362.68 280.31"/>
    <polygon class="cls-1" points="305.2 247.72 337.78 247.72 345.69 248.68 310.59 248.68 305.2 247.72"/>
    <rect class="cls-1" x="310.59" y="248.68" width="35.1" height="35.11"/>
    <polygon class="cls-1" points="305.2 280.31 305.2 247.72 310.59 248.68 310.59 283.79 305.2 280.31"/>
    <polygon class="cls-1" points="247.72 280.31 247.72 247.72 248.68 248.68 248.68 283.79 247.72 280.31"/>
    <polygon class="cls-1" points="247.72 247.72 280.31 247.72 283.78 248.68 248.68 248.68 247.72 247.72"/>
    <rect class="cls-1" x="248.68" y="248.68" width="35.1" height="35.11"/>
  </g>
  <g>
    <rect class="cls-1" x="434.44" y="1" width="35.1" height="35.1"/>
    <polygon class="cls-1" points="420.17 17.78 420.17 50.37 434.44 36.1 434.44 1 420.17 17.78"/>
    <polygon class="cls-1" points="420.17 50.37 452.75 50.37 469.54 36.1 434.44 36.1 420.17 50.37"/>
    <polygon class="cls-1" points="362.68 50.37 395.27 50.37 407.62 36.1 372.51 36.1 362.68 50.37"/>
    <rect class="cls-1" x="372.51" y="1" width="35.11" height="35.1"/>
    <polygon class="cls-1" points="362.68 17.78 362.68 50.37 372.51 36.1 372.51 1 362.68 17.78"/>
    <polygon class="cls-1" points="305.2 50.37 337.78 50.37 345.69 36.1 310.59 36.1 305.2 50.37"/>
    <rect class="cls-1" x="310.59" y="1" width="35.1" height="35.1"/>
    <polygon class="cls-1" points="305.2 17.78 305.2 50.37 310.59 36.1 310.59 1 305.2 17.78"/>
    <polygon class="cls-1" points="247.72 17.78 247.72 50.37 248.68 36.1 248.68 1 247.72 17.78"/>
    <polygon class="cls-1" points="247.72 50.37 280.31 50.37 283.78 36.1 248.68 36.1 247.72 50.37"/>
    <rect class="cls-1" x="248.68" y="1" width="35.1" height="35.1"/>
    <polygon class="cls-1" points="420.17 107.85 452.75 107.85 469.54 98.02 434.44 98.02 420.17 107.85"/>
    <rect class="cls-1" x="434.44" y="62.92" width="35.1" height="35.11"/>
    <polygon class="cls-1" points="420.17 75.27 420.17 107.85 434.44 98.02 434.44 62.92 420.17 75.27"/>
    <polygon class="cls-1" points="362.68 107.85 395.27 107.85 407.62 98.02 372.51 98.02 362.68 107.85"/>
    <rect class="cls-1" x="372.51" y="62.92" width="35.11" height="35.11"/>
    <polygon class="cls-1" points="362.68 75.27 362.68 107.85 372.51 98.02 372.51 62.92 362.68 75.27"/>
    <polygon class="cls-1" points="305.2 107.85 337.78 107.85 345.69 98.02 310.59 98.02 305.2 107.85"/>
    <rect class="cls-1" x="310.59" y="62.92" width="35.1" height="35.11"/>
    <polygon class="cls-1" points="305.2 75.27 305.2 107.85 310.59 98.02 310.59 62.92 305.2 75.27"/>
    <polygon class="cls-1" points="247.72 107.85 280.31 107.85 283.78 98.02 248.68 98.02 247.72 107.85"/>
    <rect class="cls-1" x="248.68" y="62.92" width="35.1" height="35.11"/>
    <polygon class="cls-1" points="247.72 75.27 247.72 107.85 248.68 98.02 248.68 62.92 247.72 75.27"/>
    <polygon class="cls-1" points="420.17 165.34 452.75 165.34 469.54 159.94 434.44 159.94 420.17 165.34"/>
    <rect class="cls-1" x="434.44" y="124.85" width="35.1" height="35.1"/>
    <polygon class="cls-1" points="420.17 132.75 420.17 165.34 434.44 159.94 434.44 124.85 420.17 132.75"/>
    <polygon class="cls-1" points="362.68 165.34 395.27 165.34 407.62 159.94 372.51 159.94 362.68 165.34"/>
    <polygon class="cls-1" points="362.68 132.75 362.68 165.34 372.51 159.94 372.51 124.85 362.68 132.75"/>
    <rect class="cls-1" x="372.51" y="124.85" width="35.11" height="35.1"/>
    <polygon class="cls-1" points="305.2 165.34 337.78 165.34 345.69 159.94 310.59 159.94 305.2 165.34"/>
    <rect class="cls-1" x="310.59" y="124.85" width="35.1" height="35.1"/>
    <polygon class="cls-1" points="305.2 132.75 305.2 165.34 310.59 159.94 310.59 124.85 305.2 132.75"/>
    <polygon class="cls-1" points="247.72 132.75 247.72 165.34 248.68 159.94 248.68 124.85 247.72 132.75"/>
    <polygon class="cls-1" points="247.72 165.34 280.31 165.34 283.78 159.94 248.68 159.94 247.72 165.34"/>
    <rect class="cls-1" x="248.68" y="124.85" width="35.1" height="35.1"/>
    <polygon class="cls-1" points="420.17 190.23 420.17 222.82 434.44 221.86 434.44 186.76 420.17 190.23"/>
    <polygon class="cls-1" points="420.17 222.82 452.75 222.82 469.54 221.86 434.44 221.86 420.17 222.82"/>
    <rect class="cls-1" x="434.44" y="186.76" width="35.1" height="35.11"/>
    <polygon class="cls-1" points="362.68 222.82 395.27 222.82 407.62 221.86 372.51 221.86 362.68 222.82"/>
    <rect class="cls-1" x="372.51" y="186.76" width="35.11" height="35.11"/>
    <polygon class="cls-1" points="362.68 190.23 362.68 222.82 372.51 221.86 372.51 186.76 362.68 190.23"/>
    <polygon class="cls-1" points="305.2 222.82 337.78 222.82 345.69 221.86 310.59 221.86 305.2 222.82"/>
    <rect class="cls-1" x="310.59" y="186.76" width="35.1" height="35.11"/>
    <polygon class="cls-1" points="305.2 190.23 305.2 222.82 310.59 221.86 310.59 186.76 305.2 190.23"/>
    <polygon class="cls-1" points="247.72 190.23 247.72 222.82 248.68 221.86 248.68 186.76 247.72 190.23"/>
    <polygon class="cls-1" points="247.72 222.82 280.31 222.82 283.78 221.86 248.68 221.86 247.72 222.82"/>
    <rect class="cls-1" x="248.68" y="186.76" width="35.1" height="35.11"/>
  </g>
</svg>