<?xml version="1.0" encoding="UTF-8"?>
<svg id="Layer_1" data-name="Layer 1" xmlns="http://www.w3.org/2000/svg" xmlns:xlink="http://www.w3.org/1999/xlink" viewBox="0 0 518.98 488.93">
  <defs>
    <style>
      .cls-1 {
        fill: none;
      }

      .cls-2 {
        fill: #3c433c;
      }

      .cls-3 {
        clip-path: url(#clippath);
      }
    </style>
    <clipPath id="clippath">
      <rect class="cls-1" width="518.98" height="488.93"/>
    </clipPath>
  </defs>
  <g class="cls-3">
    <g>
      <rect class="cls-2" x="0" y="0" width="6.45" height="6.45"/>
      <rect class="cls-2" x="55.76" y="0" width="6.45" height="6.45"/>
      <rect class="cls-2" x="111.52" y="0" width="6.45" height="6.45"/>
      <rect class="cls-2" x="167.28" y="0" width="6.45" height="6.45"/>
      <rect class="cls-2" x="223.04" y="0" width="6.45" height="6.45"/>
      <rect class="cls-2" x="278.8" y="0" width="6.45" height="6.45"/>
      <rect class="cls-2" x="334.57" y="0" width="6.45" height="6.45"/>
      <rect class="cls-2" x="390.33" y="0" width="6.45" height="6.45"/>
      <rect class="cls-2" x="446.09" y="0" width="6.45" height="6.45"/>
      <rect class="cls-2" x="501.85" y="0" width="6.45" height="6.45"/>
      <rect class="cls-2" x="0" y="55.76" width="6.45" height="6.45"/>
      <rect class="cls-2" x="55.76" y="55.76" width="6.45" height="6.45"/>
      <rect class="cls-2" x="111.52" y="55.76" width="6.45" height="6.45"/>
      <rect class="cls-2" x="167.28" y="55.76" width="6.45" height="6.45"/>
      <rect class="cls-2" x="223.04" y="55.76" width="6.45" height="6.45"/>
      <rect class="cls-2" x="278.8" y="55.76" width="6.45" height="6.45"/>
      <rect class="cls-2" x="334.57" y="55.76" width="6.45" height="6.45"/>
      <rect class="cls-2" x="390.33" y="55.76" width="6.45" height="6.45"/>
      <rect class="cls-2" x="446.09" y="55.76" width="6.45" height="6.45"/>
      <rect class="cls-2" x="501.85" y="55.76" width="6.45" height="6.45"/>
      <rect class="cls-2" x="0" y="111.52" width="6.45" height="6.45"/>
      <rect class="cls-2" x="55.76" y="111.52" width="6.45" height="6.45"/>
      <rect class="cls-2" x="111.52" y="111.52" width="6.45" height="6.45"/>
      <rect class="cls-2" x="167.28" y="111.52" width="6.45" height="6.45"/>
      <rect class="cls-2" x="223.04" y="111.52" width="6.45" height="6.45"/>
      <rect class="cls-2" x="278.8" y="111.52" width="6.45" height="6.45"/>
      <rect class="cls-2" x="334.57" y="111.52" width="6.45" height="6.45"/>
      <rect class="cls-2" x="390.33" y="111.52" width="6.45" height="6.45"/>
      <rect class="cls-2" x="446.09" y="111.52" width="6.45" height="6.45"/>
      <rect class="cls-2" x="501.85" y="111.52" width="6.45" height="6.45"/>
      <rect class="cls-2" x="0" y="167.28" width="6.45" height="6.45"/>
      <rect class="cls-2" x="55.76" y="167.28" width="6.45" height="6.45"/>
      <rect class="cls-2" x="111.52" y="167.28" width="6.45" height="6.45"/>
      <rect class="cls-2" x="167.28" y="167.28" width="6.45" height="6.45"/>
      <rect class="cls-2" x="223.04" y="167.28" width="6.45" height="6.45"/>
      <rect class="cls-2" x="278.8" y="167.28" width="6.45" height="6.45"/>
      <rect class="cls-2" x="334.57" y="167.28" width="6.45" height="6.45"/>
      <rect class="cls-2" x="390.33" y="167.28" width="6.45" height="6.45"/>
      <rect class="cls-2" x="446.09" y="167.28" width="6.45" height="6.45"/>
      <rect class="cls-2" x="501.85" y="167.28" width="6.45" height="6.45"/>
      <rect class="cls-2" x="0" y="223.04" width="6.45" height="6.45"/>
      <rect class="cls-2" x="55.76" y="223.04" width="6.45" height="6.45"/>
      <rect class="cls-2" x="111.52" y="223.04" width="6.45" height="6.45"/>
      <rect class="cls-2" x="167.28" y="223.04" width="6.45" height="6.45"/>
      <rect class="cls-2" x="223.04" y="223.04" width="6.45" height="6.45"/>
      <rect class="cls-2" x="278.8" y="223.04" width="6.45" height="6.45"/>
      <rect class="cls-2" x="334.57" y="223.04" width="6.45" height="6.45"/>
      <rect class="cls-2" x="390.33" y="223.04" width="6.45" height="6.45"/>
      <rect class="cls-2" x="446.09" y="223.04" width="6.45" height="6.45"/>
      <rect class="cls-2" x="501.85" y="223.04" width="6.45" height="6.45"/>
      <rect class="cls-2" x="0" y="278.8" width="6.45" height="6.45"/>
      <rect class="cls-2" x="55.76" y="278.8" width="6.45" height="6.45"/>
      <rect class="cls-2" x="111.52" y="278.8" width="6.45" height="6.45"/>
      <rect class="cls-2" x="167.28" y="278.8" width="6.45" height="6.45"/>
      <rect class="cls-2" x="223.04" y="278.8" width="6.45" height="6.45"/>
      <rect class="cls-2" x="278.8" y="278.8" width="6.45" height="6.45"/>
      <rect class="cls-2" x="334.57" y="278.8" width="6.45" height="6.45"/>
      <rect class="cls-2" x="390.33" y="278.8" width="6.45" height="6.45"/>
      <rect class="cls-2" x="446.09" y="278.8" width="6.45" height="6.45"/>
      <rect class="cls-2" x="501.85" y="278.8" width="6.45" height="6.45"/>
      <rect class="cls-2" x="0" y="334.57" width="6.45" height="6.45"/>
      <rect class="cls-2" x="55.76" y="334.57" width="6.45" height="6.45"/>
      <rect class="cls-2" x="111.52" y="334.57" width="6.45" height="6.45"/>
      <rect class="cls-2" x="167.28" y="334.57" width="6.45" height="6.45"/>
      <rect class="cls-2" x="223.04" y="334.57" width="6.45" height="6.45"/>
      <rect class="cls-2" x="278.8" y="334.57" width="6.45" height="6.45"/>
      <rect class="cls-2" x="334.57" y="334.57" width="6.45" height="6.45"/>
      <rect class="cls-2" x="390.33" y="334.57" width="6.45" height="6.45"/>
      <rect class="cls-2" x="446.09" y="334.57" width="6.45" height="6.45"/>
      <rect class="cls-2" x="501.85" y="334.57" width="6.45" height="6.45"/>
      <rect class="cls-2" x="0" y="390.33" width="6.45" height="6.45"/>
      <rect class="cls-2" x="55.76" y="390.33" width="6.45" height="6.45"/>
      <rect class="cls-2" x="111.52" y="390.33" width="6.45" height="6.45"/>
      <rect class="cls-2" x="167.28" y="390.33" width="6.45" height="6.45"/>
      <rect class="cls-2" x="223.04" y="390.33" width="6.45" height="6.45"/>
      <rect class="cls-2" x="278.8" y="390.33" width="6.45" height="6.45"/>
      <rect class="cls-2" x="334.57" y="390.33" width="6.45" height="6.45"/>
      <rect class="cls-2" x="390.33" y="390.33" width="6.45" height="6.45"/>
      <rect class="cls-2" x="446.09" y="390.33" width="6.45" height="6.45"/>
      <rect class="cls-2" x="501.85" y="390.33" width="6.45" height="6.45"/>
      <rect class="cls-2" x="0" y="446.09" width="6.45" height="6.45"/>
      <rect class="cls-2" x="55.76" y="446.09" width="6.45" height="6.45"/>
      <rect class="cls-2" x="111.52" y="446.09" width="6.45" height="6.45"/>
      <rect class="cls-2" x="167.28" y="446.09" width="6.45" height="6.45"/>
      <rect class="cls-2" x="223.04" y="446.09" width="6.45" height="6.45"/>
      <rect class="cls-2" x="278.8" y="446.09" width="6.45" height="6.45"/>
      <rect class="cls-2" x="334.57" y="446.09" width="6.45" height="6.45"/>
      <rect class="cls-2" x="390.33" y="446.09" width="6.45" height="6.45"/>
      <rect class="cls-2" x="446.09" y="446.09" width="6.45" height="6.45"/>
      <rect class="cls-2" x="501.85" y="446.09" width="6.45" height="6.45"/>
    </g>
  </g>
</svg>