<?xml version="1.0" encoding="UTF-8"?>
<svg id="Layer_1" data-name="Layer 1" xmlns="http://www.w3.org/2000/svg" viewBox="0 0 505.32 473.69">
  <defs>
    <style>
      .cls-1 {
        fill: #ff9ecf;
      }
    </style>
  </defs>
  <g>
    <rect class="cls-1" y="0" width="29.25" height="29.25"/>
    <rect class="cls-1" x="40.73" y="1.06" width="27.14" height="27.14"/>
    <rect class="cls-1" x="81.46" y="2.12" width="25.02" height="25.02"/>
    <rect class="cls-1" x="122.19" y="3.17" width="22.9" height="22.9"/>
    <rect class="cls-1" x="162.92" y="4.23" width="20.79" height="20.79"/>
    <rect class="cls-1" x="203.65" y="5.29" width="18.67" height="18.67"/>
    <rect class="cls-1" x="244.38" y="6.35" width="16.56" height="16.56"/>
    <rect class="cls-1" x="285.11" y="7.41" width="14.44" height="14.44"/>
    <rect class="cls-1" x="325.84" y="8.46" width="12.32" height="12.32"/>
    <rect class="cls-1" x="366.57" y="9.52" width="10.21" height="10.21"/>
    <rect class="cls-1" x="407.3" y="10.58" width="8.09" height="8.09"/>
    <rect class="cls-1" x="448.03" y="11.64" width="5.97" height="5.97"/>
    <rect class="cls-1" x="488.76" y="12.7" width="3.86" height="3.86"/>
  </g>
  <g>
    <rect class="cls-1" x="1.15" y="41.56" width="26.94" height="26.94"/>
    <rect class="cls-1" x="41.69" y="42.42" width="25.21" height="25.21"/>
    <rect class="cls-1" x="82.23" y="43.29" width="23.48" height="23.48"/>
    <rect class="cls-1" x="122.77" y="44.16" width="21.75" height="21.75"/>
    <rect class="cls-1" x="163.31" y="45.02" width="20.02" height="20.02"/>
    <rect class="cls-1" x="203.84" y="45.89" width="18.29" height="18.29"/>
    <rect class="cls-1" x="244.38" y="46.75" width="16.56" height="16.56"/>
    <rect class="cls-1" x="284.92" y="47.62" width="14.82" height="14.82"/>
    <rect class="cls-1" x="325.46" y="48.48" width="13.09" height="13.09"/>
    <rect class="cls-1" x="366" y="49.35" width="11.36" height="11.36"/>
    <rect class="cls-1" x="406.53" y="50.21" width="9.63" height="9.63"/>
    <rect class="cls-1" x="447.07" y="51.08" width="7.9" height="7.9"/>
    <rect class="cls-1" x="487.61" y="51.95" width="6.17" height="6.17"/>
  </g>
  <g>
    <rect class="cls-1" x="2.31" y="83.12" width="24.63" height="24.63"/>
    <rect class="cls-1" x="42.65" y="83.79" width="23.29" height="23.29"/>
    <rect class="cls-1" x="83" y="84.46" width="21.94" height="21.94"/>
    <rect class="cls-1" x="123.35" y="85.14" width="20.59" height="20.59"/>
    <rect class="cls-1" x="163.69" y="85.81" width="19.25" height="19.25"/>
    <rect class="cls-1" x="204.04" y="86.48" width="17.9" height="17.9"/>
    <rect class="cls-1" x="244.38" y="87.16" width="16.56" height="16.56"/>
    <rect class="cls-1" x="284.73" y="87.83" width="15.21" height="15.21"/>
    <rect class="cls-1" x="325.07" y="88.5" width="13.86" height="13.86"/>
    <rect class="cls-1" x="365.42" y="89.18" width="12.52" height="12.52"/>
    <rect class="cls-1" x="405.76" y="89.85" width="11.17" height="11.17"/>
    <rect class="cls-1" x="446.11" y="90.52" width="9.82" height="9.82"/>
    <rect class="cls-1" x="486.46" y="91.2" width="8.48" height="8.48"/>
  </g>
  <g>
    <rect class="cls-1" x="3.46" y="124.67" width="22.33" height="22.33"/>
    <rect class="cls-1" x="43.62" y="125.16" width="21.36" height="21.36"/>
    <rect class="cls-1" x="83.77" y="125.64" width="20.4" height="20.4"/>
    <rect class="cls-1" x="123.92" y="126.12" width="19.44" height="19.44"/>
    <rect class="cls-1" x="164.08" y="126.6" width="18.48" height="18.48"/>
    <rect class="cls-1" x="204.23" y="127.08" width="17.52" height="17.52"/>
    <rect class="cls-1" x="244.38" y="127.56" width="16.56" height="16.56"/>
    <rect class="cls-1" x="284.54" y="128.04" width="15.59" height="15.59"/>
    <rect class="cls-1" x="324.69" y="128.52" width="14.63" height="14.63"/>
    <rect class="cls-1" x="364.84" y="129" width="13.67" height="13.67"/>
    <rect class="cls-1" x="405" y="129.48" width="12.71" height="12.71"/>
    <rect class="cls-1" x="445.15" y="129.96" width="11.75" height="11.75"/>
    <rect class="cls-1" x="485.3" y="130.45" width="10.78" height="10.78"/>
  </g>
  <g>
    <rect class="cls-1" x="4.62" y="166.23" width="20.02" height="20.02"/>
    <rect class="cls-1" x="44.58" y="166.52" width="19.44" height="19.44"/>
    <rect class="cls-1" x="84.54" y="166.81" width="18.86" height="18.86"/>
    <rect class="cls-1" x="124.5" y="167.1" width="18.29" height="18.29"/>
    <rect class="cls-1" x="164.46" y="167.39" width="17.71" height="17.71"/>
    <rect class="cls-1" x="204.42" y="167.68" width="17.13" height="17.13"/>
    <rect class="cls-1" x="244.38" y="167.96" width="16.56" height="16.56"/>
    <rect class="cls-1" x="284.34" y="168.25" width="15.98" height="15.98"/>
    <rect class="cls-1" x="324.3" y="168.54" width="15.4" height="15.4"/>
    <rect class="cls-1" x="364.27" y="168.83" width="14.82" height="14.82"/>
    <rect class="cls-1" x="404.23" y="169.12" width="14.25" height="14.25"/>
    <rect class="cls-1" x="444.19" y="169.41" width="13.67" height="13.67"/>
    <rect class="cls-1" x="484.15" y="169.7" width="13.09" height="13.09"/>
  </g>
  <g>
    <rect class="cls-1" x="5.77" y="207.79" width="17.71" height="17.71"/>
    <rect class="cls-1" x="45.54" y="207.89" width="17.52" height="17.52"/>
    <rect class="cls-1" x="85.31" y="207.98" width="17.32" height="17.32"/>
    <rect class="cls-1" x="125.08" y="208.08" width="17.13" height="17.13"/>
    <rect class="cls-1" x="164.85" y="208.18" width="16.94" height="16.94"/>
    <rect class="cls-1" x="204.61" y="208.27" width="16.75" height="16.75"/>
    <rect class="cls-1" x="244.38" y="208.37" width="16.56" height="16.56"/>
    <rect class="cls-1" x="284.15" y="208.46" width="16.36" height="16.36"/>
    <rect class="cls-1" x="323.92" y="208.56" width="16.17" height="16.17"/>
    <rect class="cls-1" x="363.69" y="208.66" width="15.98" height="15.98"/>
    <rect class="cls-1" x="403.46" y="208.75" width="15.79" height="15.79"/>
    <rect class="cls-1" x="443.23" y="208.85" width="15.59" height="15.59"/>
    <rect class="cls-1" x="482.99" y="208.94" width="15.4" height="15.4"/>
  </g>
  <g>
    <rect class="cls-1" x="6.93" y="249.35" width="15.4" height="15.4"/>
    <rect class="cls-1" x="46.5" y="249.25" width="15.59" height="15.59"/>
    <rect class="cls-1" x="86.08" y="249.16" width="15.79" height="15.79"/>
    <rect class="cls-1" x="125.65" y="249.06" width="15.98" height="15.98"/>
    <rect class="cls-1" x="165.23" y="248.96" width="16.17" height="16.17"/>
    <rect class="cls-1" x="204.81" y="248.87" width="16.36" height="16.36"/>
    <rect class="cls-1" x="244.38" y="248.77" width="16.56" height="16.56"/>
    <rect class="cls-1" x="283.96" y="248.68" width="16.75" height="16.75"/>
    <rect class="cls-1" x="323.53" y="248.58" width="16.94" height="16.94"/>
    <rect class="cls-1" x="363.11" y="248.48" width="17.13" height="17.13"/>
    <rect class="cls-1" x="402.69" y="248.39" width="17.32" height="17.32"/>
    <rect class="cls-1" x="442.26" y="248.29" width="17.52" height="17.52"/>
    <rect class="cls-1" x="481.84" y="248.19" width="17.71" height="17.71"/>
  </g>
  <g>
    <rect class="cls-1" x="8.08" y="290.91" width="13.09" height="13.09"/>
    <rect class="cls-1" x="47.46" y="290.62" width="13.67" height="13.67"/>
    <rect class="cls-1" x="86.85" y="290.33" width="14.25" height="14.25"/>
    <rect class="cls-1" x="126.23" y="290.04" width="14.82" height="14.82"/>
    <rect class="cls-1" x="165.61" y="289.75" width="15.4" height="15.4"/>
    <rect class="cls-1" x="205" y="289.46" width="15.98" height="15.98"/>
    <rect class="cls-1" x="244.38" y="289.18" width="16.56" height="16.56"/>
    <rect class="cls-1" x="283.77" y="288.89" width="17.13" height="17.13"/>
    <rect class="cls-1" x="323.15" y="288.6" width="17.71" height="17.71"/>
    <rect class="cls-1" x="362.53" y="288.31" width="18.29" height="18.29"/>
    <rect class="cls-1" x="401.92" y="288.02" width="18.86" height="18.86"/>
    <rect class="cls-1" x="441.3" y="287.73" width="19.44" height="19.44"/>
    <rect class="cls-1" x="480.69" y="287.44" width="20.02" height="20.02"/>
  </g>
  <g>
    <rect class="cls-1" x="9.23" y="332.47" width="10.78" height="10.78"/>
    <rect class="cls-1" x="48.43" y="331.98" width="11.75" height="11.75"/>
    <rect class="cls-1" x="87.62" y="331.5" width="12.71" height="12.71"/>
    <rect class="cls-1" x="126.81" y="331.02" width="13.67" height="13.67"/>
    <rect class="cls-1" x="166" y="330.54" width="14.63" height="14.63"/>
    <rect class="cls-1" x="205.19" y="330.06" width="15.59" height="15.59"/>
    <rect class="cls-1" x="244.38" y="329.58" width="16.56" height="16.56"/>
    <rect class="cls-1" x="283.57" y="329.1" width="17.52" height="17.52"/>
    <rect class="cls-1" x="322.77" y="328.62" width="18.48" height="18.48"/>
    <rect class="cls-1" x="361.96" y="328.14" width="19.44" height="19.44"/>
    <rect class="cls-1" x="401.15" y="327.66" width="20.4" height="20.4"/>
    <rect class="cls-1" x="440.34" y="327.18" width="21.36" height="21.36"/>
    <rect class="cls-1" x="479.53" y="326.69" width="22.33" height="22.33"/>
  </g>
  <g>
    <rect class="cls-1" x="10.39" y="374.02" width="8.48" height="8.48"/>
    <rect class="cls-1" x="49.39" y="373.35" width="9.82" height="9.82"/>
    <rect class="cls-1" x="88.39" y="372.68" width="11.17" height="11.17"/>
    <rect class="cls-1" x="127.39" y="372" width="12.52" height="12.52"/>
    <rect class="cls-1" x="166.38" y="371.33" width="13.86" height="13.86"/>
    <rect class="cls-1" x="205.38" y="370.66" width="15.21" height="15.21"/>
    <rect class="cls-1" x="244.38" y="369.98" width="16.56" height="16.56"/>
    <rect class="cls-1" x="283.38" y="369.31" width="17.9" height="17.9"/>
    <rect class="cls-1" x="322.38" y="368.64" width="19.25" height="19.25"/>
    <rect class="cls-1" x="361.38" y="367.96" width="20.59" height="20.59"/>
    <rect class="cls-1" x="400.38" y="367.29" width="21.94" height="21.94"/>
    <rect class="cls-1" x="439.38" y="366.62" width="23.29" height="23.29"/>
    <rect class="cls-1" x="478.38" y="365.94" width="24.63" height="24.63"/>
  </g>
  <g>
    <rect class="cls-1" x="11.54" y="415.58" width="6.17" height="6.17"/>
    <rect class="cls-1" x="50.35" y="414.72" width="7.9" height="7.9"/>
    <rect class="cls-1" x="89.16" y="413.85" width="9.63" height="9.63"/>
    <rect class="cls-1" x="127.96" y="412.98" width="11.36" height="11.36"/>
    <rect class="cls-1" x="166.77" y="412.12" width="13.09" height="13.09"/>
    <rect class="cls-1" x="205.58" y="411.25" width="14.82" height="14.82"/>
    <rect class="cls-1" x="244.38" y="410.39" width="16.56" height="16.56"/>
    <rect class="cls-1" x="283.19" y="409.52" width="18.29" height="18.29"/>
    <rect class="cls-1" x="322" y="408.66" width="20.02" height="20.02"/>
    <rect class="cls-1" x="360.8" y="407.79" width="21.75" height="21.75"/>
    <rect class="cls-1" x="399.61" y="406.92" width="23.48" height="23.48"/>
    <rect class="cls-1" x="438.42" y="406.06" width="25.21" height="25.21"/>
    <rect class="cls-1" x="477.22" y="405.19" width="26.94" height="26.94"/>
  </g>
  <g>
    <rect class="cls-1" x="12.7" y="457.14" width="3.86" height="3.86"/>
    <rect class="cls-1" x="51.31" y="456.08" width="5.97" height="5.97"/>
    <rect class="cls-1" x="89.93" y="455.02" width="8.09" height="8.09"/>
    <rect class="cls-1" x="128.54" y="453.97" width="10.21" height="10.21"/>
    <rect class="cls-1" x="167.15" y="452.91" width="12.32" height="12.32"/>
    <rect class="cls-1" x="205.77" y="451.85" width="14.44" height="14.44"/>
    <rect class="cls-1" x="244.38" y="450.79" width="16.56" height="16.56"/>
    <rect class="cls-1" x="283" y="449.73" width="18.67" height="18.67"/>
    <rect class="cls-1" x="321.61" y="448.68" width="20.79" height="20.79"/>
    <rect class="cls-1" x="360.23" y="447.62" width="22.9" height="22.9"/>
    <rect class="cls-1" x="398.84" y="446.56" width="25.02" height="25.02"/>
    <rect class="cls-1" x="437.45" y="445.5" width="27.14" height="27.14"/>
    <rect class="cls-1" x="476.07" y="444.44" width="29.25" height="29.25"/>
  </g>
</svg>