<?xml version="1.0" encoding="UTF-8"?>
<svg id="Layer_1" data-name="Layer 1" xmlns="http://www.w3.org/2000/svg" xmlns:xlink="http://www.w3.org/1999/xlink" viewBox="0 0 618.64 618.66">
  <defs>
    <style>
      .cls-1 {
        fill: none;
      }

      .cls-2 {
        fill: #d7dcd7;
      }

      .cls-3 {
        clip-path: url(#clippath-1);
      }

      .cls-4 {
        clip-path: url(#clippath-2);
      }

      .cls-5 {
        fill: #91938c;
      }

      .cls-6 {
        fill: #e1ffde;
      }

      .cls-7 {
        clip-path: url(#clippath);
      }
    </style>
    <clipPath id="clippath">
      <rect class="cls-1" x="56.24" y="-559.46" width="525.58" height="544.95"/>
    </clipPath>
    <clipPath id="clippath-1">
      <rect class="cls-1" x="56.24" y="51.24" width="525.58" height="544.95"/>
    </clipPath>
    <clipPath id="clippath-2">
      <rect class="cls-1" x="56.24" y="661.94" width="525.58" height="544.95"/>
    </clipPath>
  </defs>
  <g class="cls-7">
    <g>
      <g id="_Grid_Repeat_" data-name="&amp;lt;Grid Repeat&amp;gt;">
        <g>
          <polygon class="cls-5" points="37.49 7.96 37.49 -10.79 18.75 -10.79 18.75 -29.54 37.49 -29.54 37.49 -48.29 56.24 -48.29 56.24 -29.54 56.24 -10.79 56.24 7.96 37.49 7.96"/>
          <rect class="cls-5" y="-10.79" width="18.75" height="18.75"/>
        </g>
      </g>
      <g id="_Grid_Repeat_-2" data-name="&amp;lt;Grid Repeat&amp;gt;">
        <g>
          <polygon class="cls-5" points="74.99 7.96 74.99 -10.79 93.73 -10.79 93.73 -29.54 74.99 -29.54 74.99 -48.29 56.24 -48.29 56.24 -29.54 56.24 -10.79 56.24 7.96 74.99 7.96"/>
          <rect class="cls-5" x="93.73" y="-10.79" width="18.75" height="18.75" transform="translate(206.21 -2.84) rotate(180)"/>
        </g>
      </g>
      <g id="_Grid_Repeat_-3" data-name="&amp;lt;Grid Repeat&amp;gt;">
        <g>
          <polygon class="cls-5" points="149.97 7.96 149.97 -10.79 131.23 -10.79 131.23 -29.54 149.97 -29.54 149.97 -48.29 168.72 -48.29 168.72 -29.54 168.72 -10.79 168.72 7.96 149.97 7.96"/>
          <rect class="cls-5" x="112.48" y="-10.79" width="18.75" height="18.75"/>
        </g>
      </g>
      <g id="_Grid_Repeat_-4" data-name="&amp;lt;Grid Repeat&amp;gt;">
        <g>
          <polygon class="cls-5" points="187.46 7.96 187.46 -10.79 206.21 -10.79 206.21 -29.54 187.46 -29.54 187.46 -48.29 168.72 -48.29 168.72 -29.54 168.72 -10.79 168.72 7.96 187.46 7.96"/>
          <rect class="cls-5" x="206.21" y="-10.79" width="18.75" height="18.75" transform="translate(431.17 -2.84) rotate(180)"/>
        </g>
      </g>
      <g id="_Grid_Repeat_-5" data-name="&amp;lt;Grid Repeat&amp;gt;">
        <g>
          <polygon class="cls-5" points="262.45 7.96 262.45 -10.79 243.7 -10.79 243.7 -29.54 262.45 -29.54 262.45 -48.29 281.2 -48.29 281.2 -29.54 281.2 -10.79 281.2 7.96 262.45 7.96"/>
          <rect class="cls-5" x="224.96" y="-10.79" width="18.75" height="18.75"/>
        </g>
      </g>
      <g id="_Grid_Repeat_-6" data-name="&amp;lt;Grid Repeat&amp;gt;">
        <g>
          <polygon class="cls-5" points="299.94 7.96 299.94 -10.79 318.69 -10.79 318.69 -29.54 299.94 -29.54 299.94 -48.29 281.2 -48.29 281.2 -29.54 281.2 -10.79 281.2 7.96 299.94 7.96"/>
          <rect class="cls-5" x="318.69" y="-10.79" width="18.75" height="18.75" transform="translate(656.13 -2.84) rotate(180)"/>
        </g>
      </g>
      <g id="_Grid_Repeat_-7" data-name="&amp;lt;Grid Repeat&amp;gt;">
        <g>
          <polygon class="cls-5" points="374.93 7.96 374.93 -10.79 356.18 -10.79 356.18 -29.54 374.93 -29.54 374.93 -48.29 393.68 -48.29 393.68 -29.54 393.68 -10.79 393.68 7.96 374.93 7.96"/>
          <rect class="cls-5" x="337.44" y="-10.79" width="18.75" height="18.75"/>
        </g>
      </g>
      <g id="_Grid_Repeat_-8" data-name="&amp;lt;Grid Repeat&amp;gt;">
        <g>
          <polygon class="cls-5" points="412.42 7.96 412.42 -10.79 431.17 -10.79 431.17 -29.54 412.42 -29.54 412.42 -48.29 393.68 -48.29 393.68 -29.54 393.68 -10.79 393.68 7.96 412.42 7.96"/>
          <rect class="cls-5" x="431.17" y="-10.79" width="18.75" height="18.75" transform="translate(881.09 -2.84) rotate(180)"/>
        </g>
      </g>
      <g id="_Grid_Repeat_-9" data-name="&amp;lt;Grid Repeat&amp;gt;">
        <g>
          <polygon class="cls-5" points="487.41 7.96 487.41 -10.79 468.66 -10.79 468.66 -29.54 487.41 -29.54 487.41 -48.29 506.16 -48.29 506.16 -29.54 506.16 -10.79 506.16 7.96 487.41 7.96"/>
          <rect class="cls-5" x="449.92" y="-10.79" width="18.75" height="18.75"/>
        </g>
      </g>
      <g id="_Grid_Repeat_-10" data-name="&amp;lt;Grid Repeat&amp;gt;">
        <g>
          <polygon class="cls-5" points="524.9 7.96 524.9 -10.79 543.65 -10.79 543.65 -29.54 524.9 -29.54 524.9 -48.29 506.16 -48.29 506.16 -29.54 506.16 -10.79 506.16 7.96 524.9 7.96"/>
          <rect class="cls-5" x="543.65" y="-10.79" width="18.75" height="18.75" transform="translate(1106.05 -2.84) rotate(180)"/>
        </g>
      </g>
      <g id="_Grid_Repeat_-11" data-name="&amp;lt;Grid Repeat&amp;gt;">
        <g>
          <polygon class="cls-5" points="599.89 7.96 599.89 -10.79 581.14 -10.79 581.14 -29.54 599.89 -29.54 599.89 -48.29 618.64 -48.29 618.64 -29.54 618.64 -10.79 618.64 7.96 599.89 7.96"/>
          <rect class="cls-5" x="562.4" y="-10.79" width="18.75" height="18.75"/>
        </g>
      </g>
    </g>
  </g>
  <g class="cls-3">
    <g>
      <g id="_Grid_Repeat_-12" data-name="&amp;lt;Grid Repeat&amp;gt;">
        <g>
          <polygon class="cls-2" points="37.49 56.24 37.49 37.5 18.75 37.5 18.75 18.75 37.49 18.75 37.49 0 56.24 0 56.24 18.75 56.24 37.5 56.24 56.24 37.49 56.24"/>
          <rect class="cls-2" width="18.75" height="18.75"/>
          <rect class="cls-2" y="37.5" width="18.75" height="18.75"/>
        </g>
      </g>
      <g id="_Grid_Repeat_-13" data-name="&amp;lt;Grid Repeat&amp;gt;">
        <g>
          <polygon class="cls-2" points="74.99 56.24 74.99 37.5 93.73 37.5 93.73 18.75 74.99 18.75 74.99 0 56.24 0 56.24 18.75 56.24 37.5 56.24 56.24 74.99 56.24"/>
          <rect class="cls-2" x="93.73" width="18.75" height="18.75" transform="translate(206.21 18.75) rotate(180)"/>
          <rect class="cls-2" x="93.73" y="37.5" width="18.75" height="18.75" transform="translate(206.21 93.74) rotate(180)"/>
        </g>
      </g>
      <g id="_Grid_Repeat_-14" data-name="&amp;lt;Grid Repeat&amp;gt;">
        <g>
          <polygon class="cls-2" points="149.97 56.24 149.97 37.5 131.23 37.5 131.23 18.75 149.97 18.75 149.97 0 168.72 0 168.72 18.75 168.72 37.5 168.72 56.24 149.97 56.24"/>
          <rect class="cls-2" x="112.48" width="18.75" height="18.75"/>
          <rect class="cls-2" x="112.48" y="37.5" width="18.75" height="18.75"/>
        </g>
      </g>
      <g id="_Grid_Repeat_-15" data-name="&amp;lt;Grid Repeat&amp;gt;">
        <g>
          <polygon class="cls-2" points="187.46 56.24 187.46 37.5 206.21 37.5 206.21 18.75 187.46 18.75 187.46 0 168.72 0 168.72 18.75 168.72 37.5 168.72 56.24 187.46 56.24"/>
          <rect class="cls-2" x="206.21" width="18.75" height="18.75" transform="translate(431.17 18.75) rotate(180)"/>
          <rect class="cls-2" x="206.21" y="37.5" width="18.75" height="18.75" transform="translate(431.17 93.74) rotate(180)"/>
        </g>
      </g>
      <g id="_Grid_Repeat_-16" data-name="&amp;lt;Grid Repeat&amp;gt;">
        <g>
          <polygon class="cls-2" points="262.45 56.24 262.45 37.5 243.7 37.5 243.7 18.75 262.45 18.75 262.45 0 281.2 0 281.2 18.75 281.2 37.5 281.2 56.24 262.45 56.24"/>
          <rect class="cls-2" x="224.96" width="18.75" height="18.75"/>
          <rect class="cls-2" x="224.96" y="37.5" width="18.75" height="18.75"/>
        </g>
      </g>
      <g id="_Grid_Repeat_-17" data-name="&amp;lt;Grid Repeat&amp;gt;">
        <g>
          <polygon class="cls-2" points="299.94 56.24 299.94 37.5 318.69 37.5 318.69 18.75 299.94 18.75 299.94 0 281.2 0 281.2 18.75 281.2 37.5 281.2 56.24 299.94 56.24"/>
          <rect class="cls-2" x="318.69" width="18.75" height="18.75" transform="translate(656.13 18.75) rotate(180)"/>
          <rect class="cls-2" x="318.69" y="37.5" width="18.75" height="18.75" transform="translate(656.13 93.74) rotate(180)"/>
        </g>
      </g>
      <g id="_Grid_Repeat_-18" data-name="&amp;lt;Grid Repeat&amp;gt;">
        <g>
          <polygon class="cls-2" points="374.93 56.24 374.93 37.5 356.18 37.5 356.18 18.75 374.93 18.75 374.93 0 393.68 0 393.68 18.75 393.68 37.5 393.68 56.24 374.93 56.24"/>
          <rect class="cls-2" x="337.44" width="18.75" height="18.75"/>
          <rect class="cls-2" x="337.44" y="37.5" width="18.75" height="18.75"/>
        </g>
      </g>
      <g id="_Grid_Repeat_-19" data-name="&amp;lt;Grid Repeat&amp;gt;">
        <g>
          <polygon class="cls-2" points="412.42 56.24 412.42 37.5 431.17 37.5 431.17 18.75 412.42 18.75 412.42 0 393.68 0 393.68 18.75 393.68 37.5 393.68 56.24 412.42 56.24"/>
          <rect class="cls-2" x="431.17" width="18.75" height="18.75" transform="translate(881.09 18.75) rotate(180)"/>
          <rect class="cls-2" x="431.17" y="37.5" width="18.75" height="18.75" transform="translate(881.09 93.74) rotate(180)"/>
        </g>
      </g>
      <g id="_Grid_Repeat_-20" data-name="&amp;lt;Grid Repeat&amp;gt;">
        <g>
          <polygon class="cls-2" points="487.41 56.24 487.41 37.5 468.66 37.5 468.66 18.75 487.41 18.75 487.41 0 506.16 0 506.16 18.75 506.16 37.5 506.16 56.24 487.41 56.24"/>
          <rect class="cls-2" x="449.92" width="18.75" height="18.75"/>
          <rect class="cls-2" x="449.92" y="37.5" width="18.75" height="18.75"/>
        </g>
      </g>
      <g id="_Grid_Repeat_-21" data-name="&amp;lt;Grid Repeat&amp;gt;">
        <g>
          <polygon class="cls-2" points="524.9 56.24 524.9 37.5 543.65 37.5 543.65 18.75 524.9 18.75 524.9 0 506.16 0 506.16 18.75 506.16 37.5 506.16 56.24 524.9 56.24"/>
          <rect class="cls-2" x="543.65" width="18.75" height="18.75" transform="translate(1106.05 18.75) rotate(180)"/>
          <rect class="cls-2" x="543.65" y="37.5" width="18.75" height="18.75" transform="translate(1106.05 93.74) rotate(180)"/>
        </g>
      </g>
      <g id="_Grid_Repeat_-22" data-name="&amp;lt;Grid Repeat&amp;gt;">
        <g>
          <polygon class="cls-2" points="599.89 56.24 599.89 37.5 581.14 37.5 581.14 18.75 599.89 18.75 599.89 0 618.64 0 618.64 18.75 618.64 37.5 618.64 56.24 599.89 56.24"/>
          <rect class="cls-2" x="562.4" width="18.75" height="18.75"/>
          <rect class="cls-2" x="562.4" y="37.5" width="18.75" height="18.75"/>
        </g>
      </g>
      <g id="_Grid_Repeat_-23" data-name="&amp;lt;Grid Repeat&amp;gt;">
        <g>
          <polygon class="cls-2" points="46.87 56.24 46.87 74.99 65.61 74.99 65.61 93.74 46.87 93.74 46.87 112.48 28.12 112.48 28.12 93.74 28.12 74.99 28.12 56.24 46.87 56.24"/>
          <rect class="cls-2" x="65.61" y="93.74" width="18.75" height="18.75" transform="translate(149.97 206.22) rotate(180)"/>
          <rect class="cls-2" x="65.61" y="56.24" width="18.75" height="18.75" transform="translate(149.97 131.23) rotate(180)"/>
        </g>
      </g>
      <g id="_Grid_Repeat_-24" data-name="&amp;lt;Grid Repeat&amp;gt;">
        <g>
          <polygon class="cls-2" points="121.85 56.24 121.85 74.99 103.11 74.99 103.11 93.74 121.85 93.74 121.85 112.48 140.6 112.48 140.6 93.74 140.6 74.99 140.6 56.24 121.85 56.24"/>
          <rect class="cls-2" x="84.36" y="93.74" width="18.75" height="18.75"/>
          <rect class="cls-2" x="84.36" y="56.24" width="18.75" height="18.75"/>
        </g>
      </g>
      <g id="_Grid_Repeat_-25" data-name="&amp;lt;Grid Repeat&amp;gt;">
        <g>
          <polygon class="cls-2" points="159.35 56.24 159.35 74.99 178.09 74.99 178.09 93.74 159.35 93.74 159.35 112.48 140.6 112.48 140.6 93.74 140.6 74.99 140.6 56.24 159.35 56.24"/>
          <rect class="cls-2" x="178.09" y="93.74" width="18.75" height="18.75" transform="translate(374.93 206.22) rotate(180)"/>
          <rect class="cls-2" x="178.09" y="56.24" width="18.75" height="18.75" transform="translate(374.93 131.23) rotate(180)"/>
        </g>
      </g>
      <g id="_Grid_Repeat_-26" data-name="&amp;lt;Grid Repeat&amp;gt;">
        <g>
          <polygon class="cls-2" points="234.33 56.24 234.33 74.99 215.59 74.99 215.59 93.74 234.33 93.74 234.33 112.48 253.08 112.48 253.08 93.74 253.08 74.99 253.08 56.24 234.33 56.24"/>
          <rect class="cls-2" x="196.84" y="93.74" width="18.75" height="18.75"/>
          <rect class="cls-2" x="196.84" y="56.24" width="18.75" height="18.75"/>
        </g>
      </g>
      <g id="_Grid_Repeat_-27" data-name="&amp;lt;Grid Repeat&amp;gt;">
        <g>
          <polygon class="cls-2" points="271.83 56.24 271.83 74.99 290.57 74.99 290.57 93.74 271.83 93.74 271.83 112.48 253.08 112.48 253.08 93.74 253.08 74.99 253.08 56.24 271.83 56.24"/>
          <rect class="cls-2" x="290.57" y="93.74" width="18.75" height="18.75" transform="translate(599.89 206.22) rotate(180)"/>
          <rect class="cls-2" x="290.57" y="56.24" width="18.75" height="18.75" transform="translate(599.89 131.23) rotate(180)"/>
        </g>
      </g>
      <g id="_Grid_Repeat_-28" data-name="&amp;lt;Grid Repeat&amp;gt;">
        <g>
          <polygon class="cls-2" points="346.81 56.24 346.81 74.99 328.06 74.99 328.06 93.74 346.81 93.74 346.81 112.48 365.56 112.48 365.56 93.74 365.56 74.99 365.56 56.24 346.81 56.24"/>
          <rect class="cls-2" x="309.32" y="93.74" width="18.75" height="18.75"/>
          <rect class="cls-2" x="309.32" y="56.24" width="18.75" height="18.75"/>
        </g>
      </g>
      <g id="_Grid_Repeat_-29" data-name="&amp;lt;Grid Repeat&amp;gt;">
        <g>
          <polygon class="cls-2" points="384.3 56.24 384.3 74.99 403.05 74.99 403.05 93.74 384.3 93.74 384.3 112.48 365.56 112.48 365.56 93.74 365.56 74.99 365.56 56.24 384.3 56.24"/>
          <rect class="cls-2" x="403.05" y="93.74" width="18.75" height="18.75" transform="translate(824.85 206.22) rotate(180)"/>
          <rect class="cls-2" x="403.05" y="56.24" width="18.75" height="18.75" transform="translate(824.85 131.23) rotate(180)"/>
        </g>
      </g>
      <g id="_Grid_Repeat_-30" data-name="&amp;lt;Grid Repeat&amp;gt;">
        <g>
          <polygon class="cls-2" points="459.29 56.24 459.29 74.99 440.54 74.99 440.54 93.74 459.29 93.74 459.29 112.48 478.04 112.48 478.04 93.74 478.04 74.99 478.04 56.24 459.29 56.24"/>
          <rect class="cls-2" x="421.8" y="93.74" width="18.75" height="18.75"/>
          <rect class="cls-2" x="421.8" y="56.24" width="18.75" height="18.75"/>
        </g>
      </g>
      <g id="_Grid_Repeat_-31" data-name="&amp;lt;Grid Repeat&amp;gt;">
        <g>
          <polygon class="cls-2" points="496.78 56.24 496.78 74.99 515.53 74.99 515.53 93.74 496.78 93.74 496.78 112.48 478.04 112.48 478.04 93.74 478.04 74.99 478.04 56.24 496.78 56.24"/>
          <rect class="cls-2" x="515.53" y="93.74" width="18.75" height="18.75" transform="translate(1049.81 206.22) rotate(180)"/>
          <rect class="cls-2" x="515.53" y="56.24" width="18.75" height="18.75" transform="translate(1049.81 131.23) rotate(180)"/>
        </g>
      </g>
      <g id="_Grid_Repeat_-32" data-name="&amp;lt;Grid Repeat&amp;gt;">
        <g>
          <polygon class="cls-2" points="571.77 56.24 571.77 74.99 553.02 74.99 553.02 93.74 571.77 93.74 571.77 112.48 590.52 112.48 590.52 93.74 590.52 74.99 590.52 56.24 571.77 56.24"/>
          <rect class="cls-2" x="534.28" y="93.74" width="18.75" height="18.75"/>
          <rect class="cls-2" x="534.28" y="56.24" width="18.75" height="18.75"/>
        </g>
      </g>
      <g id="_Grid_Repeat_-33" data-name="&amp;lt;Grid Repeat&amp;gt;">
        <g>
          <polygon class="cls-2" points="37.49 168.72 37.49 149.98 18.75 149.98 18.75 131.23 37.49 131.23 37.49 112.48 56.24 112.48 56.24 131.23 56.24 149.98 56.24 168.72 37.49 168.72"/>
          <rect class="cls-2" y="112.48" width="18.75" height="18.75"/>
          <rect class="cls-2" y="149.98" width="18.75" height="18.75"/>
        </g>
      </g>
      <g id="_Grid_Repeat_-34" data-name="&amp;lt;Grid Repeat&amp;gt;">
        <g>
          <polygon class="cls-2" points="74.99 168.72 74.99 149.98 93.73 149.98 93.73 131.23 74.99 131.23 74.99 112.48 56.24 112.48 56.24 131.23 56.24 149.98 56.24 168.72 74.99 168.72"/>
          <rect class="cls-2" x="93.73" y="112.48" width="18.75" height="18.75" transform="translate(206.21 243.71) rotate(180)"/>
          <rect class="cls-2" x="93.73" y="149.98" width="18.75" height="18.75" transform="translate(206.21 318.7) rotate(180)"/>
        </g>
      </g>
      <g id="_Grid_Repeat_-35" data-name="&amp;lt;Grid Repeat&amp;gt;">
        <g>
          <polygon class="cls-2" points="149.97 168.72 149.97 149.98 131.23 149.98 131.23 131.23 149.97 131.23 149.97 112.48 168.72 112.48 168.72 131.23 168.72 149.98 168.72 168.72 149.97 168.72"/>
          <rect class="cls-2" x="112.48" y="112.48" width="18.75" height="18.75"/>
          <rect class="cls-2" x="112.48" y="149.98" width="18.75" height="18.75"/>
        </g>
      </g>
      <g id="_Grid_Repeat_-36" data-name="&amp;lt;Grid Repeat&amp;gt;">
        <g>
          <polygon class="cls-2" points="187.46 168.72 187.46 149.98 206.21 149.98 206.21 131.23 187.46 131.23 187.46 112.48 168.72 112.48 168.72 131.23 168.72 149.98 168.72 168.72 187.46 168.72"/>
          <rect class="cls-2" x="206.21" y="112.48" width="18.75" height="18.75" transform="translate(431.17 243.71) rotate(180)"/>
          <rect class="cls-2" x="206.21" y="149.98" width="18.75" height="18.75" transform="translate(431.17 318.7) rotate(180)"/>
        </g>
      </g>
      <g id="_Grid_Repeat_-37" data-name="&amp;lt;Grid Repeat&amp;gt;">
        <g>
          <polygon class="cls-2" points="262.45 168.72 262.45 149.98 243.7 149.98 243.7 131.23 262.45 131.23 262.45 112.48 281.2 112.48 281.2 131.23 281.2 149.98 281.2 168.72 262.45 168.72"/>
          <rect class="cls-2" x="224.96" y="112.48" width="18.75" height="18.75"/>
          <rect class="cls-2" x="224.96" y="149.98" width="18.75" height="18.75"/>
        </g>
      </g>
      <g id="_Grid_Repeat_-38" data-name="&amp;lt;Grid Repeat&amp;gt;">
        <g>
          <polygon class="cls-2" points="299.94 168.72 299.94 149.98 318.69 149.98 318.69 131.23 299.94 131.23 299.94 112.48 281.2 112.48 281.2 131.23 281.2 149.98 281.2 168.72 299.94 168.72"/>
          <rect class="cls-2" x="318.69" y="112.48" width="18.75" height="18.75" transform="translate(656.13 243.71) rotate(180)"/>
          <rect class="cls-2" x="318.69" y="149.98" width="18.75" height="18.75" transform="translate(656.13 318.7) rotate(180)"/>
        </g>
      </g>
      <g id="_Grid_Repeat_-39" data-name="&amp;lt;Grid Repeat&amp;gt;">
        <g>
          <polygon class="cls-2" points="374.93 168.72 374.93 149.98 356.18 149.98 356.18 131.23 374.93 131.23 374.93 112.48 393.68 112.48 393.68 131.23 393.68 149.98 393.68 168.72 374.93 168.72"/>
          <rect class="cls-2" x="337.44" y="112.48" width="18.75" height="18.75"/>
          <rect class="cls-2" x="337.44" y="149.98" width="18.75" height="18.75"/>
        </g>
      </g>
      <g id="_Grid_Repeat_-40" data-name="&amp;lt;Grid Repeat&amp;gt;">
        <g>
          <polygon class="cls-2" points="412.42 168.72 412.42 149.98 431.17 149.98 431.17 131.23 412.42 131.23 412.42 112.48 393.68 112.48 393.68 131.23 393.68 149.98 393.68 168.72 412.42 168.72"/>
          <rect class="cls-2" x="431.17" y="112.48" width="18.75" height="18.75" transform="translate(881.09 243.71) rotate(180)"/>
          <rect class="cls-2" x="431.17" y="149.98" width="18.75" height="18.75" transform="translate(881.09 318.7) rotate(180)"/>
        </g>
      </g>
      <g id="_Grid_Repeat_-41" data-name="&amp;lt;Grid Repeat&amp;gt;">
        <g>
          <polygon class="cls-2" points="487.41 168.72 487.41 149.98 468.66 149.98 468.66 131.23 487.41 131.23 487.41 112.48 506.16 112.48 506.16 131.23 506.16 149.98 506.16 168.72 487.41 168.72"/>
          <rect class="cls-2" x="449.92" y="112.48" width="18.75" height="18.75"/>
          <rect class="cls-2" x="449.92" y="149.98" width="18.75" height="18.75"/>
        </g>
      </g>
      <g id="_Grid_Repeat_-42" data-name="&amp;lt;Grid Repeat&amp;gt;">
        <g>
          <polygon class="cls-2" points="524.9 168.72 524.9 149.98 543.65 149.98 543.65 131.23 524.9 131.23 524.9 112.48 506.16 112.48 506.16 131.23 506.16 149.98 506.16 168.72 524.9 168.72"/>
          <rect class="cls-2" x="543.65" y="112.48" width="18.75" height="18.75" transform="translate(1106.05 243.71) rotate(180)"/>
          <rect class="cls-2" x="543.65" y="149.98" width="18.75" height="18.75" transform="translate(1106.05 318.7) rotate(180)"/>
        </g>
      </g>
      <g id="_Grid_Repeat_-43" data-name="&amp;lt;Grid Repeat&amp;gt;">
        <g>
          <polygon class="cls-2" points="599.89 168.72 599.89 149.98 581.14 149.98 581.14 131.23 599.89 131.23 599.89 112.48 618.64 112.48 618.64 131.23 618.64 149.98 618.64 168.72 599.89 168.72"/>
          <rect class="cls-2" x="562.4" y="112.48" width="18.75" height="18.75"/>
          <rect class="cls-2" x="562.4" y="149.98" width="18.75" height="18.75"/>
        </g>
      </g>
      <g id="_Grid_Repeat_-44" data-name="&amp;lt;Grid Repeat&amp;gt;">
        <g>
          <polygon class="cls-2" points="46.87 168.72 46.87 187.47 65.61 187.47 65.61 206.22 46.87 206.22 46.87 224.96 28.12 224.96 28.12 206.22 28.12 187.47 28.12 168.72 46.87 168.72"/>
          <rect class="cls-2" x="65.61" y="206.22" width="18.75" height="18.75" transform="translate(149.97 431.18) rotate(180)"/>
          <rect class="cls-2" x="65.61" y="168.72" width="18.75" height="18.75" transform="translate(149.97 356.19) rotate(180)"/>
        </g>
      </g>
      <g id="_Grid_Repeat_-45" data-name="&amp;lt;Grid Repeat&amp;gt;">
        <g>
          <polygon class="cls-2" points="121.85 168.72 121.85 187.47 103.11 187.47 103.11 206.22 121.85 206.22 121.85 224.96 140.6 224.96 140.6 206.22 140.6 187.47 140.6 168.72 121.85 168.72"/>
          <rect class="cls-2" x="84.36" y="206.22" width="18.75" height="18.75"/>
          <rect class="cls-2" x="84.36" y="168.72" width="18.75" height="18.75"/>
        </g>
      </g>
      <g id="_Grid_Repeat_-46" data-name="&amp;lt;Grid Repeat&amp;gt;">
        <g>
          <polygon class="cls-2" points="159.35 168.72 159.35 187.47 178.09 187.47 178.09 206.22 159.35 206.22 159.35 224.96 140.6 224.96 140.6 206.22 140.6 187.47 140.6 168.72 159.35 168.72"/>
          <rect class="cls-2" x="178.09" y="206.22" width="18.75" height="18.75" transform="translate(374.93 431.18) rotate(180)"/>
          <rect class="cls-2" x="178.09" y="168.72" width="18.75" height="18.75" transform="translate(374.93 356.19) rotate(180)"/>
        </g>
      </g>
      <g id="_Grid_Repeat_-47" data-name="&amp;lt;Grid Repeat&amp;gt;">
        <g>
          <polygon class="cls-2" points="234.33 168.72 234.33 187.47 215.59 187.47 215.59 206.22 234.33 206.22 234.33 224.96 253.08 224.96 253.08 206.22 253.08 187.47 253.08 168.72 234.33 168.72"/>
          <rect class="cls-2" x="196.84" y="206.22" width="18.75" height="18.75"/>
          <rect class="cls-2" x="196.84" y="168.72" width="18.75" height="18.75"/>
        </g>
      </g>
      <g id="_Grid_Repeat_-48" data-name="&amp;lt;Grid Repeat&amp;gt;">
        <g>
          <polygon class="cls-2" points="271.83 168.72 271.83 187.47 290.57 187.47 290.57 206.22 271.83 206.22 271.83 224.96 253.08 224.96 253.08 206.22 253.08 187.47 253.08 168.72 271.83 168.72"/>
          <rect class="cls-2" x="290.57" y="206.22" width="18.75" height="18.75" transform="translate(599.89 431.18) rotate(180)"/>
          <rect class="cls-2" x="290.57" y="168.72" width="18.75" height="18.75" transform="translate(599.89 356.19) rotate(180)"/>
        </g>
      </g>
      <g id="_Grid_Repeat_-49" data-name="&amp;lt;Grid Repeat&amp;gt;">
        <g>
          <polygon class="cls-2" points="346.81 168.72 346.81 187.47 328.06 187.47 328.06 206.22 346.81 206.22 346.81 224.96 365.56 224.96 365.56 206.22 365.56 187.47 365.56 168.72 346.81 168.72"/>
          <rect class="cls-2" x="309.32" y="206.22" width="18.75" height="18.75"/>
          <rect class="cls-2" x="309.32" y="168.72" width="18.75" height="18.75"/>
        </g>
      </g>
      <g id="_Grid_Repeat_-50" data-name="&amp;lt;Grid Repeat&amp;gt;">
        <g>
          <polygon class="cls-2" points="384.3 168.72 384.3 187.47 403.05 187.47 403.05 206.22 384.3 206.22 384.3 224.96 365.56 224.96 365.56 206.22 365.56 187.47 365.56 168.72 384.3 168.72"/>
          <rect class="cls-2" x="403.05" y="206.22" width="18.75" height="18.75" transform="translate(824.85 431.18) rotate(180)"/>
          <rect class="cls-2" x="403.05" y="168.72" width="18.75" height="18.75" transform="translate(824.85 356.19) rotate(180)"/>
        </g>
      </g>
      <g id="_Grid_Repeat_-51" data-name="&amp;lt;Grid Repeat&amp;gt;">
        <g>
          <polygon class="cls-2" points="459.29 168.72 459.29 187.47 440.54 187.47 440.54 206.22 459.29 206.22 459.29 224.96 478.04 224.96 478.04 206.22 478.04 187.47 478.04 168.72 459.29 168.72"/>
          <rect class="cls-2" x="421.8" y="206.22" width="18.75" height="18.75"/>
          <rect class="cls-2" x="421.8" y="168.72" width="18.75" height="18.75"/>
        </g>
      </g>
      <g id="_Grid_Repeat_-52" data-name="&amp;lt;Grid Repeat&amp;gt;">
        <g>
          <polygon class="cls-2" points="496.78 168.72 496.78 187.47 515.53 187.47 515.53 206.22 496.78 206.22 496.78 224.96 478.04 224.96 478.04 206.22 478.04 187.47 478.04 168.72 496.78 168.72"/>
          <rect class="cls-2" x="515.53" y="206.22" width="18.75" height="18.75" transform="translate(1049.81 431.18) rotate(180)"/>
          <rect class="cls-2" x="515.53" y="168.72" width="18.75" height="18.75" transform="translate(1049.81 356.19) rotate(180)"/>
        </g>
      </g>
      <g id="_Grid_Repeat_-53" data-name="&amp;lt;Grid Repeat&amp;gt;">
        <g>
          <polygon class="cls-2" points="571.77 168.72 571.77 187.47 553.02 187.47 553.02 206.22 571.77 206.22 571.77 224.96 590.52 224.96 590.52 206.22 590.52 187.47 590.52 168.72 571.77 168.72"/>
          <rect class="cls-2" x="534.28" y="206.22" width="18.75" height="18.75"/>
          <rect class="cls-2" x="534.28" y="168.72" width="18.75" height="18.75"/>
        </g>
      </g>
      <g id="_Grid_Repeat_-54" data-name="&amp;lt;Grid Repeat&amp;gt;">
        <g>
          <polygon class="cls-2" points="37.49 281.21 37.49 262.46 18.75 262.46 18.75 243.71 37.49 243.71 37.49 224.97 56.24 224.97 56.24 243.71 56.24 262.46 56.24 281.21 37.49 281.21"/>
          <rect class="cls-2" y="224.97" width="18.75" height="18.75"/>
          <rect class="cls-2" y="262.46" width="18.75" height="18.75"/>
        </g>
      </g>
      <g id="_Grid_Repeat_-55" data-name="&amp;lt;Grid Repeat&amp;gt;">
        <g>
          <polygon class="cls-2" points="74.99 281.21 74.99 262.46 93.73 262.46 93.73 243.71 74.99 243.71 74.99 224.97 56.24 224.97 56.24 243.71 56.24 262.46 56.24 281.21 74.99 281.21"/>
          <rect class="cls-2" x="93.73" y="224.97" width="18.75" height="18.75" transform="translate(206.21 468.68) rotate(180)"/>
          <rect class="cls-2" x="93.73" y="262.46" width="18.75" height="18.75" transform="translate(206.21 543.67) rotate(180)"/>
        </g>
      </g>
      <g id="_Grid_Repeat_-56" data-name="&amp;lt;Grid Repeat&amp;gt;">
        <g>
          <polygon class="cls-2" points="149.97 281.21 149.97 262.46 131.23 262.46 131.23 243.71 149.97 243.71 149.97 224.97 168.72 224.97 168.72 243.71 168.72 262.46 168.72 281.21 149.97 281.21"/>
          <rect class="cls-2" x="112.48" y="224.97" width="18.75" height="18.75"/>
          <rect class="cls-2" x="112.48" y="262.46" width="18.75" height="18.75"/>
        </g>
      </g>
      <g id="_Grid_Repeat_-57" data-name="&amp;lt;Grid Repeat&amp;gt;">
        <g>
          <polygon class="cls-2" points="187.46 281.21 187.46 262.46 206.21 262.46 206.21 243.71 187.46 243.71 187.46 224.97 168.72 224.97 168.72 243.71 168.72 262.46 168.72 281.21 187.46 281.21"/>
          <rect class="cls-2" x="206.21" y="224.97" width="18.75" height="18.75" transform="translate(431.17 468.68) rotate(180)"/>
          <rect class="cls-2" x="206.21" y="262.46" width="18.75" height="18.75" transform="translate(431.17 543.67) rotate(180)"/>
        </g>
      </g>
      <g id="_Grid_Repeat_-58" data-name="&amp;lt;Grid Repeat&amp;gt;">
        <g>
          <polygon class="cls-2" points="262.45 281.21 262.45 262.46 243.7 262.46 243.7 243.71 262.45 243.71 262.45 224.97 281.2 224.97 281.2 243.71 281.2 262.46 281.2 281.21 262.45 281.21"/>
          <rect class="cls-2" x="224.96" y="224.97" width="18.75" height="18.75"/>
          <rect class="cls-2" x="224.96" y="262.46" width="18.75" height="18.75"/>
        </g>
      </g>
      <g id="_Grid_Repeat_-59" data-name="&amp;lt;Grid Repeat&amp;gt;">
        <g>
          <polygon class="cls-2" points="299.94 281.21 299.94 262.46 318.69 262.46 318.69 243.71 299.94 243.71 299.94 224.97 281.2 224.97 281.2 243.71 281.2 262.46 281.2 281.21 299.94 281.21"/>
          <rect class="cls-2" x="318.69" y="224.97" width="18.75" height="18.75" transform="translate(656.13 468.68) rotate(180)"/>
          <rect class="cls-2" x="318.69" y="262.46" width="18.75" height="18.75" transform="translate(656.13 543.67) rotate(180)"/>
        </g>
      </g>
      <g id="_Grid_Repeat_-60" data-name="&amp;lt;Grid Repeat&amp;gt;">
        <g>
          <polygon class="cls-2" points="374.93 281.21 374.93 262.46 356.18 262.46 356.18 243.71 374.93 243.71 374.93 224.97 393.68 224.97 393.68 243.71 393.68 262.46 393.68 281.21 374.93 281.21"/>
          <rect class="cls-2" x="337.44" y="224.97" width="18.75" height="18.75"/>
          <rect class="cls-2" x="337.44" y="262.46" width="18.75" height="18.75"/>
        </g>
      </g>
      <g id="_Grid_Repeat_-61" data-name="&amp;lt;Grid Repeat&amp;gt;">
        <g>
          <polygon class="cls-2" points="412.42 281.21 412.42 262.46 431.17 262.46 431.17 243.71 412.42 243.71 412.42 224.97 393.68 224.97 393.68 243.71 393.68 262.46 393.68 281.21 412.42 281.21"/>
          <rect class="cls-2" x="431.17" y="224.97" width="18.75" height="18.75" transform="translate(881.09 468.68) rotate(180)"/>
          <rect class="cls-2" x="431.17" y="262.46" width="18.75" height="18.75" transform="translate(881.09 543.67) rotate(180)"/>
        </g>
      </g>
      <g id="_Grid_Repeat_-62" data-name="&amp;lt;Grid Repeat&amp;gt;">
        <g>
          <polygon class="cls-2" points="487.41 281.21 487.41 262.46 468.66 262.46 468.66 243.71 487.41 243.71 487.41 224.97 506.16 224.97 506.16 243.71 506.16 262.46 506.16 281.21 487.41 281.21"/>
          <rect class="cls-2" x="449.92" y="224.97" width="18.75" height="18.75"/>
          <rect class="cls-2" x="449.92" y="262.46" width="18.75" height="18.75"/>
        </g>
      </g>
      <g id="_Grid_Repeat_-63" data-name="&amp;lt;Grid Repeat&amp;gt;">
        <g>
          <polygon class="cls-2" points="524.9 281.21 524.9 262.46 543.65 262.46 543.65 243.71 524.9 243.71 524.9 224.97 506.16 224.97 506.16 243.71 506.16 262.46 506.16 281.21 524.9 281.21"/>
          <rect class="cls-2" x="543.65" y="224.97" width="18.75" height="18.75" transform="translate(1106.05 468.68) rotate(180)"/>
          <rect class="cls-2" x="543.65" y="262.46" width="18.75" height="18.75" transform="translate(1106.05 543.67) rotate(180)"/>
        </g>
      </g>
      <g id="_Grid_Repeat_-64" data-name="&amp;lt;Grid Repeat&amp;gt;">
        <g>
          <polygon class="cls-2" points="599.89 281.21 599.89 262.46 581.14 262.46 581.14 243.71 599.89 243.71 599.89 224.97 618.64 224.97 618.64 243.71 618.64 262.46 618.64 281.21 599.89 281.21"/>
          <rect class="cls-2" x="562.4" y="224.97" width="18.75" height="18.75"/>
          <rect class="cls-2" x="562.4" y="262.46" width="18.75" height="18.75"/>
        </g>
      </g>
      <g id="_Grid_Repeat_-65" data-name="&amp;lt;Grid Repeat&amp;gt;">
        <g>
          <polygon class="cls-2" points="46.87 281.21 46.87 299.95 65.61 299.95 65.61 318.7 46.87 318.7 46.87 337.45 28.12 337.45 28.12 318.7 28.12 299.95 28.12 281.21 46.87 281.21"/>
          <rect class="cls-2" x="65.61" y="318.7" width="18.75" height="18.75" transform="translate(149.97 656.15) rotate(180)"/>
          <rect class="cls-2" x="65.61" y="281.21" width="18.75" height="18.75" transform="translate(149.97 581.16) rotate(180)"/>
        </g>
      </g>
      <g id="_Grid_Repeat_-66" data-name="&amp;lt;Grid Repeat&amp;gt;">
        <g>
          <polygon class="cls-2" points="121.85 281.21 121.85 299.95 103.11 299.95 103.11 318.7 121.85 318.7 121.85 337.45 140.6 337.45 140.6 318.7 140.6 299.95 140.6 281.21 121.85 281.21"/>
          <rect class="cls-2" x="84.36" y="318.7" width="18.75" height="18.75"/>
          <rect class="cls-2" x="84.36" y="281.21" width="18.75" height="18.75"/>
        </g>
      </g>
      <g id="_Grid_Repeat_-67" data-name="&amp;lt;Grid Repeat&amp;gt;">
        <g>
          <polygon class="cls-2" points="159.35 281.21 159.35 299.95 178.09 299.95 178.09 318.7 159.35 318.7 159.35 337.45 140.6 337.45 140.6 318.7 140.6 299.95 140.6 281.21 159.35 281.21"/>
          <rect class="cls-2" x="178.09" y="318.7" width="18.75" height="18.75" transform="translate(374.93 656.15) rotate(180)"/>
          <rect class="cls-2" x="178.09" y="281.21" width="18.75" height="18.75" transform="translate(374.93 581.16) rotate(180)"/>
        </g>
      </g>
      <g id="_Grid_Repeat_-68" data-name="&amp;lt;Grid Repeat&amp;gt;">
        <g>
          <polygon class="cls-2" points="234.33 281.21 234.33 299.95 215.59 299.95 215.59 318.7 234.33 318.7 234.33 337.45 253.08 337.45 253.08 318.7 253.08 299.95 253.08 281.21 234.33 281.21"/>
          <rect class="cls-2" x="196.84" y="318.7" width="18.75" height="18.75"/>
          <rect class="cls-2" x="196.84" y="281.21" width="18.75" height="18.75"/>
        </g>
      </g>
      <g id="_Grid_Repeat_-69" data-name="&amp;lt;Grid Repeat&amp;gt;">
        <g>
          <polygon class="cls-2" points="271.83 281.21 271.83 299.95 290.57 299.95 290.57 318.7 271.83 318.7 271.83 337.45 253.08 337.45 253.08 318.7 253.08 299.95 253.08 281.21 271.83 281.21"/>
          <rect class="cls-2" x="290.57" y="318.7" width="18.75" height="18.75" transform="translate(599.89 656.15) rotate(180)"/>
          <rect class="cls-2" x="290.57" y="281.21" width="18.75" height="18.75" transform="translate(599.89 581.16) rotate(180)"/>
        </g>
      </g>
      <g id="_Grid_Repeat_-70" data-name="&amp;lt;Grid Repeat&amp;gt;">
        <g>
          <polygon class="cls-2" points="346.81 281.21 346.81 299.95 328.06 299.95 328.06 318.7 346.81 318.7 346.81 337.45 365.56 337.45 365.56 318.7 365.56 299.95 365.56 281.21 346.81 281.21"/>
          <rect class="cls-2" x="309.32" y="318.7" width="18.75" height="18.75"/>
          <rect class="cls-2" x="309.32" y="281.21" width="18.75" height="18.75"/>
        </g>
      </g>
      <g id="_Grid_Repeat_-71" data-name="&amp;lt;Grid Repeat&amp;gt;">
        <g>
          <polygon class="cls-2" points="384.3 281.21 384.3 299.95 403.05 299.95 403.05 318.7 384.3 318.7 384.3 337.45 365.56 337.45 365.56 318.7 365.56 299.95 365.56 281.21 384.3 281.21"/>
          <rect class="cls-2" x="403.05" y="318.7" width="18.75" height="18.75" transform="translate(824.85 656.15) rotate(180)"/>
          <rect class="cls-2" x="403.05" y="281.21" width="18.75" height="18.75" transform="translate(824.85 581.16) rotate(180)"/>
        </g>
      </g>
      <g id="_Grid_Repeat_-72" data-name="&amp;lt;Grid Repeat&amp;gt;">
        <g>
          <polygon class="cls-2" points="459.29 281.21 459.29 299.95 440.54 299.95 440.54 318.7 459.29 318.7 459.29 337.45 478.04 337.45 478.04 318.7 478.04 299.95 478.04 281.21 459.29 281.21"/>
          <rect class="cls-2" x="421.8" y="318.7" width="18.75" height="18.75"/>
          <rect class="cls-2" x="421.8" y="281.21" width="18.75" height="18.75"/>
        </g>
      </g>
      <g id="_Grid_Repeat_-73" data-name="&amp;lt;Grid Repeat&amp;gt;">
        <g>
          <polygon class="cls-2" points="496.78 281.21 496.78 299.95 515.53 299.95 515.53 318.7 496.78 318.7 496.78 337.45 478.04 337.45 478.04 318.7 478.04 299.95 478.04 281.21 496.78 281.21"/>
          <rect class="cls-2" x="515.53" y="318.7" width="18.75" height="18.75" transform="translate(1049.81 656.15) rotate(180)"/>
          <rect class="cls-2" x="515.53" y="281.21" width="18.75" height="18.75" transform="translate(1049.81 581.16) rotate(180)"/>
        </g>
      </g>
      <g id="_Grid_Repeat_-74" data-name="&amp;lt;Grid Repeat&amp;gt;">
        <g>
          <polygon class="cls-2" points="571.77 281.21 571.77 299.95 553.02 299.95 553.02 318.7 571.77 318.7 571.77 337.45 590.52 337.45 590.52 318.7 590.52 299.95 590.52 281.21 571.77 281.21"/>
          <rect class="cls-2" x="534.28" y="318.7" width="18.75" height="18.75"/>
          <rect class="cls-2" x="534.28" y="281.21" width="18.75" height="18.75"/>
        </g>
      </g>
      <g id="_Grid_Repeat_-75" data-name="&amp;lt;Grid Repeat&amp;gt;">
        <g>
          <polygon class="cls-2" points="37.49 393.69 37.49 374.94 18.75 374.94 18.75 356.19 37.49 356.19 37.49 337.45 56.24 337.45 56.24 356.19 56.24 374.94 56.24 393.69 37.49 393.69"/>
          <rect class="cls-2" y="337.45" width="18.75" height="18.75"/>
          <rect class="cls-2" y="374.94" width="18.75" height="18.75"/>
        </g>
      </g>
      <g id="_Grid_Repeat_-76" data-name="&amp;lt;Grid Repeat&amp;gt;">
        <g>
          <polygon class="cls-2" points="74.99 393.69 74.99 374.94 93.73 374.94 93.73 356.19 74.99 356.19 74.99 337.45 56.24 337.45 56.24 356.19 56.24 374.94 56.24 393.69 74.99 393.69"/>
          <rect class="cls-2" x="93.73" y="337.45" width="18.75" height="18.75" transform="translate(206.21 693.64) rotate(180)"/>
          <rect class="cls-2" x="93.73" y="374.94" width="18.75" height="18.75" transform="translate(206.21 768.63) rotate(180)"/>
        </g>
      </g>
      <g id="_Grid_Repeat_-77" data-name="&amp;lt;Grid Repeat&amp;gt;">
        <g>
          <polygon class="cls-2" points="149.97 393.69 149.97 374.94 131.23 374.94 131.23 356.19 149.97 356.19 149.97 337.45 168.72 337.45 168.72 356.19 168.72 374.94 168.72 393.69 149.97 393.69"/>
          <rect class="cls-2" x="112.48" y="337.45" width="18.75" height="18.75"/>
          <rect class="cls-2" x="112.48" y="374.94" width="18.75" height="18.75"/>
        </g>
      </g>
      <g id="_Grid_Repeat_-78" data-name="&amp;lt;Grid Repeat&amp;gt;">
        <g>
          <polygon class="cls-2" points="187.46 393.69 187.46 374.94 206.21 374.94 206.21 356.19 187.46 356.19 187.46 337.45 168.72 337.45 168.72 356.19 168.72 374.94 168.72 393.69 187.46 393.69"/>
          <rect class="cls-2" x="206.21" y="337.45" width="18.75" height="18.75" transform="translate(431.17 693.64) rotate(180)"/>
          <rect class="cls-2" x="206.21" y="374.94" width="18.75" height="18.75" transform="translate(431.17 768.63) rotate(180)"/>
        </g>
      </g>
      <g id="_Grid_Repeat_-79" data-name="&amp;lt;Grid Repeat&amp;gt;">
        <g>
          <polygon class="cls-2" points="262.45 393.69 262.45 374.94 243.7 374.94 243.7 356.19 262.45 356.19 262.45 337.45 281.2 337.45 281.2 356.19 281.2 374.94 281.2 393.69 262.45 393.69"/>
          <rect class="cls-2" x="224.96" y="337.45" width="18.75" height="18.75"/>
          <rect class="cls-2" x="224.96" y="374.94" width="18.75" height="18.75"/>
        </g>
      </g>
      <g id="_Grid_Repeat_-80" data-name="&amp;lt;Grid Repeat&amp;gt;">
        <g>
          <polygon class="cls-2" points="299.94 393.69 299.94 374.94 318.69 374.94 318.69 356.19 299.94 356.19 299.94 337.45 281.2 337.45 281.2 356.19 281.2 374.94 281.2 393.69 299.94 393.69"/>
          <rect class="cls-2" x="318.69" y="337.45" width="18.75" height="18.75" transform="translate(656.13 693.64) rotate(180)"/>
          <rect class="cls-2" x="318.69" y="374.94" width="18.75" height="18.75" transform="translate(656.13 768.63) rotate(180)"/>
        </g>
      </g>
      <g id="_Grid_Repeat_-81" data-name="&amp;lt;Grid Repeat&amp;gt;">
        <g>
          <polygon class="cls-2" points="374.93 393.69 374.93 374.94 356.18 374.94 356.18 356.19 374.93 356.19 374.93 337.45 393.68 337.45 393.68 356.19 393.68 374.94 393.68 393.69 374.93 393.69"/>
          <rect class="cls-2" x="337.44" y="337.45" width="18.75" height="18.75"/>
          <rect class="cls-2" x="337.44" y="374.94" width="18.75" height="18.75"/>
        </g>
      </g>
      <g id="_Grid_Repeat_-82" data-name="&amp;lt;Grid Repeat&amp;gt;">
        <g>
          <polygon class="cls-2" points="412.42 393.69 412.42 374.94 431.17 374.94 431.17 356.19 412.42 356.19 412.42 337.45 393.68 337.45 393.68 356.19 393.68 374.94 393.68 393.69 412.42 393.69"/>
          <rect class="cls-2" x="431.17" y="337.45" width="18.75" height="18.75" transform="translate(881.09 693.64) rotate(180)"/>
          <rect class="cls-2" x="431.17" y="374.94" width="18.75" height="18.75" transform="translate(881.09 768.63) rotate(180)"/>
        </g>
      </g>
      <g id="_Grid_Repeat_-83" data-name="&amp;lt;Grid Repeat&amp;gt;">
        <g>
          <polygon class="cls-2" points="487.41 393.69 487.41 374.94 468.66 374.94 468.66 356.19 487.41 356.19 487.41 337.45 506.16 337.45 506.16 356.19 506.16 374.94 506.16 393.69 487.41 393.69"/>
          <rect class="cls-2" x="449.92" y="337.45" width="18.75" height="18.75"/>
          <rect class="cls-2" x="449.92" y="374.94" width="18.75" height="18.75"/>
        </g>
      </g>
      <g id="_Grid_Repeat_-84" data-name="&amp;lt;Grid Repeat&amp;gt;">
        <g>
          <polygon class="cls-2" points="524.9 393.69 524.9 374.94 543.65 374.94 543.65 356.19 524.9 356.19 524.9 337.45 506.16 337.45 506.16 356.19 506.16 374.94 506.16 393.69 524.9 393.69"/>
          <rect class="cls-2" x="543.65" y="337.45" width="18.75" height="18.75" transform="translate(1106.05 693.64) rotate(180)"/>
          <rect class="cls-2" x="543.65" y="374.94" width="18.75" height="18.75" transform="translate(1106.05 768.63) rotate(180)"/>
        </g>
      </g>
      <g id="_Grid_Repeat_-85" data-name="&amp;lt;Grid Repeat&amp;gt;">
        <g>
          <polygon class="cls-2" points="599.89 393.69 599.89 374.94 581.14 374.94 581.14 356.19 599.89 356.19 599.89 337.45 618.64 337.45 618.64 356.19 618.64 374.94 618.64 393.69 599.89 393.69"/>
          <rect class="cls-2" x="562.4" y="337.45" width="18.75" height="18.75"/>
          <rect class="cls-2" x="562.4" y="374.94" width="18.75" height="18.75"/>
        </g>
      </g>
      <g id="_Grid_Repeat_-86" data-name="&amp;lt;Grid Repeat&amp;gt;">
        <g>
          <polygon class="cls-2" points="46.87 393.69 46.87 412.44 65.61 412.44 65.61 431.19 46.87 431.19 46.87 449.93 28.12 449.93 28.12 431.19 28.12 412.44 28.12 393.69 46.87 393.69"/>
          <rect class="cls-2" x="65.61" y="431.19" width="18.75" height="18.75" transform="translate(149.97 881.12) rotate(180)"/>
          <rect class="cls-2" x="65.61" y="393.69" width="18.75" height="18.75" transform="translate(149.97 806.13) rotate(180)"/>
        </g>
      </g>
      <g id="_Grid_Repeat_-87" data-name="&amp;lt;Grid Repeat&amp;gt;">
        <g>
          <polygon class="cls-2" points="121.85 393.69 121.85 412.44 103.11 412.44 103.11 431.19 121.85 431.19 121.85 449.93 140.6 449.93 140.6 431.19 140.6 412.44 140.6 393.69 121.85 393.69"/>
          <rect class="cls-2" x="84.36" y="431.19" width="18.75" height="18.75"/>
          <rect class="cls-2" x="84.36" y="393.69" width="18.75" height="18.75"/>
        </g>
      </g>
      <g id="_Grid_Repeat_-88" data-name="&amp;lt;Grid Repeat&amp;gt;">
        <g>
          <polygon class="cls-2" points="159.35 393.69 159.35 412.44 178.09 412.44 178.09 431.19 159.35 431.19 159.35 449.93 140.6 449.93 140.6 431.19 140.6 412.44 140.6 393.69 159.35 393.69"/>
          <rect class="cls-2" x="178.09" y="431.19" width="18.75" height="18.75" transform="translate(374.93 881.12) rotate(180)"/>
          <rect class="cls-2" x="178.09" y="393.69" width="18.75" height="18.75" transform="translate(374.93 806.13) rotate(180)"/>
        </g>
      </g>
      <g id="_Grid_Repeat_-89" data-name="&amp;lt;Grid Repeat&amp;gt;">
        <g>
          <polygon class="cls-2" points="234.33 393.69 234.33 412.44 215.59 412.44 215.59 431.19 234.33 431.19 234.33 449.93 253.08 449.93 253.08 431.19 253.08 412.44 253.08 393.69 234.33 393.69"/>
          <rect class="cls-2" x="196.84" y="431.19" width="18.75" height="18.75"/>
          <rect class="cls-2" x="196.84" y="393.69" width="18.75" height="18.75"/>
        </g>
      </g>
      <g id="_Grid_Repeat_-90" data-name="&amp;lt;Grid Repeat&amp;gt;">
        <g>
          <polygon class="cls-2" points="271.83 393.69 271.83 412.44 290.57 412.44 290.57 431.19 271.83 431.19 271.83 449.93 253.08 449.93 253.08 431.19 253.08 412.44 253.08 393.69 271.83 393.69"/>
          <rect class="cls-2" x="290.57" y="431.19" width="18.75" height="18.75" transform="translate(599.89 881.12) rotate(180)"/>
          <rect class="cls-2" x="290.57" y="393.69" width="18.75" height="18.75" transform="translate(599.89 806.13) rotate(180)"/>
        </g>
      </g>
      <g id="_Grid_Repeat_-91" data-name="&amp;lt;Grid Repeat&amp;gt;">
        <g>
          <polygon class="cls-2" points="346.81 393.69 346.81 412.44 328.06 412.44 328.06 431.19 346.81 431.19 346.81 449.93 365.56 449.93 365.56 431.19 365.56 412.44 365.56 393.69 346.81 393.69"/>
          <rect class="cls-2" x="309.32" y="431.19" width="18.75" height="18.75"/>
          <rect class="cls-2" x="309.32" y="393.69" width="18.75" height="18.75"/>
        </g>
      </g>
      <g id="_Grid_Repeat_-92" data-name="&amp;lt;Grid Repeat&amp;gt;">
        <g>
          <polygon class="cls-2" points="384.3 393.69 384.3 412.44 403.05 412.44 403.05 431.19 384.3 431.19 384.3 449.93 365.56 449.93 365.56 431.19 365.56 412.44 365.56 393.69 384.3 393.69"/>
          <rect class="cls-2" x="403.05" y="431.19" width="18.75" height="18.75" transform="translate(824.85 881.12) rotate(180)"/>
          <rect class="cls-2" x="403.05" y="393.69" width="18.75" height="18.75" transform="translate(824.85 806.13) rotate(180)"/>
        </g>
      </g>
      <g id="_Grid_Repeat_-93" data-name="&amp;lt;Grid Repeat&amp;gt;">
        <g>
          <polygon class="cls-2" points="459.29 393.69 459.29 412.44 440.54 412.44 440.54 431.19 459.29 431.19 459.29 449.93 478.04 449.93 478.04 431.19 478.04 412.44 478.04 393.69 459.29 393.69"/>
          <rect class="cls-2" x="421.8" y="431.19" width="18.75" height="18.75"/>
          <rect class="cls-2" x="421.8" y="393.69" width="18.75" height="18.75"/>
        </g>
      </g>
      <g id="_Grid_Repeat_-94" data-name="&amp;lt;Grid Repeat&amp;gt;">
        <g>
          <polygon class="cls-2" points="496.78 393.69 496.78 412.44 515.53 412.44 515.53 431.19 496.78 431.19 496.78 449.93 478.04 449.93 478.04 431.19 478.04 412.44 478.04 393.69 496.78 393.69"/>
          <rect class="cls-2" x="515.53" y="431.19" width="18.75" height="18.75" transform="translate(1049.81 881.12) rotate(180)"/>
          <rect class="cls-2" x="515.53" y="393.69" width="18.75" height="18.75" transform="translate(1049.81 806.13) rotate(180)"/>
        </g>
      </g>
      <g id="_Grid_Repeat_-95" data-name="&amp;lt;Grid Repeat&amp;gt;">
        <g>
          <polygon class="cls-2" points="571.77 393.69 571.77 412.44 553.02 412.44 553.02 431.19 571.77 431.19 571.77 449.93 590.52 449.93 590.52 431.19 590.52 412.44 590.52 393.69 571.77 393.69"/>
          <rect class="cls-2" x="534.28" y="431.19" width="18.75" height="18.75"/>
          <rect class="cls-2" x="534.28" y="393.69" width="18.75" height="18.75"/>
        </g>
      </g>
      <g id="_Grid_Repeat_-96" data-name="&amp;lt;Grid Repeat&amp;gt;">
        <g>
          <polygon class="cls-2" points="37.49 506.17 37.49 487.43 18.75 487.43 18.75 468.68 37.49 468.68 37.49 449.93 56.24 449.93 56.24 468.68 56.24 487.43 56.24 506.17 37.49 506.17"/>
          <rect class="cls-2" y="449.93" width="18.75" height="18.75"/>
          <rect class="cls-2" y="487.43" width="18.75" height="18.75"/>
        </g>
      </g>
      <g id="_Grid_Repeat_-97" data-name="&amp;lt;Grid Repeat&amp;gt;">
        <g>
          <polygon class="cls-2" points="74.99 506.17 74.99 487.43 93.73 487.43 93.73 468.68 74.99 468.68 74.99 449.93 56.24 449.93 56.24 468.68 56.24 487.43 56.24 506.17 74.99 506.17"/>
          <rect class="cls-2" x="93.73" y="449.93" width="18.75" height="18.75" transform="translate(206.21 918.61) rotate(180)"/>
          <rect class="cls-2" x="93.73" y="487.43" width="18.75" height="18.75" transform="translate(206.21 993.6) rotate(180)"/>
        </g>
      </g>
      <g id="_Grid_Repeat_-98" data-name="&amp;lt;Grid Repeat&amp;gt;">
        <g>
          <polygon class="cls-2" points="149.97 506.17 149.97 487.43 131.23 487.43 131.23 468.68 149.97 468.68 149.97 449.93 168.72 449.93 168.72 468.68 168.72 487.43 168.72 506.17 149.97 506.17"/>
          <rect class="cls-2" x="112.48" y="449.93" width="18.75" height="18.75"/>
          <rect class="cls-2" x="112.48" y="487.43" width="18.75" height="18.75"/>
        </g>
      </g>
      <g id="_Grid_Repeat_-99" data-name="&amp;lt;Grid Repeat&amp;gt;">
        <g>
          <polygon class="cls-2" points="187.46 506.17 187.46 487.43 206.21 487.43 206.21 468.68 187.46 468.68 187.46 449.93 168.72 449.93 168.72 468.68 168.72 487.43 168.72 506.17 187.46 506.17"/>
          <rect class="cls-2" x="206.21" y="449.93" width="18.75" height="18.75" transform="translate(431.17 918.61) rotate(180)"/>
          <rect class="cls-2" x="206.21" y="487.43" width="18.75" height="18.75" transform="translate(431.17 993.6) rotate(180)"/>
        </g>
      </g>
      <g id="_Grid_Repeat_-100" data-name="&amp;lt;Grid Repeat&amp;gt;">
        <g>
          <polygon class="cls-2" points="262.45 506.17 262.45 487.43 243.7 487.43 243.7 468.68 262.45 468.68 262.45 449.93 281.2 449.93 281.2 468.68 281.2 487.43 281.2 506.17 262.45 506.17"/>
          <rect class="cls-2" x="224.96" y="449.93" width="18.75" height="18.75"/>
          <rect class="cls-2" x="224.96" y="487.43" width="18.75" height="18.75"/>
        </g>
      </g>
      <g id="_Grid_Repeat_-101" data-name="&amp;lt;Grid Repeat&amp;gt;">
        <g>
          <polygon class="cls-2" points="299.94 506.17 299.94 487.43 318.69 487.43 318.69 468.68 299.94 468.68 299.94 449.93 281.2 449.93 281.2 468.68 281.2 487.43 281.2 506.17 299.94 506.17"/>
          <rect class="cls-2" x="318.69" y="449.93" width="18.75" height="18.75" transform="translate(656.13 918.61) rotate(180)"/>
          <rect class="cls-2" x="318.69" y="487.43" width="18.75" height="18.75" transform="translate(656.13 993.6) rotate(180)"/>
        </g>
      </g>
      <g id="_Grid_Repeat_-102" data-name="&amp;lt;Grid Repeat&amp;gt;">
        <g>
          <polygon class="cls-2" points="374.93 506.17 374.93 487.43 356.18 487.43 356.18 468.68 374.93 468.68 374.93 449.93 393.68 449.93 393.68 468.68 393.68 487.43 393.68 506.17 374.93 506.17"/>
          <rect class="cls-2" x="337.44" y="449.93" width="18.75" height="18.75"/>
          <rect class="cls-2" x="337.44" y="487.43" width="18.75" height="18.75"/>
        </g>
      </g>
      <g id="_Grid_Repeat_-103" data-name="&amp;lt;Grid Repeat&amp;gt;">
        <g>
          <polygon class="cls-2" points="412.42 506.17 412.42 487.43 431.17 487.43 431.17 468.68 412.42 468.68 412.42 449.93 393.68 449.93 393.68 468.68 393.68 487.43 393.68 506.17 412.42 506.17"/>
          <rect class="cls-2" x="431.17" y="449.93" width="18.75" height="18.75" transform="translate(881.09 918.61) rotate(180)"/>
          <rect class="cls-2" x="431.17" y="487.43" width="18.75" height="18.75" transform="translate(881.09 993.6) rotate(180)"/>
        </g>
      </g>
      <g id="_Grid_Repeat_-104" data-name="&amp;lt;Grid Repeat&amp;gt;">
        <g>
          <polygon class="cls-2" points="487.41 506.17 487.41 487.43 468.66 487.43 468.66 468.68 487.41 468.68 487.41 449.93 506.16 449.93 506.16 468.68 506.16 487.43 506.16 506.17 487.41 506.17"/>
          <rect class="cls-2" x="449.92" y="449.93" width="18.75" height="18.75"/>
          <rect class="cls-2" x="449.92" y="487.43" width="18.75" height="18.75"/>
        </g>
      </g>
      <g id="_Grid_Repeat_-105" data-name="&amp;lt;Grid Repeat&amp;gt;">
        <g>
          <polygon class="cls-2" points="524.9 506.17 524.9 487.43 543.65 487.43 543.65 468.68 524.9 468.68 524.9 449.93 506.16 449.93 506.16 468.68 506.16 487.43 506.16 506.17 524.9 506.17"/>
          <rect class="cls-2" x="543.65" y="449.93" width="18.75" height="18.75" transform="translate(1106.05 918.61) rotate(180)"/>
          <rect class="cls-2" x="543.65" y="487.43" width="18.75" height="18.75" transform="translate(1106.05 993.6) rotate(180)"/>
        </g>
      </g>
      <g id="_Grid_Repeat_-106" data-name="&amp;lt;Grid Repeat&amp;gt;">
        <g>
          <polygon class="cls-2" points="599.89 506.17 599.89 487.43 581.14 487.43 581.14 468.68 599.89 468.68 599.89 449.93 618.64 449.93 618.64 468.68 618.64 487.43 618.64 506.17 599.89 506.17"/>
          <rect class="cls-2" x="562.4" y="449.93" width="18.75" height="18.75"/>
          <rect class="cls-2" x="562.4" y="487.43" width="18.75" height="18.75"/>
        </g>
      </g>
      <g id="_Grid_Repeat_-107" data-name="&amp;lt;Grid Repeat&amp;gt;">
        <g>
          <polygon class="cls-2" points="46.87 506.17 46.87 524.92 65.61 524.92 65.61 543.67 46.87 543.67 46.87 562.41 28.12 562.41 28.12 543.67 28.12 524.92 28.12 506.17 46.87 506.17"/>
          <rect class="cls-2" x="65.61" y="543.67" width="18.75" height="18.75" transform="translate(149.97 1106.08) rotate(180)"/>
          <rect class="cls-2" x="65.61" y="506.17" width="18.75" height="18.75" transform="translate(149.97 1031.09) rotate(180)"/>
        </g>
      </g>
      <g id="_Grid_Repeat_-108" data-name="&amp;lt;Grid Repeat&amp;gt;">
        <g>
          <polygon class="cls-2" points="121.85 506.17 121.85 524.92 103.11 524.92 103.11 543.67 121.85 543.67 121.85 562.41 140.6 562.41 140.6 543.67 140.6 524.92 140.6 506.17 121.85 506.17"/>
          <rect class="cls-2" x="84.36" y="543.67" width="18.75" height="18.75"/>
          <rect class="cls-2" x="84.36" y="506.17" width="18.75" height="18.75"/>
        </g>
      </g>
      <g id="_Grid_Repeat_-109" data-name="&amp;lt;Grid Repeat&amp;gt;">
        <g>
          <polygon class="cls-2" points="159.35 506.17 159.35 524.92 178.09 524.92 178.09 543.67 159.35 543.67 159.35 562.41 140.6 562.41 140.6 543.67 140.6 524.92 140.6 506.17 159.35 506.17"/>
          <rect class="cls-2" x="178.09" y="543.67" width="18.75" height="18.75" transform="translate(374.93 1106.08) rotate(180)"/>
          <rect class="cls-2" x="178.09" y="506.17" width="18.75" height="18.75" transform="translate(374.93 1031.09) rotate(180)"/>
        </g>
      </g>
      <g id="_Grid_Repeat_-110" data-name="&amp;lt;Grid Repeat&amp;gt;">
        <g>
          <polygon class="cls-2" points="234.33 506.17 234.33 524.92 215.59 524.92 215.59 543.67 234.33 543.67 234.33 562.41 253.08 562.41 253.08 543.67 253.08 524.92 253.08 506.17 234.33 506.17"/>
          <rect class="cls-2" x="196.84" y="543.67" width="18.75" height="18.75"/>
          <rect class="cls-2" x="196.84" y="506.17" width="18.75" height="18.75"/>
        </g>
      </g>
      <g id="_Grid_Repeat_-111" data-name="&amp;lt;Grid Repeat&amp;gt;">
        <g>
          <polygon class="cls-2" points="271.83 506.17 271.83 524.92 290.57 524.92 290.57 543.67 271.83 543.67 271.83 562.41 253.08 562.41 253.08 543.67 253.08 524.92 253.08 506.17 271.83 506.17"/>
          <rect class="cls-2" x="290.57" y="543.67" width="18.75" height="18.75" transform="translate(599.89 1106.08) rotate(180)"/>
          <rect class="cls-2" x="290.57" y="506.17" width="18.75" height="18.75" transform="translate(599.89 1031.09) rotate(180)"/>
        </g>
      </g>
      <g id="_Grid_Repeat_-112" data-name="&amp;lt;Grid Repeat&amp;gt;">
        <g>
          <polygon class="cls-2" points="346.81 506.17 346.81 524.92 328.06 524.92 328.06 543.67 346.81 543.67 346.81 562.41 365.56 562.41 365.56 543.67 365.56 524.92 365.56 506.17 346.81 506.17"/>
          <rect class="cls-2" x="309.32" y="543.67" width="18.75" height="18.75"/>
          <rect class="cls-2" x="309.32" y="506.17" width="18.75" height="18.75"/>
        </g>
      </g>
      <g id="_Grid_Repeat_-113" data-name="&amp;lt;Grid Repeat&amp;gt;">
        <g>
          <polygon class="cls-2" points="384.3 506.17 384.3 524.92 403.05 524.92 403.05 543.67 384.3 543.67 384.3 562.41 365.56 562.41 365.56 543.67 365.56 524.92 365.56 506.17 384.3 506.17"/>
          <rect class="cls-2" x="403.05" y="543.67" width="18.75" height="18.75" transform="translate(824.85 1106.08) rotate(180)"/>
          <rect class="cls-2" x="403.05" y="506.17" width="18.75" height="18.75" transform="translate(824.85 1031.09) rotate(180)"/>
        </g>
      </g>
      <g id="_Grid_Repeat_-114" data-name="&amp;lt;Grid Repeat&amp;gt;">
        <g>
          <polygon class="cls-2" points="459.29 506.17 459.29 524.92 440.54 524.92 440.54 543.67 459.29 543.67 459.29 562.41 478.04 562.41 478.04 543.67 478.04 524.92 478.04 506.17 459.29 506.17"/>
          <rect class="cls-2" x="421.8" y="543.67" width="18.75" height="18.75"/>
          <rect class="cls-2" x="421.8" y="506.17" width="18.75" height="18.75"/>
        </g>
      </g>
      <g id="_Grid_Repeat_-115" data-name="&amp;lt;Grid Repeat&amp;gt;">
        <g>
          <polygon class="cls-2" points="496.78 506.17 496.78 524.92 515.53 524.92 515.53 543.67 496.78 543.67 496.78 562.41 478.04 562.41 478.04 543.67 478.04 524.92 478.04 506.17 496.78 506.17"/>
          <rect class="cls-2" x="515.53" y="543.67" width="18.75" height="18.75" transform="translate(1049.81 1106.08) rotate(180)"/>
          <rect class="cls-2" x="515.53" y="506.17" width="18.75" height="18.75" transform="translate(1049.81 1031.09) rotate(180)"/>
        </g>
      </g>
      <g id="_Grid_Repeat_-116" data-name="&amp;lt;Grid Repeat&amp;gt;">
        <g>
          <polygon class="cls-2" points="571.77 506.17 571.77 524.92 553.02 524.92 553.02 543.67 571.77 543.67 571.77 562.41 590.52 562.41 590.52 543.67 590.52 524.92 590.52 506.17 571.77 506.17"/>
          <rect class="cls-2" x="534.28" y="543.67" width="18.75" height="18.75"/>
          <rect class="cls-2" x="534.28" y="506.17" width="18.75" height="18.75"/>
        </g>
      </g>
      <g id="_Grid_Repeat_-117" data-name="&amp;lt;Grid Repeat&amp;gt;">
        <g>
          <polygon class="cls-2" points="37.49 618.66 37.49 599.91 18.75 599.91 18.75 581.16 37.49 581.16 37.49 562.41 56.24 562.41 56.24 581.16 56.24 599.91 56.24 618.66 37.49 618.66"/>
          <rect class="cls-2" y="562.41" width="18.75" height="18.75"/>
          <rect class="cls-2" y="599.91" width="18.75" height="18.75"/>
        </g>
      </g>
      <g id="_Grid_Repeat_-118" data-name="&amp;lt;Grid Repeat&amp;gt;">
        <g>
          <polygon class="cls-2" points="74.99 618.66 74.99 599.91 93.73 599.91 93.73 581.16 74.99 581.16 74.99 562.41 56.24 562.41 56.24 581.16 56.24 599.91 56.24 618.66 74.99 618.66"/>
          <rect class="cls-2" x="93.73" y="562.41" width="18.75" height="18.75" transform="translate(206.21 1143.57) rotate(180)"/>
          <rect class="cls-2" x="93.73" y="599.91" width="18.75" height="18.75" transform="translate(206.21 1218.56) rotate(180)"/>
        </g>
      </g>
      <g id="_Grid_Repeat_-119" data-name="&amp;lt;Grid Repeat&amp;gt;">
        <g>
          <polygon class="cls-2" points="149.97 618.66 149.97 599.91 131.23 599.91 131.23 581.16 149.97 581.16 149.97 562.41 168.72 562.41 168.72 581.16 168.72 599.91 168.72 618.66 149.97 618.66"/>
          <rect class="cls-2" x="112.48" y="562.41" width="18.75" height="18.75"/>
          <rect class="cls-2" x="112.48" y="599.91" width="18.75" height="18.75"/>
        </g>
      </g>
      <g id="_Grid_Repeat_-120" data-name="&amp;lt;Grid Repeat&amp;gt;">
        <g>
          <polygon class="cls-2" points="187.46 618.66 187.46 599.91 206.21 599.91 206.21 581.16 187.46 581.16 187.46 562.41 168.72 562.41 168.72 581.16 168.72 599.91 168.72 618.66 187.46 618.66"/>
          <rect class="cls-2" x="206.21" y="562.41" width="18.75" height="18.75" transform="translate(431.17 1143.57) rotate(180)"/>
          <rect class="cls-2" x="206.21" y="599.91" width="18.75" height="18.75" transform="translate(431.17 1218.56) rotate(180)"/>
        </g>
      </g>
      <g id="_Grid_Repeat_-121" data-name="&amp;lt;Grid Repeat&amp;gt;">
        <g>
          <polygon class="cls-2" points="262.45 618.66 262.45 599.91 243.7 599.91 243.7 581.16 262.45 581.16 262.45 562.41 281.2 562.41 281.2 581.16 281.2 599.91 281.2 618.66 262.45 618.66"/>
          <rect class="cls-2" x="224.96" y="562.41" width="18.75" height="18.75"/>
          <rect class="cls-2" x="224.96" y="599.91" width="18.75" height="18.75"/>
        </g>
      </g>
      <g id="_Grid_Repeat_-122" data-name="&amp;lt;Grid Repeat&amp;gt;">
        <g>
          <polygon class="cls-2" points="299.94 618.66 299.94 599.91 318.69 599.91 318.69 581.16 299.94 581.16 299.94 562.41 281.2 562.41 281.2 581.16 281.2 599.91 281.2 618.66 299.94 618.66"/>
          <rect class="cls-2" x="318.69" y="562.41" width="18.75" height="18.75" transform="translate(656.13 1143.57) rotate(180)"/>
          <rect class="cls-2" x="318.69" y="599.91" width="18.75" height="18.75" transform="translate(656.13 1218.56) rotate(180)"/>
        </g>
      </g>
      <g id="_Grid_Repeat_-123" data-name="&amp;lt;Grid Repeat&amp;gt;">
        <g>
          <polygon class="cls-2" points="374.93 618.66 374.93 599.91 356.18 599.91 356.18 581.16 374.93 581.16 374.93 562.41 393.68 562.41 393.68 581.16 393.68 599.91 393.68 618.66 374.93 618.66"/>
          <rect class="cls-2" x="337.44" y="562.41" width="18.75" height="18.75"/>
          <rect class="cls-2" x="337.44" y="599.91" width="18.75" height="18.75"/>
        </g>
      </g>
      <g id="_Grid_Repeat_-124" data-name="&amp;lt;Grid Repeat&amp;gt;">
        <g>
          <polygon class="cls-2" points="412.42 618.66 412.42 599.91 431.17 599.91 431.17 581.16 412.42 581.16 412.42 562.41 393.68 562.41 393.68 581.16 393.68 599.91 393.68 618.66 412.42 618.66"/>
          <rect class="cls-2" x="431.17" y="562.41" width="18.75" height="18.75" transform="translate(881.09 1143.57) rotate(180)"/>
          <rect class="cls-2" x="431.17" y="599.91" width="18.75" height="18.75" transform="translate(881.09 1218.56) rotate(180)"/>
        </g>
      </g>
      <g id="_Grid_Repeat_-125" data-name="&amp;lt;Grid Repeat&amp;gt;">
        <g>
          <polygon class="cls-2" points="487.41 618.66 487.41 599.91 468.66 599.91 468.66 581.16 487.41 581.16 487.41 562.41 506.16 562.41 506.16 581.16 506.16 599.91 506.16 618.66 487.41 618.66"/>
          <rect class="cls-2" x="449.92" y="562.41" width="18.75" height="18.75"/>
          <rect class="cls-2" x="449.92" y="599.91" width="18.75" height="18.75"/>
        </g>
      </g>
      <g id="_Grid_Repeat_-126" data-name="&amp;lt;Grid Repeat&amp;gt;">
        <g>
          <polygon class="cls-2" points="524.9 618.66 524.9 599.91 543.65 599.91 543.65 581.16 524.9 581.16 524.9 562.41 506.16 562.41 506.16 581.16 506.16 599.91 506.16 618.66 524.9 618.66"/>
          <rect class="cls-2" x="543.65" y="562.41" width="18.75" height="18.75" transform="translate(1106.05 1143.57) rotate(180)"/>
          <rect class="cls-2" x="543.65" y="599.91" width="18.75" height="18.75" transform="translate(1106.05 1218.56) rotate(180)"/>
        </g>
      </g>
      <g id="_Grid_Repeat_-127" data-name="&amp;lt;Grid Repeat&amp;gt;">
        <g>
          <polygon class="cls-2" points="599.89 618.66 599.89 599.91 581.14 599.91 581.14 581.16 599.89 581.16 599.89 562.41 618.64 562.41 618.64 581.16 618.64 599.91 618.64 618.66 599.89 618.66"/>
          <rect class="cls-2" x="562.4" y="562.41" width="18.75" height="18.75"/>
          <rect class="cls-2" x="562.4" y="599.91" width="18.75" height="18.75"/>
        </g>
      </g>
    </g>
  </g>
  <g class="cls-4">
    <g>
      <g id="_Grid_Repeat_-128" data-name="&amp;lt;Grid Repeat&amp;gt;">
        <g>
          <polygon class="cls-6" points="37.49 666.94 37.49 648.2 18.75 648.2 18.75 629.45 37.49 629.45 37.49 610.7 56.24 610.7 56.24 629.45 56.24 648.2 56.24 666.94 37.49 666.94"/>
          <rect class="cls-6" y="610.7" width="18.75" height="18.75"/>
        </g>
      </g>
      <g id="_Grid_Repeat_-129" data-name="&amp;lt;Grid Repeat&amp;gt;">
        <g>
          <polygon class="cls-6" points="74.99 666.94 74.99 648.2 93.73 648.2 93.73 629.45 74.99 629.45 74.99 610.7 56.24 610.7 56.24 629.45 56.24 648.2 56.24 666.94 74.99 666.94"/>
          <rect class="cls-6" x="93.73" y="610.7" width="18.75" height="18.75" transform="translate(206.21 1240.15) rotate(180)"/>
        </g>
      </g>
      <g id="_Grid_Repeat_-130" data-name="&amp;lt;Grid Repeat&amp;gt;">
        <g>
          <polygon class="cls-6" points="149.97 666.94 149.97 648.2 131.23 648.2 131.23 629.45 149.97 629.45 149.97 610.7 168.72 610.7 168.72 629.45 168.72 648.2 168.72 666.94 149.97 666.94"/>
          <rect class="cls-6" x="112.48" y="610.7" width="18.75" height="18.75"/>
        </g>
      </g>
      <g id="_Grid_Repeat_-131" data-name="&amp;lt;Grid Repeat&amp;gt;">
        <g>
          <polygon class="cls-6" points="187.46 666.94 187.46 648.2 206.21 648.2 206.21 629.45 187.46 629.45 187.46 610.7 168.72 610.7 168.72 629.45 168.72 648.2 168.72 666.94 187.46 666.94"/>
          <rect class="cls-6" x="206.21" y="610.7" width="18.75" height="18.75" transform="translate(431.17 1240.15) rotate(180)"/>
        </g>
      </g>
      <g id="_Grid_Repeat_-132" data-name="&amp;lt;Grid Repeat&amp;gt;">
        <g>
          <polygon class="cls-6" points="262.45 666.94 262.45 648.2 243.7 648.2 243.7 629.45 262.45 629.45 262.45 610.7 281.2 610.7 281.2 629.45 281.2 648.2 281.2 666.94 262.45 666.94"/>
          <rect class="cls-6" x="224.96" y="610.7" width="18.75" height="18.75"/>
        </g>
      </g>
      <g id="_Grid_Repeat_-133" data-name="&amp;lt;Grid Repeat&amp;gt;">
        <g>
          <polygon class="cls-6" points="299.94 666.94 299.94 648.2 318.69 648.2 318.69 629.45 299.94 629.45 299.94 610.7 281.2 610.7 281.2 629.45 281.2 648.2 281.2 666.94 299.94 666.94"/>
          <rect class="cls-6" x="318.69" y="610.7" width="18.75" height="18.75" transform="translate(656.13 1240.15) rotate(180)"/>
        </g>
      </g>
      <g id="_Grid_Repeat_-134" data-name="&amp;lt;Grid Repeat&amp;gt;">
        <g>
          <polygon class="cls-6" points="374.93 666.94 374.93 648.2 356.18 648.2 356.18 629.45 374.93 629.45 374.93 610.7 393.68 610.7 393.68 629.45 393.68 648.2 393.68 666.94 374.93 666.94"/>
          <rect class="cls-6" x="337.44" y="610.7" width="18.75" height="18.75"/>
        </g>
      </g>
      <g id="_Grid_Repeat_-135" data-name="&amp;lt;Grid Repeat&amp;gt;">
        <g>
          <polygon class="cls-6" points="412.42 666.94 412.42 648.2 431.17 648.2 431.17 629.45 412.42 629.45 412.42 610.7 393.68 610.7 393.68 629.45 393.68 648.2 393.68 666.94 412.42 666.94"/>
          <rect class="cls-6" x="431.17" y="610.7" width="18.75" height="18.75" transform="translate(881.09 1240.15) rotate(180)"/>
        </g>
      </g>
      <g id="_Grid_Repeat_-136" data-name="&amp;lt;Grid Repeat&amp;gt;">
        <g>
          <polygon class="cls-6" points="487.41 666.94 487.41 648.2 468.66 648.2 468.66 629.45 487.41 629.45 487.41 610.7 506.16 610.7 506.16 629.45 506.16 648.2 506.16 666.94 487.41 666.94"/>
          <rect class="cls-6" x="449.92" y="610.7" width="18.75" height="18.75"/>
        </g>
      </g>
      <g id="_Grid_Repeat_-137" data-name="&amp;lt;Grid Repeat&amp;gt;">
        <g>
          <polygon class="cls-6" points="524.9 666.94 524.9 648.2 543.65 648.2 543.65 629.45 524.9 629.45 524.9 610.7 506.16 610.7 506.16 629.45 506.16 648.2 506.16 666.94 524.9 666.94"/>
          <rect class="cls-6" x="543.65" y="610.7" width="18.75" height="18.75" transform="translate(1106.05 1240.15) rotate(180)"/>
        </g>
      </g>
      <g id="_Grid_Repeat_-138" data-name="&amp;lt;Grid Repeat&amp;gt;">
        <g>
          <polygon class="cls-6" points="599.89 666.94 599.89 648.2 581.14 648.2 581.14 629.45 599.89 629.45 599.89 610.7 618.64 610.7 618.64 629.45 618.64 648.2 618.64 666.94 599.89 666.94"/>
          <rect class="cls-6" x="562.4" y="610.7" width="18.75" height="18.75"/>
        </g>
      </g>
    </g>
  </g>
</svg>