<?xml version="1.0" encoding="UTF-8"?>
<svg id="Layer_1" data-name="Layer 1" xmlns="http://www.w3.org/2000/svg" viewBox="0 0 589.57 54.53">
  <defs>
    <style>
      .cls-1 {
        fill: #32fa96;
      }
    </style>
  </defs>
  <polygon class="cls-1" points="571.41 0 553.25 0 553.25 10.37 553.25 18.16 553.25 18.16 553.25 36.32 553.25 54.48 571.41 54.48 571.41 36.32 571.41 18.16 571.41 18.16 589.57 18.16 589.57 0 571.41 0"/>
  <polygon class="cls-1" points="451.03 54.48 451.03 36.32 469.19 36.32 469.19 18.16 451.03 18.16 451.03 0 432.88 0 432.88 18.16 432.88 36.32 432.88 54.48 451.03 54.48"/>
  <rect class="cls-1" x="469.19" y="0" width="18.16" height="18.16"/>
  <rect class="cls-1" x="469.19" y="36.32" width="18.16" height="18.16"/>
  <polygon class="cls-1" points="286.78 0 286.78 18.16 268.62 18.16 268.62 36.32 286.78 36.32 286.78 54.48 304.94 54.48 304.94 36.32 304.94 18.16 304.94 0 286.78 0"/>
  <rect class="cls-1" x="250.46" y="36.32" width="18.16" height="18.16"/>
  <rect class="cls-1" x="250.46" y="0" width="18.16" height="18.16"/>
  <path class="cls-1" d="M20.69,35.96c-1.4-2.01-2.11-4.96-2.11-8.77s.71-6.74,2.11-8.72c1.42-2.01,3.38-3.03,5.82-3.03,3.37,0,5.69,1.77,6.9,5.26h19.37c-1.35-6.45-4.32-11.54-8.82-15.16C39.37,1.87,33.63,0,26.9,0,21.67,0,16.97,1.12,12.92,3.32c-4.02,2.17-7.32,5.45-9.51,9.46C1.15,16.87,0,21.72,0,27.19s1.14,10.42,3.41,14.51c2.19,4.01,5.49,7.29,9.51,9.46,4.05,2.2,8.76,3.32,13.98,3.32,6.73,0,12.47-1.88,17.05-5.58,4.51-3.64,7.48-8.73,8.82-15.11h-19.36c-1.14,3.49-3.46,5.26-6.9,5.26-2.45,0-4.41-1.04-5.83-3.08Z"/>
  <path class="cls-1" d="M394.73,35.96c-1.4-2.01-2.11-4.96-2.11-8.77s.71-6.74,2.11-8.72c1.42-2.01,3.38-3.03,5.82-3.03,3.37,0,5.69,1.77,6.9,5.26h19.37c-1.35-6.45-4.32-11.54-8.82-15.16C413.41,1.87,407.68,0,400.95,0c-5.23,0-9.93,1.12-13.98,3.32-4.02,2.17-7.32,5.45-9.51,9.46-2.26,4.08-3.41,8.93-3.41,14.41s1.14,10.42,3.41,14.51c2.19,4.01,5.49,7.29,9.51,9.46,4.05,2.2,8.76,3.32,13.98,3.32,6.73,0,12.47-1.88,17.05-5.58,4.51-3.64,7.48-8.73,8.82-15.11h-19.37c-1.14,3.49-3.46,5.26-6.9,5.26-2.44,0-4.4-1.04-5.82-3.08Z"/>
  <path class="cls-1" d="M159.72,24.39c-2.56-1.01-5.81-1.94-9.67-2.76-3.26-.7-5.66-1.4-7.14-2.08-1.57-.71-2.36-1.78-2.36-3.17-.04-1.04.46-2.02,1.31-2.61.84-.61,2.07-.91,3.65-.91,2.03,0,3.68.49,4.9,1.45,1.18.92,1.95,2.24,2.31,3.92h16.4c-.68-5.38-2.98-9.79-6.86-13.1C158.31,1.73,152.8.01,145.88.01c-4.66,0-8.69.76-11.99,2.27-3.3,1.51-5.81,3.55-7.49,6.07-1.68,2.52-2.57,5.48-2.54,8.51,0,3.62.93,6.52,2.75,8.62,1.76,2.06,4,3.65,6.54,4.61,2.52.95,5.73,1.81,9.53,2.57,3.38.77,5.84,1.48,7.33,2.12,1.57.68,2.37,1.77,2.37,3.22,0,1.11-.49,2.02-1.46,2.71-.94.67-2.21,1.01-3.8,1.01-2.03,0-3.76-.5-5.14-1.49-1.32-.93-2.21-2.37-2.47-3.97h-17.65c.28,3.34,1.53,6.53,3.6,9.17,2.16,2.79,5.15,5.01,8.89,6.61,3.74,1.6,8.07,2.42,12.86,2.42,4.47,0,8.41-.72,11.71-2.12,3.3-1.41,5.86-3.36,7.64-5.8,1.76-2.39,2.7-5.29,2.67-8.26,0-3.8-.96-6.85-2.85-9.06s-4.14-3.87-6.67-4.87Z"/>
  <path class="cls-1" d="M367.85,0h-18.21v8.87l-.51-.87c-1.44-2.43-3.49-4.39-6.12-5.83C340.4.74,337.22,0,333.58,0c-4.2,0-8.06,1.11-11.48,3.31s-6.15,5.38-8.13,9.46h0c-1.98,4.08-2.99,8.94-2.99,14.43s1,10.35,2.99,14.47c1.98,4.12,4.71,7.31,8.13,9.5,3.42,2.19,7.28,3.31,11.48,3.31,3.57,0,6.73-.73,9.39-2.17,2.66-1.44,4.73-3.4,6.16-5.83l.51-.87v8.87h18.34V0h-.13ZM346.75,35.61c-1.93,2.03-4.33,3.05-7.14,3.05s-5.29-1.04-7.19-3.1-2.85-4.87-2.85-8.37.96-6.38,2.85-8.37c1.89-1.99,4.31-3,7.19-3s5.21,1.03,7.14,3.05h0c1.92,2.02,2.9,4.82,2.9,8.32,0,3.57-.98,6.4-2.9,8.42Z"/>
  <path class="cls-1" d="M232.17,0h-18.21v8.87l-.51-.87c-1.44-2.43-3.49-4.39-6.12-5.83C204.72.74,201.54,0,197.9,0c-4.2,0-8.06,1.11-11.48,3.31-3.42,2.19-6.15,5.38-8.13,9.46h0c-1.98,4.08-2.99,8.94-2.99,14.43s1,10.35,2.99,14.47c1.98,4.12,4.71,7.31,8.13,9.5,3.42,2.19,7.28,3.31,11.48,3.31,3.57,0,6.73-.73,9.39-2.17,2.66-1.44,4.73-3.4,6.16-5.83l.51-.87v8.92h18.34V0h-.13ZM211.07,35.61c-1.93,2.03-4.33,3.05-7.14,3.05s-5.29-1.04-7.19-3.1c-1.9-2.06-2.85-4.87-2.85-8.37s.96-6.38,2.85-8.37c1.89-1.99,4.31-3,7.19-3s5.21,1.03,7.14,3.05h0c1.92,2.02,2.9,4.82,2.9,8.32s-.98,6.4-2.9,8.42Z"/>
  <path class="cls-1" d="M115.7,0h-18.21v8.87l-.51-.87c-1.43-2.43-3.49-4.39-6.11-5.83C88.25.74,85.07,0,81.43,0c-4.2,0-8.06,1.11-11.48,3.31-3.41,2.19-6.15,5.38-8.13,9.46h0c-1.98,4.08-2.99,8.94-2.99,14.43s1,10.35,2.99,14.47,4.71,7.31,8.13,9.5c3.42,2.19,7.27,3.31,11.48,3.31,3.58,0,6.73-.73,9.39-2.17,2.66-1.44,4.73-3.4,6.16-5.83l.51-.87v8.87h18.34V0h-.13ZM94.6,35.61c-1.93,2.03-4.33,3.05-7.14,3.05s-5.29-1.04-7.19-3.1c-1.9-2.06-2.85-4.87-2.85-8.37s.96-6.38,2.85-8.37c1.89-1.99,4.31-3,7.19-3s5.21,1.03,7.14,3.05h0c1.92,2.02,2.9,4.82,2.9,8.32,0,3.57-.98,6.4-2.9,8.42Z"/>
  <path class="cls-1" d="M543.79,12.45c-2.2-3.92-5.48-7.13-9.46-9.23-4.03-2.14-8.72-3.22-13.94-3.22s-10.02,1.12-14.08,3.32c-4.01,2.16-7.31,5.43-9.51,9.41-2.27,4.05-3.41,8.92-3.41,14.46s1.16,10.42,3.46,14.5c2.21,4,5.53,7.29,9.56,9.46,4.05,2.2,8.76,3.32,13.98,3.32,4.34,0,8.36-.83,11.94-2.46,3.58-1.63,6.59-3.91,8.95-6.77,2.27-2.75,3.88-5.98,4.7-9.45h-19.48c-1.39,2.79-3.7,4.21-6.86,4.21-2.3,0-4.22-.75-5.7-2.23s-2.33-3.74-2.52-6.73l-.02-.29h35.55c.17-1.37.25-2.75.25-4.13,0-5.41-1.15-10.18-3.42-14.17ZM528.61,22.21h-17.16l.06-.33c.46-2.48,1.45-4.38,2.96-5.66s3.47-1.93,5.82-1.93,4.34.68,5.92,2.03c1.58,1.35,2.39,3.25,2.39,5.62v.28Z"/>
</svg>