<?xml version="1.0" encoding="UTF-8"?>
<svg id="Layer_1" data-name="Layer 1" xmlns="http://www.w3.org/2000/svg" viewBox="0 0 337.75 123.82">
  <defs>
    <style>
      .cls-1 {
        fill: #d7dcd7;
      }
    </style>
  </defs>
  <path class="cls-1" d="M20.71,35.93c-1.4-2.01-2.11-4.96-2.11-8.76s.71-6.73,2.11-8.72c1.42-2.01,3.38-3.03,5.83-3.03,3.37,0,5.7,1.77,6.9,5.26h19.39c-1.35-6.44-4.33-11.54-8.83-15.15C39.4,1.86,33.66,0,26.92,0c-5.23,0-9.94,1.11-13.99,3.31-2.01,1.08-3.83,2.43-5.44,4.04s-2.98,3.41-4.07,5.42C1.15,16.85,0,21.7,0,27.17s1.14,10.41,3.41,14.5c1.09,2,2.45,3.81,4.07,5.42,1.62,1.61,3.43,2.95,5.44,4.04,4.06,2.2,8.76,3.31,13.99,3.31,6.73,0,12.48-1.88,17.06-5.58,4.51-3.64,7.48-8.72,8.83-15.1h-19.37c-1.14,3.49-3.46,5.26-6.9,5.26-2.45,0-4.41-1.04-5.83-3.08Z"/>
  <path class="cls-1" d="M159.84,24.36c-2.56-1.01-5.82-1.94-9.68-2.76-3.26-.7-5.66-1.4-7.14-2.08-1.57-.71-2.36-1.78-2.36-3.17-.02-.52.09-1.01.32-1.47.23-.46.56-.84.99-1.14.84-.61,2.07-.91,3.65-.91,2.03,0,3.68.49,4.91,1.45,1.18.92,1.95,2.24,2.31,3.92h16.41c-.68-5.37-2.99-9.78-6.87-13.09C158.42,1.72,152.91,0,145.98,0c-4.66,0-8.7.77-12,2.27-3.3,1.51-5.81,3.54-7.5,6.07-.84,1.26-1.48,2.61-1.91,4.06-.43,1.45-.64,2.93-.63,4.44,0,3.61.93,6.51,2.76,8.62.88,1.03,1.87,1.94,2.98,2.72,1.11.78,2.3,1.41,3.56,1.89,2.53.95,5.73,1.81,9.53,2.57,3.39.77,5.85,1.48,7.33,2.12,1.57.68,2.37,1.77,2.37,3.22,0,1.11-.49,2.02-1.46,2.71-.94.67-2.22,1.01-3.8,1.01-2.03,0-3.76-.5-5.14-1.49-.66-.47-1.21-1.04-1.64-1.73-.43-.69-.71-1.43-.83-2.23h-17.66c.14,1.67.52,3.29,1.13,4.85.61,1.56,1.44,3,2.48,4.32,2.16,2.79,5.15,5.01,8.89,6.61,3.74,1.6,8.08,2.42,12.87,2.42,4.47,0,8.42-.72,11.72-2.12,3.3-1.41,5.86-3.36,7.64-5.79.88-1.19,1.55-2.5,2.01-3.91s.68-2.86.67-4.34c0-3.8-.96-6.85-2.85-9.05-1.89-2.2-4.14-3.87-6.67-4.87Z"/>
  <path class="cls-1" d="M232.34,0h-18.22v8.86l-.51-.87c-1.44-2.43-3.5-4.39-6.12-5.83-2.62-1.44-5.8-2.17-9.44-2.17-4.2,0-8.07,1.11-11.49,3.3-3.42,2.19-6.16,5.37-8.14,9.45-1.98,4.08-2.99,8.94-2.99,14.42s1.01,10.35,2.99,14.46c1.98,4.12,4.72,7.31,8.14,9.5,3.42,2.19,7.28,3.3,11.49,3.3,3.58,0,6.74-.73,9.4-2.17,2.66-1.44,4.73-3.39,6.17-5.83l.51-.87v8.91h18.35V0h-.13ZM211.22,35.58c-1.93,2.03-4.33,3.05-7.14,3.05s-5.3-1.04-7.19-3.1c-1.9-2.06-2.85-4.86-2.85-8.36s.96-6.38,2.85-8.37c1.89-1.99,4.32-3,7.19-3s5.21,1.03,7.14,3.05c1.93,2.02,2.9,4.82,2.9,8.32s-.98,6.39-2.9,8.41Z"/>
  <path class="cls-1" d="M115.79,0h-18.22v8.86l-.51-.87c-1.44-2.43-3.49-4.39-6.12-5.83-2.62-1.44-5.8-2.17-9.44-2.17-4.2,0-8.07,1.11-11.48,3.3-3.42,2.19-6.16,5.37-8.14,9.45-1.98,4.08-2.99,8.94-2.99,14.42s1.01,10.35,2.99,14.46c1.98,4.12,4.72,7.31,8.14,9.5,3.42,2.19,7.28,3.3,11.48,3.3,3.58,0,6.74-.73,9.4-2.17,2.66-1.44,4.73-3.39,6.17-5.83l.51-.87v8.86h18.35V0h-.13ZM94.67,35.58c-1.93,2.03-4.33,3.05-7.14,3.05s-5.3-1.04-7.19-3.1c-1.9-2.06-2.85-4.87-2.85-8.36s.96-6.38,2.85-8.37c1.89-1.99,4.31-3,7.19-3s5.21,1.03,7.14,3.05c1.93,2.02,2.9,4.82,2.9,8.32,0,3.56-.98,6.39-2.9,8.41Z"/>
  <polygon class="cls-1" points="337.75 69.39 337.75 87.53 321.4 87.53 321.4 123.82 303.23 123.82 303.23 69.39 337.75 69.39"/>
  <path class="cls-1" d="M200.93,123.82v-18.14h18.17v-18.15h-18.17v-18.14h-18.17v54.43h18.17Z"/>
  <path class="cls-1" d="M219.11,69.39h18.17v18.14h-18.17v-18.14Z"/>
  <path class="cls-1" d="M219.11,105.68h18.17v18.14h-18.17v-18.14Z"/>
  <path class="cls-1" d="M36.56,69.39v18.14h-18.17v18.15h18.17v18.14h18.17v-54.43h-18.17Z"/>
  <path class="cls-1" d="M.22,105.68h18.17v18.14H.22v-18.14Z"/>
  <path class="cls-1" d="M.22,69.39h18.17v18.14H.22v-18.14Z"/>
  <path class="cls-1" d="M144.6,105.32c-1.4-2.01-2.11-4.96-2.11-8.76s.71-6.73,2.11-8.72c1.42-2.01,3.38-3.03,5.83-3.03,3.38,0,5.7,1.77,6.9,5.26h19.38c-1.35-6.44-4.33-11.54-8.83-15.15-4.59-3.67-10.33-5.53-17.06-5.53-5.23,0-9.94,1.12-13.99,3.31-2.01,1.08-3.83,2.43-5.44,4.04-1.62,1.61-2.98,3.41-4.07,5.42-2.26,4.08-3.41,8.93-3.41,14.4s1.15,10.41,3.41,14.5c1.09,2,2.45,3.81,4.07,5.42,1.62,1.61,3.44,2.95,5.45,4.04,4.06,2.2,8.76,3.31,13.99,3.31,6.73,0,12.48-1.88,17.06-5.58,4.51-3.64,7.48-8.72,8.83-15.1h-19.38c-1.14,3.49-3.47,5.26-6.9,5.26-2.44,0-4.4-1.04-5.82-3.08Z"/>
  <path class="cls-1" d="M117.7,69.39h-18.22v8.86l-.51-.87c-1.44-2.43-3.5-4.39-6.12-5.83-2.63-1.44-5.81-2.17-9.44-2.17-4.2,0-8.07,1.11-11.49,3.3-3.42,2.19-6.16,5.37-8.14,9.45-1.98,4.08-2.99,8.94-2.99,14.42s1.01,10.35,2.99,14.46c1.98,4.12,4.72,7.31,8.14,9.5,3.42,2.19,7.28,3.3,11.49,3.3,3.58,0,6.74-.73,9.4-2.17,2.66-1.44,4.73-3.39,6.17-5.83l.51-.87v8.86h18.35v-54.43h-.13ZM96.58,104.97c-1.93,2.03-4.33,3.05-7.14,3.05s-5.3-1.04-7.19-3.1c-1.9-2.06-2.85-4.86-2.85-8.36s.96-6.38,2.85-8.37c1.89-1.99,4.31-3,7.19-3s5.21,1.03,7.14,3.05c1.93,2.02,2.9,4.82,2.9,8.32,0,3.56-.98,6.39-2.9,8.41Z"/>
  <path class="cls-1" d="M293.76,81.82c-1.1-1.96-2.45-3.73-4.06-5.29-1.61-1.57-3.41-2.88-5.4-3.93-4.03-2.13-8.72-3.22-13.95-3.22s-10.03,1.12-14.09,3.31c-2.01,1.08-3.82,2.42-5.44,4.02-1.62,1.6-2.98,3.4-4.08,5.39-2.27,4.05-3.41,8.92-3.41,14.45s1.16,10.41,3.46,14.49c1.11,2,2.47,3.81,4.1,5.41,1.63,1.61,3.45,2.95,5.46,4.04,4.06,2.2,8.76,3.31,13.99,3.31,4.35,0,8.37-.83,11.95-2.46,3.58-1.63,6.6-3.91,8.95-6.76,1.14-1.37,2.1-2.86,2.9-4.45.79-1.59,1.4-3.26,1.81-4.99h-19.5c-1.39,2.79-3.71,4.21-6.87,4.21-2.3,0-4.22-.75-5.7-2.23-1.48-1.48-2.33-3.74-2.52-6.73l-.02-.29h35.58c.17-1.37.25-2.75.25-4.13,0-5.41-1.15-10.17-3.42-14.16ZM278.57,91.57h-17.17l.06-.33c.46-2.47,1.45-4.38,2.97-5.66,1.51-1.28,3.47-1.93,5.83-1.93s4.35.68,5.93,2.03,2.39,3.24,2.39,5.61v.28Z"/>
</svg>